<?xml version="1.0" encoding="utf-8" standalone="no"?>
<!DOCTYPE svg PUBLIC "-//W3C//DTD SVG 1.1//EN"
  "http://www.w3.org/Graphics/SVG/1.1/DTD/svg11.dtd">
<svg xmlns:xlink="http://www.w3.org/1999/xlink" width="713.221062pt" height="712.695562pt" viewBox="0 0 713.221062 712.695562" xmlns="http://www.w3.org/2000/svg" version="1.1">
 <metadata>
  <rdf:RDF xmlns:dc="http://purl.org/dc/elements/1.1/" xmlns:cc="http://creativecommons.org/ns#" xmlns:rdf="http://www.w3.org/1999/02/22-rdf-syntax-ns#">
   <cc:Work>
    <dc:type rdf:resource="http://purl.org/dc/dcmitype/StillImage"/>
    <dc:date>2025-11-11T12:30:51.526108</dc:date>
    <dc:format>image/svg+xml</dc:format>
    <dc:creator>
     <cc:Agent>
      <dc:title>Matplotlib v3.10.3, https://matplotlib.org/</dc:title>
     </cc:Agent>
    </dc:creator>
   </cc:Work>
  </rdf:RDF>
 </metadata>
 <defs>
  <style type="text/css">*{stroke-linejoin: round; stroke-linecap: butt}</style>
 </defs>
 <g id="figure_1">
  <g id="patch_1">
   <path d="M 0 712.695562 
L 713.221062 712.695562 
L 713.221062 0 
L 0 0 
z
" style="fill: #ffffff"/>
  </g>
  <g id="axes_1">
   <g id="patch_2">
    <path d="M 555.429062 334.575562 
C 555.429062 300.521972 548.721248 266.79951 535.689503 235.338095 
C 522.657758 203.87668 503.555518 175.288157 479.475993 151.208632 
C 455.396468 127.129107 426.807945 108.026867 395.34653 94.995122 
C 363.885115 81.963377 330.162653 75.255562 296.109062 75.255562 
C 262.055472 75.255562 228.33301 81.963377 196.871595 94.995122 
C 165.41018 108.026867 136.821657 127.129107 112.742132 151.208632 
C 88.662607 175.288157 69.560367 203.87668 56.528622 235.338095 
C 43.496877 266.79951 36.789063 300.521972 36.789063 334.575562 
C 36.789063 368.629153 43.496877 402.351615 56.528622 433.81303 
C 69.560367 465.274445 88.662607 493.862968 112.742132 517.942493 
C 136.821657 542.022018 165.41018 561.124258 196.871595 574.156003 
C 228.33301 587.187748 262.055472 593.895562 296.109062 593.895562 
C 330.162653 593.895562 363.885115 587.187748 395.34653 574.156003 
C 426.807945 561.124258 455.396468 542.022018 479.475993 517.942493 
C 503.555518 493.862968 522.657758 465.274445 535.689503 433.81303 
C 548.721248 402.351615 555.429062 368.629153 555.429062 334.575562 
M 296.109062 334.575562 
C 296.109062 334.575562 296.109062 334.575562 296.109062 334.575562 
C 296.109062 334.575562 296.109062 334.575562 296.109062 334.575562 
C 296.109062 334.575562 296.109062 334.575562 296.109062 334.575562 
C 296.109062 334.575562 296.109062 334.575562 296.109062 334.575562 
C 296.109062 334.575562 296.109062 334.575562 296.109062 334.575562 
C 296.109062 334.575562 296.109062 334.575562 296.109062 334.575562 
C 296.109062 334.575562 296.109062 334.575562 296.109062 334.575562 
C 296.109062 334.575562 296.109062 334.575562 296.109062 334.575562 
C 296.109062 334.575562 296.109062 334.575562 296.109062 334.575562 
C 296.109062 334.575562 296.109062 334.575562 296.109062 334.575562 
C 296.109062 334.575562 296.109062 334.575562 296.109062 334.575562 
C 296.109062 334.575562 296.109062 334.575562 296.109062 334.575562 
C 296.109062 334.575562 296.109062 334.575562 296.109062 334.575562 
C 296.109062 334.575562 296.109062 334.575562 296.109062 334.575562 
C 296.109062 334.575562 296.109062 334.575562 296.109062 334.575562 
C 296.109062 334.575562 296.109062 334.575562 296.109062 334.575562 
z
" style="fill: #ffffff"/>
   </g>
   <g id="matplotlib.axis_1">
    <g id="xtick_1">
     <g id="line2d_1">
      <path d="M 296.109062 334.575562 
L 555.429062 334.575562 
" clip-path="url(#p8989eee2d8)" style="fill: none; stroke: #cccccc; stroke-opacity: 0.3; stroke-width: 0.8; stroke-linecap: round"/>
     </g>
     <g id="text_1">
      <!-- IND01 -->
      <g style="fill: #262626" transform="translate(553.84 337.426969) scale(0.11 -0.11)">
       <defs>
        <path id="Arial-BoldMT-49" d="M 438 0 
L 438 4581 
L 1363 4581 
L 1363 0 
L 438 0 
z
" transform="scale(0.015625)"/>
        <path id="Arial-BoldMT-4e" d="M 475 0 
L 475 4581 
L 1375 4581 
L 3250 1522 
L 3250 4581 
L 4109 4581 
L 4109 0 
L 3181 0 
L 1334 2988 
L 1334 0 
L 475 0 
z
" transform="scale(0.015625)"/>
        <path id="Arial-BoldMT-44" d="M 463 4581 
L 2153 4581 
Q 2725 4581 3025 4494 
Q 3428 4375 3715 4072 
Q 4003 3769 4153 3330 
Q 4303 2891 4303 2247 
Q 4303 1681 4163 1272 
Q 3991 772 3672 463 
Q 3431 228 3022 97 
Q 2716 0 2203 0 
L 463 0 
L 463 4581 
z
M 1388 3806 
L 1388 772 
L 2078 772 
Q 2466 772 2638 816 
Q 2863 872 3011 1006 
Q 3159 1141 3253 1448 
Q 3347 1756 3347 2288 
Q 3347 2819 3253 3103 
Q 3159 3388 2990 3547 
Q 2822 3706 2563 3763 
Q 2369 3806 1803 3806 
L 1388 3806 
z
" transform="scale(0.015625)"/>
        <path id="Arial-BoldMT-30" d="M 1756 4600 
Q 2422 4600 2797 4125 
Q 3244 3563 3244 2259 
Q 3244 959 2794 391 
Q 2422 -78 1756 -78 
Q 1088 -78 678 436 
Q 269 950 269 2269 
Q 269 3563 719 4131 
Q 1091 4600 1756 4600 
z
M 1756 3872 
Q 1597 3872 1472 3770 
Q 1347 3669 1278 3406 
Q 1188 3066 1188 2259 
Q 1188 1453 1269 1151 
Q 1350 850 1473 750 
Q 1597 650 1756 650 
Q 1916 650 2041 751 
Q 2166 853 2234 1116 
Q 2325 1453 2325 2259 
Q 2325 3066 2244 3367 
Q 2163 3669 2039 3770 
Q 1916 3872 1756 3872 
z
" transform="scale(0.015625)"/>
        <path id="Arial-BoldMT-31" d="M 2519 0 
L 1641 0 
L 1641 3309 
Q 1159 2859 506 2644 
L 506 3441 
Q 850 3553 1253 3867 
Q 1656 4181 1806 4600 
L 2519 4600 
L 2519 0 
z
" transform="scale(0.015625)"/>
       </defs>
       <use xlink:href="#Arial-BoldMT-49"/>
       <use xlink:href="#Arial-BoldMT-4e" transform="translate(27.783203 0)"/>
       <use xlink:href="#Arial-BoldMT-44" transform="translate(100 0)"/>
       <use xlink:href="#Arial-BoldMT-30" transform="translate(172.216797 0)"/>
       <use xlink:href="#Arial-BoldMT-31" transform="translate(227.832031 0)"/>
      </g>
     </g>
    </g>
    <g id="xtick_2">
     <g id="line2d_2">
      <path d="M 296.109062 334.575562 
L 425.769063 109.997855 
" clip-path="url(#p8989eee2d8)" style="fill: none; stroke: #cccccc; stroke-opacity: 0.3; stroke-width: 0.8; stroke-linecap: round"/>
     </g>
     <g id="text_2">
      <!-- IND02 -->
      <g style="fill: #262626" transform="translate(417.18 100.724905) scale(0.11 -0.11)">
       <defs>
        <path id="Arial-BoldMT-32" d="M 3238 816 
L 3238 0 
L 159 0 
Q 209 463 459 877 
Q 709 1291 1447 1975 
Q 2041 2528 2175 2725 
Q 2356 2997 2356 3263 
Q 2356 3556 2198 3714 
Q 2041 3872 1763 3872 
Q 1488 3872 1325 3706 
Q 1163 3541 1138 3156 
L 263 3244 
Q 341 3969 753 4284 
Q 1166 4600 1784 4600 
Q 2463 4600 2850 4234 
Q 3238 3869 3238 3325 
Q 3238 3016 3127 2736 
Q 3016 2456 2775 2150 
Q 2616 1947 2200 1565 
Q 1784 1184 1673 1059 
Q 1563 934 1494 816 
L 3238 816 
z
" transform="scale(0.015625)"/>
       </defs>
       <use xlink:href="#Arial-BoldMT-49"/>
       <use xlink:href="#Arial-BoldMT-4e" transform="translate(27.783203 0)"/>
       <use xlink:href="#Arial-BoldMT-44" transform="translate(100 0)"/>
       <use xlink:href="#Arial-BoldMT-30" transform="translate(172.216797 0)"/>
       <use xlink:href="#Arial-BoldMT-32" transform="translate(227.832031 0)"/>
      </g>
     </g>
    </g>
    <g id="xtick_3">
     <g id="line2d_3">
      <path d="M 296.109062 334.575562 
L 166.449063 109.997855 
" clip-path="url(#p8989eee2d8)" style="fill: none; stroke: #cccccc; stroke-opacity: 0.3; stroke-width: 0.8; stroke-linecap: round"/>
     </g>
     <g id="text_3">
      <!-- IND03 -->
      <g style="fill: #262626" transform="translate(143.86 100.724905) scale(0.11 -0.11)">
       <defs>
        <path id="Arial-BoldMT-33" d="M 241 1216 
L 1091 1319 
Q 1131 994 1309 822 
Q 1488 650 1741 650 
Q 2013 650 2198 856 
Q 2384 1063 2384 1413 
Q 2384 1744 2206 1937 
Q 2028 2131 1772 2131 
Q 1603 2131 1369 2066 
L 1466 2781 
Q 1822 2772 2009 2936 
Q 2197 3100 2197 3372 
Q 2197 3603 2059 3740 
Q 1922 3878 1694 3878 
Q 1469 3878 1309 3722 
Q 1150 3566 1116 3266 
L 306 3403 
Q 391 3819 561 4067 
Q 731 4316 1036 4458 
Q 1341 4600 1719 4600 
Q 2366 4600 2756 4188 
Q 3078 3850 3078 3425 
Q 3078 2822 2419 2463 
Q 2813 2378 3048 2084 
Q 3284 1791 3284 1375 
Q 3284 772 2843 347 
Q 2403 -78 1747 -78 
Q 1125 -78 715 280 
Q 306 638 241 1216 
z
" transform="scale(0.015625)"/>
       </defs>
       <use xlink:href="#Arial-BoldMT-49"/>
       <use xlink:href="#Arial-BoldMT-4e" transform="translate(27.783203 0)"/>
       <use xlink:href="#Arial-BoldMT-44" transform="translate(100 0)"/>
       <use xlink:href="#Arial-BoldMT-30" transform="translate(172.216797 0)"/>
       <use xlink:href="#Arial-BoldMT-33" transform="translate(227.832031 0)"/>
      </g>
     </g>
    </g>
    <g id="xtick_4">
     <g id="line2d_4">
      <path d="M 296.109062 334.575562 
L 36.789062 334.575562 
" clip-path="url(#p8989eee2d8)" style="fill: none; stroke: #cccccc; stroke-opacity: 0.3; stroke-width: 0.8; stroke-linecap: round"/>
     </g>
     <g id="text_4">
      <!-- IND04 -->
      <g style="fill: #262626" transform="translate(7.2 337.426969) scale(0.11 -0.11)">
       <defs>
        <path id="Arial-BoldMT-34" d="M 1994 0 
L 1994 922 
L 119 922 
L 119 1691 
L 2106 4600 
L 2844 4600 
L 2844 1694 
L 3413 1694 
L 3413 922 
L 2844 922 
L 2844 0 
L 1994 0 
z
M 1994 1694 
L 1994 3259 
L 941 1694 
L 1994 1694 
z
" transform="scale(0.015625)"/>
       </defs>
       <use xlink:href="#Arial-BoldMT-49"/>
       <use xlink:href="#Arial-BoldMT-4e" transform="translate(27.783203 0)"/>
       <use xlink:href="#Arial-BoldMT-44" transform="translate(100 0)"/>
       <use xlink:href="#Arial-BoldMT-30" transform="translate(172.216797 0)"/>
       <use xlink:href="#Arial-BoldMT-34" transform="translate(227.832031 0)"/>
      </g>
     </g>
    </g>
    <g id="xtick_5">
     <g id="line2d_5">
      <path d="M 296.109062 334.575562 
L 166.449062 559.15327 
" clip-path="url(#p8989eee2d8)" style="fill: none; stroke: #cccccc; stroke-opacity: 0.3; stroke-width: 0.8; stroke-linecap: round"/>
     </g>
     <g id="text_5">
      <!-- IND05 -->
      <g style="fill: #262626" transform="translate(143.86 574.129032) scale(0.11 -0.11)">
       <defs>
        <path id="Arial-BoldMT-35" d="M 284 1178 
L 1159 1269 
Q 1197 972 1381 798 
Q 1566 625 1806 625 
Q 2081 625 2272 848 
Q 2463 1072 2463 1522 
Q 2463 1944 2273 2155 
Q 2084 2366 1781 2366 
Q 1403 2366 1103 2031 
L 391 2134 
L 841 4519 
L 3163 4519 
L 3163 3697 
L 1506 3697 
L 1369 2919 
Q 1663 3066 1969 3066 
Q 2553 3066 2959 2641 
Q 3366 2216 3366 1538 
Q 3366 972 3038 528 
Q 2591 -78 1797 -78 
Q 1163 -78 763 262 
Q 363 603 284 1178 
z
" transform="scale(0.015625)"/>
       </defs>
       <use xlink:href="#Arial-BoldMT-49"/>
       <use xlink:href="#Arial-BoldMT-4e" transform="translate(27.783203 0)"/>
       <use xlink:href="#Arial-BoldMT-44" transform="translate(100 0)"/>
       <use xlink:href="#Arial-BoldMT-30" transform="translate(172.216797 0)"/>
       <use xlink:href="#Arial-BoldMT-35" transform="translate(227.832031 0)"/>
      </g>
     </g>
    </g>
    <g id="xtick_6">
     <g id="line2d_6">
      <path d="M 296.109062 334.575562 
L 425.769063 559.15327 
" clip-path="url(#p8989eee2d8)" style="fill: none; stroke: #cccccc; stroke-opacity: 0.3; stroke-width: 0.8; stroke-linecap: round"/>
     </g>
     <g id="text_6">
      <!-- IND06 -->
      <g style="fill: #262626" transform="translate(417.18 574.129032) scale(0.11 -0.11)">
       <defs>
        <path id="Arial-BoldMT-36" d="M 3247 3459 
L 2397 3366 
Q 2366 3628 2234 3753 
Q 2103 3878 1894 3878 
Q 1616 3878 1423 3628 
Q 1231 3378 1181 2588 
Q 1509 2975 1997 2975 
Q 2547 2975 2939 2556 
Q 3331 2138 3331 1475 
Q 3331 772 2918 347 
Q 2506 -78 1859 -78 
Q 1166 -78 719 461 
Q 272 1000 272 2228 
Q 272 3488 737 4044 
Q 1203 4600 1947 4600 
Q 2469 4600 2811 4308 
Q 3153 4016 3247 3459 
z
M 1256 1544 
Q 1256 1116 1453 883 
Q 1650 650 1903 650 
Q 2147 650 2309 840 
Q 2472 1031 2472 1466 
Q 2472 1913 2297 2120 
Q 2122 2328 1859 2328 
Q 1606 2328 1431 2129 
Q 1256 1931 1256 1544 
z
" transform="scale(0.015625)"/>
       </defs>
       <use xlink:href="#Arial-BoldMT-49"/>
       <use xlink:href="#Arial-BoldMT-4e" transform="translate(27.783203 0)"/>
       <use xlink:href="#Arial-BoldMT-44" transform="translate(100 0)"/>
       <use xlink:href="#Arial-BoldMT-30" transform="translate(172.216797 0)"/>
       <use xlink:href="#Arial-BoldMT-36" transform="translate(227.832031 0)"/>
      </g>
     </g>
    </g>
   </g>
   <g id="matplotlib.axis_2">
    <g id="ytick_1">
     <g id="line2d_7">
      <path d="M 333.154777 334.575562 
C 333.154777 329.710764 332.196518 324.893269 330.33484 320.398781 
C 328.473162 315.904294 325.74427 311.820219 322.304338 308.380287 
C 318.864406 304.940355 314.780331 302.211463 310.285844 300.349785 
C 305.791356 298.488107 300.973861 297.529848 296.109062 297.529848 
C 291.244264 297.529848 286.426769 298.488107 281.932281 300.349785 
C 277.437794 302.211463 273.353719 304.940355 269.913787 308.380287 
C 266.473855 311.820219 263.744963 315.904294 261.883285 320.398781 
C 260.021607 324.893269 259.063348 329.710764 259.063348 334.575562 
C 259.063348 339.440361 260.021607 344.257856 261.883285 348.752344 
C 263.744963 353.246831 266.473855 357.330906 269.913787 360.770838 
C 273.353719 364.21077 277.437794 366.939662 281.932281 368.80134 
C 286.426769 370.663018 291.244264 371.621277 296.109062 371.621277 
C 300.973861 371.621277 305.791356 370.663018 310.285844 368.80134 
C 314.780331 366.939662 318.864406 364.21077 322.304338 360.770838 
C 325.74427 357.330906 328.473162 353.246831 330.33484 348.752344 
C 332.196518 344.257856 333.154777 339.440361 333.154777 334.575562 
" clip-path="url(#p8989eee2d8)" style="fill: none; stroke: #cccccc; stroke-opacity: 0.3; stroke-width: 0.8; stroke-linecap: round"/>
     </g>
     <g id="text_7">
      <!-- 0.0 -->
      <g style="fill: #262626" transform="translate(330.33484 318.610031) scale(0.09 -0.09)">
       <defs>
        <path id="ArialMT-30" d="M 266 2259 
Q 266 3072 433 3567 
Q 600 4063 929 4331 
Q 1259 4600 1759 4600 
Q 2128 4600 2406 4451 
Q 2684 4303 2865 4023 
Q 3047 3744 3150 3342 
Q 3253 2941 3253 2259 
Q 3253 1453 3087 958 
Q 2922 463 2592 192 
Q 2263 -78 1759 -78 
Q 1097 -78 719 397 
Q 266 969 266 2259 
z
M 844 2259 
Q 844 1131 1108 757 
Q 1372 384 1759 384 
Q 2147 384 2411 759 
Q 2675 1134 2675 2259 
Q 2675 3391 2411 3762 
Q 2147 4134 1753 4134 
Q 1366 4134 1134 3806 
Q 844 3388 844 2259 
z
" transform="scale(0.015625)"/>
        <path id="ArialMT-2e" d="M 581 0 
L 581 641 
L 1222 641 
L 1222 0 
L 581 0 
z
" transform="scale(0.015625)"/>
       </defs>
       <use xlink:href="#ArialMT-30"/>
       <use xlink:href="#ArialMT-2e" transform="translate(55.615234 0)"/>
       <use xlink:href="#ArialMT-30" transform="translate(83.398438 0)"/>
      </g>
     </g>
    </g>
    <g id="ytick_2">
     <g id="line2d_8">
      <path d="M 370.200491 334.575562 
C 370.200491 324.845965 368.283973 315.210976 364.560617 306.222 
C 360.837261 297.233025 355.379478 289.064875 348.499614 282.185011 
C 341.61975 275.305147 333.4516 269.847364 324.462625 266.124008 
C 315.473649 262.400652 305.83866 260.484134 296.109062 260.484134 
C 286.379465 260.484134 276.744476 262.400652 267.7555 266.124008 
C 258.766525 269.847364 250.598375 275.305147 243.718511 282.185011 
C 236.838647 289.064875 231.380864 297.233025 227.657508 306.222 
C 223.934152 315.210976 222.017634 324.845965 222.017634 334.575562 
C 222.017634 344.30516 223.934152 353.940149 227.657508 362.929125 
C 231.380864 371.9181 236.838647 380.08625 243.718511 386.966114 
C 250.598375 393.845978 258.766525 399.303761 267.7555 403.027117 
C 276.744476 406.750473 286.379465 408.666991 296.109062 408.666991 
C 305.83866 408.666991 315.473649 406.750473 324.462625 403.027117 
C 333.4516 399.303761 341.61975 393.845978 348.499614 386.966114 
C 355.379478 380.08625 360.837261 371.9181 364.560617 362.929125 
C 368.283973 353.940149 370.200491 344.30516 370.200491 334.575562 
" clip-path="url(#p8989eee2d8)" style="fill: none; stroke: #cccccc; stroke-opacity: 0.3; stroke-width: 0.8; stroke-linecap: round"/>
     </g>
     <g id="text_8">
      <!-- 0.2 -->
      <g style="fill: #262626" transform="translate(364.560617 304.43325) scale(0.09 -0.09)">
       <defs>
        <path id="ArialMT-32" d="M 3222 541 
L 3222 0 
L 194 0 
Q 188 203 259 391 
Q 375 700 629 1000 
Q 884 1300 1366 1694 
Q 2113 2306 2375 2664 
Q 2638 3022 2638 3341 
Q 2638 3675 2398 3904 
Q 2159 4134 1775 4134 
Q 1369 4134 1125 3890 
Q 881 3647 878 3216 
L 300 3275 
Q 359 3922 746 4261 
Q 1134 4600 1788 4600 
Q 2447 4600 2831 4234 
Q 3216 3869 3216 3328 
Q 3216 3053 3103 2787 
Q 2991 2522 2730 2228 
Q 2469 1934 1863 1422 
Q 1356 997 1212 845 
Q 1069 694 975 541 
L 3222 541 
z
" transform="scale(0.015625)"/>
       </defs>
       <use xlink:href="#ArialMT-30"/>
       <use xlink:href="#ArialMT-2e" transform="translate(55.615234 0)"/>
       <use xlink:href="#ArialMT-32" transform="translate(83.398438 0)"/>
      </g>
     </g>
    </g>
    <g id="ytick_3">
     <g id="line2d_9">
      <path d="M 407.246205 334.575562 
C 407.246205 319.981167 404.371428 305.528683 398.786394 292.045219 
C 393.201361 278.561756 385.014686 266.309531 374.69489 255.989735 
C 364.375094 245.669939 352.122869 237.483264 338.639406 231.898231 
C 325.155942 226.313197 310.703458 223.43842 296.109062 223.43842 
C 281.514667 223.43842 267.062183 226.313197 253.578719 231.898231 
C 240.095256 237.483264 227.843031 245.669939 217.523235 255.989735 
C 207.203439 266.309531 199.016764 278.561756 193.431731 292.045219 
C 187.846697 305.528683 184.97192 319.981167 184.97192 334.575562 
C 184.97192 349.169958 187.846697 363.622442 193.431731 377.105906 
C 199.016764 390.589369 207.203439 402.841594 217.523235 413.16139 
C 227.843031 423.481186 240.095256 431.667861 253.578719 437.252894 
C 267.062183 442.837928 281.514667 445.712705 296.109062 445.712705 
C 310.703458 445.712705 325.155942 442.837928 338.639406 437.252894 
C 352.122869 431.667861 364.375094 423.481186 374.69489 413.16139 
C 385.014686 402.841594 393.201361 390.589369 398.786394 377.105906 
C 404.371428 363.622442 407.246205 349.169958 407.246205 334.575562 
" clip-path="url(#p8989eee2d8)" style="fill: none; stroke: #cccccc; stroke-opacity: 0.3; stroke-width: 0.8; stroke-linecap: round"/>
     </g>
     <g id="text_9">
      <!-- 0.4 -->
      <g style="fill: #262626" transform="translate(398.786394 290.256469) scale(0.09 -0.09)">
       <defs>
        <path id="ArialMT-34" d="M 2069 0 
L 2069 1097 
L 81 1097 
L 81 1613 
L 2172 4581 
L 2631 4581 
L 2631 1613 
L 3250 1613 
L 3250 1097 
L 2631 1097 
L 2631 0 
L 2069 0 
z
M 2069 1613 
L 2069 3678 
L 634 1613 
L 2069 1613 
z
" transform="scale(0.015625)"/>
       </defs>
       <use xlink:href="#ArialMT-30"/>
       <use xlink:href="#ArialMT-2e" transform="translate(55.615234 0)"/>
       <use xlink:href="#ArialMT-34" transform="translate(83.398438 0)"/>
      </g>
     </g>
    </g>
    <g id="ytick_4">
     <g id="line2d_10">
      <path d="M 444.29192 334.575562 
C 444.29192 315.116368 440.458883 295.84639 433.012171 277.868438 
C 425.56546 259.890487 414.649894 243.554188 400.890166 229.794459 
C 387.130437 216.034731 370.794138 205.119165 352.816187 197.672454 
C 334.838235 190.225742 315.568257 186.392705 296.109062 186.392705 
C 276.649868 186.392705 257.37989 190.225742 239.401938 197.672454 
C 221.423987 205.119165 205.087688 216.034731 191.327959 229.794459 
C 177.568231 243.554188 166.652665 259.890487 159.205954 277.868438 
C 151.759242 295.84639 147.926205 315.116368 147.926205 334.575562 
C 147.926205 354.034757 151.759242 373.304735 159.205954 391.282687 
C 166.652665 409.260638 177.568231 425.596937 191.327959 439.356666 
C 205.087688 453.116394 221.423987 464.03196 239.401938 471.478671 
C 257.37989 478.925383 276.649868 482.75842 296.109062 482.75842 
C 315.568257 482.75842 334.838235 478.925383 352.816187 471.478671 
C 370.794138 464.03196 387.130437 453.116394 400.890166 439.356666 
C 414.649894 425.596937 425.56546 409.260638 433.012171 391.282687 
C 440.458883 373.304735 444.29192 354.034757 444.29192 334.575563 
" clip-path="url(#p8989eee2d8)" style="fill: none; stroke: #cccccc; stroke-opacity: 0.3; stroke-width: 0.8; stroke-linecap: round"/>
     </g>
     <g id="text_10">
      <!-- 0.6 -->
      <g style="fill: #262626" transform="translate(433.012171 276.079688) scale(0.09 -0.09)">
       <defs>
        <path id="ArialMT-36" d="M 3184 3459 
L 2625 3416 
Q 2550 3747 2413 3897 
Q 2184 4138 1850 4138 
Q 1581 4138 1378 3988 
Q 1113 3794 959 3422 
Q 806 3050 800 2363 
Q 1003 2672 1297 2822 
Q 1591 2972 1913 2972 
Q 2475 2972 2870 2558 
Q 3266 2144 3266 1488 
Q 3266 1056 3080 686 
Q 2894 316 2569 119 
Q 2244 -78 1831 -78 
Q 1128 -78 684 439 
Q 241 956 241 2144 
Q 241 3472 731 4075 
Q 1159 4600 1884 4600 
Q 2425 4600 2770 4297 
Q 3116 3994 3184 3459 
z
M 888 1484 
Q 888 1194 1011 928 
Q 1134 663 1356 523 
Q 1578 384 1822 384 
Q 2178 384 2434 671 
Q 2691 959 2691 1453 
Q 2691 1928 2437 2201 
Q 2184 2475 1800 2475 
Q 1419 2475 1153 2201 
Q 888 1928 888 1484 
z
" transform="scale(0.015625)"/>
       </defs>
       <use xlink:href="#ArialMT-30"/>
       <use xlink:href="#ArialMT-2e" transform="translate(55.615234 0)"/>
       <use xlink:href="#ArialMT-36" transform="translate(83.398438 0)"/>
      </g>
     </g>
    </g>
    <g id="ytick_5">
     <g id="line2d_11">
      <path d="M 481.337634 334.575562 
C 481.337634 310.251569 476.546338 286.164096 467.237948 263.691657 
C 457.929559 241.219218 444.285102 220.798844 427.085441 203.599184 
C 409.885781 186.399523 389.465407 172.755066 366.992968 163.446677 
C 344.520529 154.138287 320.433056 149.346991 296.109062 149.346991 
C 271.785069 149.346991 247.697596 154.138287 225.225157 163.446677 
C 202.752718 172.755066 182.332344 186.399523 165.132684 203.599184 
C 147.933023 220.798844 134.288566 241.219218 124.980177 263.691657 
C 115.671787 286.164096 110.880491 310.251569 110.880491 334.575562 
C 110.880491 358.899556 115.671787 382.987029 124.980177 405.459468 
C 134.288566 427.931907 147.933023 448.352281 165.132684 465.551941 
C 182.332344 482.751602 202.752718 496.396059 225.225157 505.704448 
C 247.697596 515.012838 271.785069 519.804134 296.109062 519.804134 
C 320.433056 519.804134 344.520529 515.012838 366.992968 505.704448 
C 389.465407 496.396059 409.885781 482.751602 427.085441 465.551941 
C 444.285102 448.352281 457.929559 427.931907 467.237948 405.459468 
C 476.546338 382.987029 481.337634 358.899556 481.337634 334.575563 
" clip-path="url(#p8989eee2d8)" style="fill: none; stroke: #cccccc; stroke-opacity: 0.3; stroke-width: 0.8; stroke-linecap: round"/>
     </g>
     <g id="text_11">
      <!-- 0.8 -->
      <g style="fill: #262626" transform="translate(467.237948 261.902907) scale(0.09 -0.09)">
       <defs>
        <path id="ArialMT-38" d="M 1131 2484 
Q 781 2613 612 2850 
Q 444 3088 444 3419 
Q 444 3919 803 4259 
Q 1163 4600 1759 4600 
Q 2359 4600 2725 4251 
Q 3091 3903 3091 3403 
Q 3091 3084 2923 2848 
Q 2756 2613 2416 2484 
Q 2838 2347 3058 2040 
Q 3278 1734 3278 1309 
Q 3278 722 2862 322 
Q 2447 -78 1769 -78 
Q 1091 -78 675 323 
Q 259 725 259 1325 
Q 259 1772 486 2073 
Q 713 2375 1131 2484 
z
M 1019 3438 
Q 1019 3113 1228 2906 
Q 1438 2700 1772 2700 
Q 2097 2700 2305 2904 
Q 2513 3109 2513 3406 
Q 2513 3716 2298 3927 
Q 2084 4138 1766 4138 
Q 1444 4138 1231 3931 
Q 1019 3725 1019 3438 
z
M 838 1322 
Q 838 1081 952 856 
Q 1066 631 1291 507 
Q 1516 384 1775 384 
Q 2178 384 2440 643 
Q 2703 903 2703 1303 
Q 2703 1709 2433 1975 
Q 2163 2241 1756 2241 
Q 1359 2241 1098 1978 
Q 838 1716 838 1322 
z
" transform="scale(0.015625)"/>
       </defs>
       <use xlink:href="#ArialMT-30"/>
       <use xlink:href="#ArialMT-2e" transform="translate(55.615234 0)"/>
       <use xlink:href="#ArialMT-38" transform="translate(83.398438 0)"/>
      </g>
     </g>
    </g>
    <g id="ytick_6">
     <g id="line2d_12">
      <path d="M 518.383348 334.575562 
C 518.383348 305.386771 512.633793 276.481803 501.463726 249.514876 
C 490.293659 222.547949 473.92031 198.0435 453.280717 177.403908 
C 432.641125 156.764315 408.136676 140.390966 381.169749 129.220899 
C 354.202822 118.050832 325.297854 112.301277 296.109062 112.301277 
C 266.920271 112.301277 238.015303 118.050832 211.048376 129.220899 
C 184.081449 140.390966 159.577 156.764315 138.937408 177.403908 
C 118.297815 198.0435 101.924466 222.547949 90.754399 249.514876 
C 79.584332 276.481803 73.834777 305.386771 73.834777 334.575562 
C 73.834777 363.764354 79.584332 392.669322 90.754399 419.636249 
C 101.924466 446.603176 118.297815 471.107625 138.937408 491.747217 
C 159.577 512.38681 184.081449 528.760159 211.048376 539.930226 
C 238.015303 551.100293 266.920271 556.849848 296.109062 556.849848 
C 325.297854 556.849848 354.202822 551.100293 381.169749 539.930226 
C 408.136676 528.760159 432.641125 512.38681 453.280717 491.747217 
C 473.92031 471.107625 490.293659 446.603176 501.463726 419.636249 
C 512.633793 392.669322 518.383348 363.764354 518.383348 334.575563 
" clip-path="url(#p8989eee2d8)" style="fill: none; stroke: #cccccc; stroke-opacity: 0.3; stroke-width: 0.8; stroke-linecap: round"/>
     </g>
     <g id="text_12">
      <!-- 1.0 -->
      <g style="fill: #262626" transform="translate(501.463726 247.726126) scale(0.09 -0.09)">
       <defs>
        <path id="ArialMT-31" d="M 2384 0 
L 1822 0 
L 1822 3584 
Q 1619 3391 1289 3197 
Q 959 3003 697 2906 
L 697 3450 
Q 1169 3672 1522 3987 
Q 1875 4303 2022 4600 
L 2384 4600 
L 2384 0 
z
" transform="scale(0.015625)"/>
       </defs>
       <use xlink:href="#ArialMT-31"/>
       <use xlink:href="#ArialMT-2e" transform="translate(55.615234 0)"/>
       <use xlink:href="#ArialMT-30" transform="translate(83.398438 0)"/>
      </g>
     </g>
    </g>
   </g>
   <g id="line2d_13">
    <path d="M 433.178205 334.575562 
L 366.49592 212.66195 
L 229.426777 219.078456 
L 231.279063 334.575562 
L 234.983634 440.44791 
L 362.791348 450.072669 
L 433.178205 334.575562 
" clip-path="url(#p8989eee2d8)" style="fill: none; stroke: #1f77b4; stroke-width: 2; stroke-linecap: round"/>
    <defs>
     <path id="m9b097e40d8" d="M 0 4 
C 1.060812 4 2.078319 3.578535 2.828427 2.828427 
C 3.578535 2.078319 4 1.060812 4 0 
C 4 -1.060812 3.578535 -2.078319 2.828427 -2.828427 
C 2.078319 -3.578535 1.060812 -4 0 -4 
C -1.060812 -4 -2.078319 -3.578535 -2.828427 -2.828427 
C -3.578535 -2.078319 -4 -1.060812 -4 0 
C -4 1.060812 -3.578535 2.078319 -2.828427 2.828427 
C -2.078319 3.578535 -1.060812 4 0 4 
z
" style="stroke: #ffffff; stroke-width: 1.5"/>
    </defs>
    <g clip-path="url(#p8989eee2d8)">
     <use xlink:href="#m9b097e40d8" x="433.178205" y="334.575562" style="fill: #1f77b4; stroke: #ffffff; stroke-width: 1.5"/>
     <use xlink:href="#m9b097e40d8" x="366.49592" y="212.66195" style="fill: #1f77b4; stroke: #ffffff; stroke-width: 1.5"/>
     <use xlink:href="#m9b097e40d8" x="229.426777" y="219.078456" style="fill: #1f77b4; stroke: #ffffff; stroke-width: 1.5"/>
     <use xlink:href="#m9b097e40d8" x="231.279063" y="334.575562" style="fill: #1f77b4; stroke: #ffffff; stroke-width: 1.5"/>
     <use xlink:href="#m9b097e40d8" x="234.983634" y="440.44791" style="fill: #1f77b4; stroke: #ffffff; stroke-width: 1.5"/>
     <use xlink:href="#m9b097e40d8" x="362.791348" y="450.072669" style="fill: #1f77b4; stroke: #ffffff; stroke-width: 1.5"/>
     <use xlink:href="#m9b097e40d8" x="433.178205" y="334.575562" style="fill: #1f77b4; stroke: #ffffff; stroke-width: 1.5"/>
    </g>
   </g>
   <g id="line2d_14">
    <path d="M 414.655348 334.575562 
L 341.490063 255.973365 
L 237.762063 233.515594 
L 257.211062 334.575562 
L 236.83592 437.239657 
L 361.865205 448.468543 
L 414.655348 334.575562 
" clip-path="url(#p8989eee2d8)" style="fill: none; stroke: #d62728; stroke-width: 2; stroke-linecap: round"/>
    <defs>
     <path id="mdcc72564cb" d="M -4 4 
L 4 4 
L 4 -4 
L -4 -4 
z
" style="stroke: #ffffff; stroke-width: 1.5; stroke-linejoin: miter"/>
    </defs>
    <g clip-path="url(#p8989eee2d8)">
     <use xlink:href="#mdcc72564cb" x="414.655348" y="334.575562" style="fill: #d62728; stroke: #ffffff; stroke-width: 1.5; stroke-linejoin: miter"/>
     <use xlink:href="#mdcc72564cb" x="341.490063" y="255.973365" style="fill: #d62728; stroke: #ffffff; stroke-width: 1.5; stroke-linejoin: miter"/>
     <use xlink:href="#mdcc72564cb" x="237.762063" y="233.515594" style="fill: #d62728; stroke: #ffffff; stroke-width: 1.5; stroke-linejoin: miter"/>
     <use xlink:href="#mdcc72564cb" x="257.211062" y="334.575562" style="fill: #d62728; stroke: #ffffff; stroke-width: 1.5; stroke-linejoin: miter"/>
     <use xlink:href="#mdcc72564cb" x="236.83592" y="437.239657" style="fill: #d62728; stroke: #ffffff; stroke-width: 1.5; stroke-linejoin: miter"/>
     <use xlink:href="#mdcc72564cb" x="361.865205" y="448.468543" style="fill: #d62728; stroke: #ffffff; stroke-width: 1.5; stroke-linejoin: miter"/>
     <use xlink:href="#mdcc72564cb" x="414.655348" y="334.575562" style="fill: #d62728; stroke: #ffffff; stroke-width: 1.5; stroke-linejoin: miter"/>
    </g>
   </g>
   <g id="line2d_15">
    <path d="M 429.473634 334.575562 
L 334.08092 268.806377 
L 231.279063 222.286709 
L 218.313063 334.575562 
L 234.057491 442.052037 
L 363.717491 451.676796 
L 429.473634 334.575562 
" clip-path="url(#p8989eee2d8)" style="fill: none; stroke: #e377c2; stroke-width: 2; stroke-linecap: round"/>
    <defs>
     <path id="mf015dfdc7b" d="M 0 -4 
L -4 4 
L 4 4 
z
" style="stroke: #ffffff; stroke-width: 1.5; stroke-linejoin: miter"/>
    </defs>
    <g clip-path="url(#p8989eee2d8)">
     <use xlink:href="#mf015dfdc7b" x="429.473634" y="334.575562" style="fill: #e377c2; stroke: #ffffff; stroke-width: 1.5; stroke-linejoin: miter"/>
     <use xlink:href="#mf015dfdc7b" x="334.08092" y="268.806377" style="fill: #e377c2; stroke: #ffffff; stroke-width: 1.5; stroke-linejoin: miter"/>
     <use xlink:href="#mf015dfdc7b" x="231.279063" y="222.286709" style="fill: #e377c2; stroke: #ffffff; stroke-width: 1.5; stroke-linejoin: miter"/>
     <use xlink:href="#mf015dfdc7b" x="218.313063" y="334.575562" style="fill: #e377c2; stroke: #ffffff; stroke-width: 1.5; stroke-linejoin: miter"/>
     <use xlink:href="#mf015dfdc7b" x="234.057491" y="442.052037" style="fill: #e377c2; stroke: #ffffff; stroke-width: 1.5; stroke-linejoin: miter"/>
     <use xlink:href="#mf015dfdc7b" x="363.717491" y="451.676796" style="fill: #e377c2; stroke: #ffffff; stroke-width: 1.5; stroke-linejoin: miter"/>
     <use xlink:href="#mf015dfdc7b" x="429.473634" y="334.575562" style="fill: #e377c2; stroke: #ffffff; stroke-width: 1.5; stroke-linejoin: miter"/>
    </g>
   </g>
   <g id="line2d_16">
    <path d="M 414.655348 334.575562 
L 328.524063 278.431136 
L 237.762063 233.515594 
L 257.211062 334.575562 
L 236.83592 437.239657 
L 361.865205 448.468543 
L 414.655348 334.575562 
" clip-path="url(#p8989eee2d8)" style="fill: none; stroke: #17becf; stroke-width: 2; stroke-linecap: round"/>
    <defs>
     <path id="m20c7a65b0c" d="M 0 5.656854 
L 5.656854 0 
L 0 -5.656854 
L -5.656854 0 
z
" style="stroke: #ffffff; stroke-width: 1.5; stroke-linejoin: miter"/>
    </defs>
    <g clip-path="url(#p8989eee2d8)">
     <use xlink:href="#m20c7a65b0c" x="414.655348" y="334.575562" style="fill: #17becf; stroke: #ffffff; stroke-width: 1.5; stroke-linejoin: miter"/>
     <use xlink:href="#m20c7a65b0c" x="328.524063" y="278.431136" style="fill: #17becf; stroke: #ffffff; stroke-width: 1.5; stroke-linejoin: miter"/>
     <use xlink:href="#m20c7a65b0c" x="237.762063" y="233.515594" style="fill: #17becf; stroke: #ffffff; stroke-width: 1.5; stroke-linejoin: miter"/>
     <use xlink:href="#m20c7a65b0c" x="257.211062" y="334.575562" style="fill: #17becf; stroke: #ffffff; stroke-width: 1.5; stroke-linejoin: miter"/>
     <use xlink:href="#m20c7a65b0c" x="236.83592" y="437.239657" style="fill: #17becf; stroke: #ffffff; stroke-width: 1.5; stroke-linejoin: miter"/>
     <use xlink:href="#m20c7a65b0c" x="361.865205" y="448.468543" style="fill: #17becf; stroke: #ffffff; stroke-width: 1.5; stroke-linejoin: miter"/>
     <use xlink:href="#m20c7a65b0c" x="414.655348" y="334.575562" style="fill: #17becf; stroke: #ffffff; stroke-width: 1.5; stroke-linejoin: miter"/>
    </g>
   </g>
   <g id="patch_3">
    <path d="M 555.429062 334.575562 
C 555.429062 300.521972 548.721248 266.79951 535.689503 235.338095 
C 522.657758 203.87668 503.555518 175.288157 479.475993 151.208632 
C 455.396468 127.129107 426.807945 108.026867 395.34653 94.995122 
C 363.885115 81.963377 330.162653 75.255563 296.109062 75.255563 
C 262.055472 75.255563 228.33301 81.963377 196.871595 94.995122 
C 165.41018 108.026867 136.821657 127.129107 112.742132 151.208632 
C 88.662607 175.288157 69.560367 203.87668 56.528622 235.338095 
C 43.496877 266.79951 36.789062 300.521972 36.789062 334.575562 
C 36.789062 368.629153 43.496877 402.351615 56.528622 433.81303 
C 69.560367 465.274445 88.662607 493.862968 112.742132 517.942493 
C 136.821657 542.022018 165.41018 561.124258 196.871595 574.156003 
C 228.33301 587.187748 262.055472 593.895562 296.109062 593.895562 
C 330.162653 593.895562 363.885115 587.187748 395.34653 574.156003 
C 426.807945 561.124258 455.396468 542.022018 479.475993 517.942493 
C 503.555518 493.862968 522.657758 465.274445 535.689503 433.81303 
C 548.721248 402.351615 555.429062 368.629153 555.429062 334.575563 
" style="fill: none; stroke: #cccccc; stroke-width: 0.8; stroke-linejoin: miter; stroke-linecap: square"/>
   </g>
   <g id="text_13">
    <!-- Multi-Dimensional System Comparison (All Experiments) -->
    <g style="fill: #262626" transform="translate(106.694531 17.391562) scale(0.14 -0.14)">
     <defs>
      <path id="Arial-BoldMT-4d" d="M 453 0 
L 453 4581 
L 1838 4581 
L 2669 1456 
L 3491 4581 
L 4878 4581 
L 4878 0 
L 4019 0 
L 4019 3606 
L 3109 0 
L 2219 0 
L 1313 3606 
L 1313 0 
L 453 0 
z
" transform="scale(0.015625)"/>
      <path id="Arial-BoldMT-75" d="M 2644 0 
L 2644 497 
Q 2463 231 2167 78 
Q 1872 -75 1544 -75 
Q 1209 -75 943 72 
Q 678 219 559 484 
Q 441 750 441 1219 
L 441 3319 
L 1319 3319 
L 1319 1794 
Q 1319 1094 1367 936 
Q 1416 778 1544 686 
Q 1672 594 1869 594 
Q 2094 594 2272 717 
Q 2450 841 2515 1023 
Q 2581 1206 2581 1919 
L 2581 3319 
L 3459 3319 
L 3459 0 
L 2644 0 
z
" transform="scale(0.015625)"/>
      <path id="Arial-BoldMT-6c" d="M 459 0 
L 459 4581 
L 1338 4581 
L 1338 0 
L 459 0 
z
" transform="scale(0.015625)"/>
      <path id="Arial-BoldMT-74" d="M 1981 3319 
L 1981 2619 
L 1381 2619 
L 1381 1281 
Q 1381 875 1398 808 
Q 1416 741 1477 697 
Q 1538 653 1625 653 
Q 1747 653 1978 738 
L 2053 56 
Q 1747 -75 1359 -75 
Q 1122 -75 931 4 
Q 741 84 652 211 
Q 563 338 528 553 
Q 500 706 500 1172 
L 500 2619 
L 97 2619 
L 97 3319 
L 500 3319 
L 500 3978 
L 1381 4491 
L 1381 3319 
L 1981 3319 
z
" transform="scale(0.015625)"/>
      <path id="Arial-BoldMT-69" d="M 459 3769 
L 459 4581 
L 1338 4581 
L 1338 3769 
L 459 3769 
z
M 459 0 
L 459 3319 
L 1338 3319 
L 1338 0 
L 459 0 
z
" transform="scale(0.015625)"/>
      <path id="Arial-BoldMT-2d" d="M 359 1222 
L 359 2100 
L 2084 2100 
L 2084 1222 
L 359 1222 
z
" transform="scale(0.015625)"/>
      <path id="Arial-BoldMT-6d" d="M 394 3319 
L 1203 3319 
L 1203 2866 
Q 1638 3394 2238 3394 
Q 2556 3394 2790 3262 
Q 3025 3131 3175 2866 
Q 3394 3131 3647 3262 
Q 3900 3394 4188 3394 
Q 4553 3394 4806 3245 
Q 5059 3097 5184 2809 
Q 5275 2597 5275 2122 
L 5275 0 
L 4397 0 
L 4397 1897 
Q 4397 2391 4306 2534 
Q 4184 2722 3931 2722 
Q 3747 2722 3584 2609 
Q 3422 2497 3350 2280 
Q 3278 2063 3278 1594 
L 3278 0 
L 2400 0 
L 2400 1819 
Q 2400 2303 2353 2443 
Q 2306 2584 2207 2653 
Q 2109 2722 1941 2722 
Q 1738 2722 1575 2612 
Q 1413 2503 1342 2297 
Q 1272 2091 1272 1613 
L 1272 0 
L 394 0 
L 394 3319 
z
" transform="scale(0.015625)"/>
      <path id="Arial-BoldMT-65" d="M 2381 1056 
L 3256 909 
Q 3088 428 2723 176 
Q 2359 -75 1813 -75 
Q 947 -75 531 491 
Q 203 944 203 1634 
Q 203 2459 634 2926 
Q 1066 3394 1725 3394 
Q 2466 3394 2894 2905 
Q 3322 2416 3303 1406 
L 1103 1406 
Q 1113 1016 1316 798 
Q 1519 581 1822 581 
Q 2028 581 2168 693 
Q 2309 806 2381 1056 
z
M 2431 1944 
Q 2422 2325 2234 2523 
Q 2047 2722 1778 2722 
Q 1491 2722 1303 2513 
Q 1116 2303 1119 1944 
L 2431 1944 
z
" transform="scale(0.015625)"/>
      <path id="Arial-BoldMT-6e" d="M 3478 0 
L 2600 0 
L 2600 1694 
Q 2600 2231 2544 2389 
Q 2488 2547 2361 2634 
Q 2234 2722 2056 2722 
Q 1828 2722 1647 2597 
Q 1466 2472 1398 2265 
Q 1331 2059 1331 1503 
L 1331 0 
L 453 0 
L 453 3319 
L 1269 3319 
L 1269 2831 
Q 1703 3394 2363 3394 
Q 2653 3394 2893 3289 
Q 3134 3184 3257 3021 
Q 3381 2859 3429 2653 
Q 3478 2447 3478 2063 
L 3478 0 
z
" transform="scale(0.015625)"/>
      <path id="Arial-BoldMT-73" d="M 150 947 
L 1031 1081 
Q 1088 825 1259 692 
Q 1431 559 1741 559 
Q 2081 559 2253 684 
Q 2369 772 2369 919 
Q 2369 1019 2306 1084 
Q 2241 1147 2013 1200 
Q 950 1434 666 1628 
Q 272 1897 272 2375 
Q 272 2806 612 3100 
Q 953 3394 1669 3394 
Q 2350 3394 2681 3172 
Q 3013 2950 3138 2516 
L 2309 2363 
Q 2256 2556 2107 2659 
Q 1959 2763 1684 2763 
Q 1338 2763 1188 2666 
Q 1088 2597 1088 2488 
Q 1088 2394 1175 2328 
Q 1294 2241 1995 2081 
Q 2697 1922 2975 1691 
Q 3250 1456 3250 1038 
Q 3250 581 2869 253 
Q 2488 -75 1741 -75 
Q 1063 -75 667 200 
Q 272 475 150 947 
z
" transform="scale(0.015625)"/>
      <path id="Arial-BoldMT-6f" d="M 256 1706 
Q 256 2144 472 2553 
Q 688 2963 1083 3178 
Q 1478 3394 1966 3394 
Q 2719 3394 3200 2905 
Q 3681 2416 3681 1669 
Q 3681 916 3195 420 
Q 2709 -75 1972 -75 
Q 1516 -75 1102 131 
Q 688 338 472 736 
Q 256 1134 256 1706 
z
M 1156 1659 
Q 1156 1166 1390 903 
Q 1625 641 1969 641 
Q 2313 641 2545 903 
Q 2778 1166 2778 1666 
Q 2778 2153 2545 2415 
Q 2313 2678 1969 2678 
Q 1625 2678 1390 2415 
Q 1156 2153 1156 1659 
z
" transform="scale(0.015625)"/>
      <path id="Arial-BoldMT-61" d="M 1116 2306 
L 319 2450 
Q 453 2931 781 3162 
Q 1109 3394 1756 3394 
Q 2344 3394 2631 3255 
Q 2919 3116 3036 2902 
Q 3153 2688 3153 2116 
L 3144 1091 
Q 3144 653 3186 445 
Q 3228 238 3344 0 
L 2475 0 
Q 2441 88 2391 259 
Q 2369 338 2359 363 
Q 2134 144 1878 34 
Q 1622 -75 1331 -75 
Q 819 -75 523 203 
Q 228 481 228 906 
Q 228 1188 362 1408 
Q 497 1628 739 1745 
Q 981 1863 1438 1950 
Q 2053 2066 2291 2166 
L 2291 2253 
Q 2291 2506 2166 2614 
Q 2041 2722 1694 2722 
Q 1459 2722 1328 2630 
Q 1197 2538 1116 2306 
z
M 2291 1594 
Q 2122 1538 1756 1459 
Q 1391 1381 1278 1306 
Q 1106 1184 1106 997 
Q 1106 813 1243 678 
Q 1381 544 1594 544 
Q 1831 544 2047 700 
Q 2206 819 2256 991 
Q 2291 1103 2291 1419 
L 2291 1594 
z
" transform="scale(0.015625)"/>
      <path id="Arial-BoldMT-20" transform="scale(0.015625)"/>
      <path id="Arial-BoldMT-53" d="M 231 1491 
L 1131 1578 
Q 1213 1125 1461 912 
Q 1709 700 2131 700 
Q 2578 700 2804 889 
Q 3031 1078 3031 1331 
Q 3031 1494 2936 1608 
Q 2841 1722 2603 1806 
Q 2441 1863 1863 2006 
Q 1119 2191 819 2459 
Q 397 2838 397 3381 
Q 397 3731 595 4036 
Q 794 4341 1167 4500 
Q 1541 4659 2069 4659 
Q 2931 4659 3367 4281 
Q 3803 3903 3825 3272 
L 2900 3231 
Q 2841 3584 2645 3739 
Q 2450 3894 2059 3894 
Q 1656 3894 1428 3728 
Q 1281 3622 1281 3444 
Q 1281 3281 1419 3166 
Q 1594 3019 2269 2859 
Q 2944 2700 3267 2529 
Q 3591 2359 3773 2064 
Q 3956 1769 3956 1334 
Q 3956 941 3737 597 
Q 3519 253 3119 86 
Q 2719 -81 2122 -81 
Q 1253 -81 787 320 
Q 322 722 231 1491 
z
" transform="scale(0.015625)"/>
      <path id="Arial-BoldMT-79" d="M 44 3319 
L 978 3319 
L 1772 963 
L 2547 3319 
L 3456 3319 
L 2284 125 
L 2075 -453 
Q 1959 -744 1854 -897 
Q 1750 -1050 1614 -1145 
Q 1478 -1241 1279 -1294 
Q 1081 -1347 831 -1347 
Q 578 -1347 334 -1294 
L 256 -606 
Q 463 -647 628 -647 
Q 934 -647 1081 -467 
Q 1228 -288 1306 -9 
L 44 3319 
z
" transform="scale(0.015625)"/>
      <path id="Arial-BoldMT-43" d="M 3397 1684 
L 4294 1400 
Q 4088 650 3608 286 
Q 3128 -78 2391 -78 
Q 1478 -78 890 545 
Q 303 1169 303 2250 
Q 303 3394 893 4026 
Q 1484 4659 2447 4659 
Q 3288 4659 3813 4163 
Q 4125 3869 4281 3319 
L 3366 3100 
Q 3284 3456 3026 3662 
Q 2769 3869 2400 3869 
Q 1891 3869 1573 3503 
Q 1256 3138 1256 2319 
Q 1256 1450 1568 1081 
Q 1881 713 2381 713 
Q 2750 713 3015 947 
Q 3281 1181 3397 1684 
z
" transform="scale(0.015625)"/>
      <path id="Arial-BoldMT-70" d="M 434 3319 
L 1253 3319 
L 1253 2831 
Q 1413 3081 1684 3237 
Q 1956 3394 2288 3394 
Q 2866 3394 3269 2941 
Q 3672 2488 3672 1678 
Q 3672 847 3265 386 
Q 2859 -75 2281 -75 
Q 2006 -75 1782 34 
Q 1559 144 1313 409 
L 1313 -1263 
L 434 -1263 
L 434 3319 
z
M 1303 1716 
Q 1303 1156 1525 889 
Q 1747 622 2066 622 
Q 2372 622 2575 867 
Q 2778 1113 2778 1672 
Q 2778 2194 2568 2447 
Q 2359 2700 2050 2700 
Q 1728 2700 1515 2451 
Q 1303 2203 1303 1716 
z
" transform="scale(0.015625)"/>
      <path id="Arial-BoldMT-72" d="M 1300 0 
L 422 0 
L 422 3319 
L 1238 3319 
L 1238 2847 
Q 1447 3181 1614 3287 
Q 1781 3394 1994 3394 
Q 2294 3394 2572 3228 
L 2300 2463 
Q 2078 2606 1888 2606 
Q 1703 2606 1575 2504 
Q 1447 2403 1373 2137 
Q 1300 1872 1300 1025 
L 1300 0 
z
" transform="scale(0.015625)"/>
      <path id="Arial-BoldMT-28" d="M 1916 -1347 
L 1313 -1347 
Q 834 -625 584 153 
Q 334 931 334 1659 
Q 334 2563 644 3369 
Q 913 4069 1325 4659 
L 1925 4659 
Q 1497 3713 1336 3048 
Q 1175 2384 1175 1641 
Q 1175 1128 1270 590 
Q 1366 53 1531 -431 
Q 1641 -750 1916 -1347 
z
" transform="scale(0.015625)"/>
      <path id="Arial-BoldMT-41" d="M 4597 0 
L 3591 0 
L 3191 1041 
L 1359 1041 
L 981 0 
L 0 0 
L 1784 4581 
L 2763 4581 
L 4597 0 
z
M 2894 1813 
L 2263 3513 
L 1644 1813 
L 2894 1813 
z
" transform="scale(0.015625)"/>
      <path id="Arial-BoldMT-45" d="M 466 0 
L 466 4581 
L 3863 4581 
L 3863 3806 
L 1391 3806 
L 1391 2791 
L 3691 2791 
L 3691 2019 
L 1391 2019 
L 1391 772 
L 3950 772 
L 3950 0 
L 466 0 
z
" transform="scale(0.015625)"/>
      <path id="Arial-BoldMT-78" d="M 38 0 
L 1234 1709 
L 88 3319 
L 1159 3319 
L 1747 2406 
L 2366 3319 
L 3397 3319 
L 2272 1747 
L 3500 0 
L 2422 0 
L 1747 1028 
L 1066 0 
L 38 0 
z
" transform="scale(0.015625)"/>
      <path id="Arial-BoldMT-29" d="M 216 -1347 
Q 475 -791 581 -494 
Q 688 -197 778 190 
Q 869 578 912 926 
Q 956 1275 956 1641 
Q 956 2384 797 3048 
Q 638 3713 209 4659 
L 806 4659 
Q 1278 3988 1539 3234 
Q 1800 2481 1800 1706 
Q 1800 1053 1594 306 
Q 1359 -531 822 -1347 
L 216 -1347 
z
" transform="scale(0.015625)"/>
     </defs>
     <use xlink:href="#Arial-BoldMT-4d"/>
     <use xlink:href="#Arial-BoldMT-75" transform="translate(83.300781 0)"/>
     <use xlink:href="#Arial-BoldMT-6c" transform="translate(144.384766 0)"/>
     <use xlink:href="#Arial-BoldMT-74" transform="translate(172.167969 0)"/>
     <use xlink:href="#Arial-BoldMT-69" transform="translate(205.46875 0)"/>
     <use xlink:href="#Arial-BoldMT-2d" transform="translate(233.251953 0)"/>
     <use xlink:href="#Arial-BoldMT-44" transform="translate(266.552734 0)"/>
     <use xlink:href="#Arial-BoldMT-69" transform="translate(338.769531 0)"/>
     <use xlink:href="#Arial-BoldMT-6d" transform="translate(366.552734 0)"/>
     <use xlink:href="#Arial-BoldMT-65" transform="translate(455.46875 0)"/>
     <use xlink:href="#Arial-BoldMT-6e" transform="translate(511.083984 0)"/>
     <use xlink:href="#Arial-BoldMT-73" transform="translate(572.167969 0)"/>
     <use xlink:href="#Arial-BoldMT-69" transform="translate(627.783203 0)"/>
     <use xlink:href="#Arial-BoldMT-6f" transform="translate(655.566406 0)"/>
     <use xlink:href="#Arial-BoldMT-6e" transform="translate(716.650391 0)"/>
     <use xlink:href="#Arial-BoldMT-61" transform="translate(777.734375 0)"/>
     <use xlink:href="#Arial-BoldMT-6c" transform="translate(833.349609 0)"/>
     <use xlink:href="#Arial-BoldMT-20" transform="translate(861.132812 0)"/>
     <use xlink:href="#Arial-BoldMT-53" transform="translate(888.916016 0)"/>
     <use xlink:href="#Arial-BoldMT-79" transform="translate(955.615234 0)"/>
     <use xlink:href="#Arial-BoldMT-73" transform="translate(1011.230469 0)"/>
     <use xlink:href="#Arial-BoldMT-74" transform="translate(1066.845703 0)"/>
     <use xlink:href="#Arial-BoldMT-65" transform="translate(1100.146484 0)"/>
     <use xlink:href="#Arial-BoldMT-6d" transform="translate(1155.761719 0)"/>
     <use xlink:href="#Arial-BoldMT-20" transform="translate(1244.677734 0)"/>
     <use xlink:href="#Arial-BoldMT-43" transform="translate(1272.460938 0)"/>
     <use xlink:href="#Arial-BoldMT-6f" transform="translate(1344.677734 0)"/>
     <use xlink:href="#Arial-BoldMT-6d" transform="translate(1405.761719 0)"/>
     <use xlink:href="#Arial-BoldMT-70" transform="translate(1494.677734 0)"/>
     <use xlink:href="#Arial-BoldMT-61" transform="translate(1555.761719 0)"/>
     <use xlink:href="#Arial-BoldMT-72" transform="translate(1611.376953 0)"/>
     <use xlink:href="#Arial-BoldMT-69" transform="translate(1650.292969 0)"/>
     <use xlink:href="#Arial-BoldMT-73" transform="translate(1678.076172 0)"/>
     <use xlink:href="#Arial-BoldMT-6f" transform="translate(1733.691406 0)"/>
     <use xlink:href="#Arial-BoldMT-6e" transform="translate(1794.775391 0)"/>
     <use xlink:href="#Arial-BoldMT-20" transform="translate(1855.859375 0)"/>
     <use xlink:href="#Arial-BoldMT-28" transform="translate(1883.642578 0)"/>
     <use xlink:href="#Arial-BoldMT-41" transform="translate(1916.943359 0)"/>
     <use xlink:href="#Arial-BoldMT-6c" transform="translate(1989.160156 0)"/>
     <use xlink:href="#Arial-BoldMT-6c" transform="translate(2016.943359 0)"/>
     <use xlink:href="#Arial-BoldMT-20" transform="translate(2044.726562 0)"/>
     <use xlink:href="#Arial-BoldMT-45" transform="translate(2072.509766 0)"/>
     <use xlink:href="#Arial-BoldMT-78" transform="translate(2139.208984 0)"/>
     <use xlink:href="#Arial-BoldMT-70" transform="translate(2194.824219 0)"/>
     <use xlink:href="#Arial-BoldMT-65" transform="translate(2255.908203 0)"/>
     <use xlink:href="#Arial-BoldMT-72" transform="translate(2311.523438 0)"/>
     <use xlink:href="#Arial-BoldMT-69" transform="translate(2350.439453 0)"/>
     <use xlink:href="#Arial-BoldMT-6d" transform="translate(2378.222656 0)"/>
     <use xlink:href="#Arial-BoldMT-65" transform="translate(2467.138672 0)"/>
     <use xlink:href="#Arial-BoldMT-6e" transform="translate(2522.753906 0)"/>
     <use xlink:href="#Arial-BoldMT-74" transform="translate(2583.837891 0)"/>
     <use xlink:href="#Arial-BoldMT-73" transform="translate(2617.138672 0)"/>
     <use xlink:href="#Arial-BoldMT-29" transform="translate(2672.753906 0)"/>
    </g>
   </g>
   <g id="legend_1">
    <g id="patch_4">
     <path d="M 625.6695 90.560313 
L 706.021062 90.560313 
Q 708.021062 90.560313 708.021062 88.560313 
L 708.021062 32.391562 
Q 708.021062 30.391562 706.021062 30.391562 
L 625.6695 30.391562 
Q 623.6695 30.391562 623.6695 32.391562 
L 623.6695 88.560313 
Q 623.6695 90.560313 625.6695 90.560313 
z
" style="fill: #4d4d4d; opacity: 0.5; stroke: #4d4d4d; stroke-linejoin: miter"/>
    </g>
    <g id="patch_5">
     <path d="M 623.6695 88.560313 
L 704.021062 88.560313 
Q 706.021062 88.560313 706.021062 86.560313 
L 706.021062 30.391562 
Q 706.021062 28.391562 704.021062 28.391562 
L 623.6695 28.391562 
Q 621.6695 28.391562 621.6695 30.391562 
L 621.6695 86.560313 
Q 621.6695 88.560313 623.6695 88.560313 
z
" style="fill: #ffffff; stroke: #cccccc; stroke-linejoin: miter"/>
    </g>
    <g id="line2d_17">
     <path d="M 625.6695 36.079062 
L 635.6695 36.079062 
L 645.6695 36.079062 
" style="fill: none; stroke: #1f77b4; stroke-width: 2; stroke-linecap: round"/>
     <g>
      <use xlink:href="#m9b097e40d8" x="635.6695" y="36.079062" style="fill: #1f77b4; stroke: #ffffff; stroke-width: 1.5"/>
     </g>
    </g>
    <g id="text_14">
     <!-- system_01 -->
     <g style="fill: #262626" transform="translate(653.6695 39.579062) scale(0.1 -0.1)">
      <defs>
       <path id="ArialMT-73" d="M 197 991 
L 753 1078 
Q 800 744 1014 566 
Q 1228 388 1613 388 
Q 2000 388 2187 545 
Q 2375 703 2375 916 
Q 2375 1106 2209 1216 
Q 2094 1291 1634 1406 
Q 1016 1563 777 1677 
Q 538 1791 414 1992 
Q 291 2194 291 2438 
Q 291 2659 392 2848 
Q 494 3038 669 3163 
Q 800 3259 1026 3326 
Q 1253 3394 1513 3394 
Q 1903 3394 2198 3281 
Q 2494 3169 2634 2976 
Q 2775 2784 2828 2463 
L 2278 2388 
Q 2241 2644 2061 2787 
Q 1881 2931 1553 2931 
Q 1166 2931 1000 2803 
Q 834 2675 834 2503 
Q 834 2394 903 2306 
Q 972 2216 1119 2156 
Q 1203 2125 1616 2013 
Q 2213 1853 2448 1751 
Q 2684 1650 2818 1456 
Q 2953 1263 2953 975 
Q 2953 694 2789 445 
Q 2625 197 2315 61 
Q 2006 -75 1616 -75 
Q 969 -75 630 194 
Q 291 463 197 991 
z
" transform="scale(0.015625)"/>
       <path id="ArialMT-79" d="M 397 -1278 
L 334 -750 
Q 519 -800 656 -800 
Q 844 -800 956 -737 
Q 1069 -675 1141 -563 
Q 1194 -478 1313 -144 
Q 1328 -97 1363 -6 
L 103 3319 
L 709 3319 
L 1400 1397 
Q 1534 1031 1641 628 
Q 1738 1016 1872 1384 
L 2581 3319 
L 3144 3319 
L 1881 -56 
Q 1678 -603 1566 -809 
Q 1416 -1088 1222 -1217 
Q 1028 -1347 759 -1347 
Q 597 -1347 397 -1278 
z
" transform="scale(0.015625)"/>
       <path id="ArialMT-74" d="M 1650 503 
L 1731 6 
Q 1494 -44 1306 -44 
Q 1000 -44 831 53 
Q 663 150 594 308 
Q 525 466 525 972 
L 525 2881 
L 113 2881 
L 113 3319 
L 525 3319 
L 525 4141 
L 1084 4478 
L 1084 3319 
L 1650 3319 
L 1650 2881 
L 1084 2881 
L 1084 941 
Q 1084 700 1114 631 
Q 1144 563 1211 522 
Q 1278 481 1403 481 
Q 1497 481 1650 503 
z
" transform="scale(0.015625)"/>
       <path id="ArialMT-65" d="M 2694 1069 
L 3275 997 
Q 3138 488 2766 206 
Q 2394 -75 1816 -75 
Q 1088 -75 661 373 
Q 234 822 234 1631 
Q 234 2469 665 2931 
Q 1097 3394 1784 3394 
Q 2450 3394 2872 2941 
Q 3294 2488 3294 1666 
Q 3294 1616 3291 1516 
L 816 1516 
Q 847 969 1125 678 
Q 1403 388 1819 388 
Q 2128 388 2347 550 
Q 2566 713 2694 1069 
z
M 847 1978 
L 2700 1978 
Q 2663 2397 2488 2606 
Q 2219 2931 1791 2931 
Q 1403 2931 1139 2672 
Q 875 2413 847 1978 
z
" transform="scale(0.015625)"/>
       <path id="ArialMT-6d" d="M 422 0 
L 422 3319 
L 925 3319 
L 925 2853 
Q 1081 3097 1340 3245 
Q 1600 3394 1931 3394 
Q 2300 3394 2536 3241 
Q 2772 3088 2869 2813 
Q 3263 3394 3894 3394 
Q 4388 3394 4653 3120 
Q 4919 2847 4919 2278 
L 4919 0 
L 4359 0 
L 4359 2091 
Q 4359 2428 4304 2576 
Q 4250 2725 4106 2815 
Q 3963 2906 3769 2906 
Q 3419 2906 3187 2673 
Q 2956 2441 2956 1928 
L 2956 0 
L 2394 0 
L 2394 2156 
Q 2394 2531 2256 2718 
Q 2119 2906 1806 2906 
Q 1569 2906 1367 2781 
Q 1166 2656 1075 2415 
Q 984 2175 984 1722 
L 984 0 
L 422 0 
z
" transform="scale(0.015625)"/>
       <path id="ArialMT-5f" d="M -97 -1272 
L -97 -866 
L 3631 -866 
L 3631 -1272 
L -97 -1272 
z
" transform="scale(0.015625)"/>
      </defs>
      <use xlink:href="#ArialMT-73"/>
      <use xlink:href="#ArialMT-79" transform="translate(50 0)"/>
      <use xlink:href="#ArialMT-73" transform="translate(100 0)"/>
      <use xlink:href="#ArialMT-74" transform="translate(150 0)"/>
      <use xlink:href="#ArialMT-65" transform="translate(177.783203 0)"/>
      <use xlink:href="#ArialMT-6d" transform="translate(233.398438 0)"/>
      <use xlink:href="#ArialMT-5f" transform="translate(316.699219 0)"/>
      <use xlink:href="#ArialMT-30" transform="translate(372.314453 0)"/>
      <use xlink:href="#ArialMT-31" transform="translate(427.929688 0)"/>
     </g>
    </g>
    <g id="line2d_18">
     <path d="M 625.6695 50.37125 
L 635.6695 50.37125 
L 645.6695 50.37125 
" style="fill: none; stroke: #d62728; stroke-width: 2; stroke-linecap: round"/>
     <g>
      <use xlink:href="#mdcc72564cb" x="635.6695" y="50.37125" style="fill: #d62728; stroke: #ffffff; stroke-width: 1.5; stroke-linejoin: miter"/>
     </g>
    </g>
    <g id="text_15">
     <!-- system_02 -->
     <g style="fill: #262626" transform="translate(653.6695 53.87125) scale(0.1 -0.1)">
      <use xlink:href="#ArialMT-73"/>
      <use xlink:href="#ArialMT-79" transform="translate(50 0)"/>
      <use xlink:href="#ArialMT-73" transform="translate(100 0)"/>
      <use xlink:href="#ArialMT-74" transform="translate(150 0)"/>
      <use xlink:href="#ArialMT-65" transform="translate(177.783203 0)"/>
      <use xlink:href="#ArialMT-6d" transform="translate(233.398438 0)"/>
      <use xlink:href="#ArialMT-5f" transform="translate(316.699219 0)"/>
      <use xlink:href="#ArialMT-30" transform="translate(372.314453 0)"/>
      <use xlink:href="#ArialMT-32" transform="translate(427.929688 0)"/>
     </g>
    </g>
    <g id="line2d_19">
     <path d="M 625.6695 64.663437 
L 635.6695 64.663437 
L 645.6695 64.663437 
" style="fill: none; stroke: #e377c2; stroke-width: 2; stroke-linecap: round"/>
     <g>
      <use xlink:href="#mf015dfdc7b" x="635.6695" y="64.663437" style="fill: #e377c2; stroke: #ffffff; stroke-width: 1.5; stroke-linejoin: miter"/>
     </g>
    </g>
    <g id="text_16">
     <!-- system_03 -->
     <g style="fill: #262626" transform="translate(653.6695 68.163437) scale(0.1 -0.1)">
      <defs>
       <path id="ArialMT-33" d="M 269 1209 
L 831 1284 
Q 928 806 1161 595 
Q 1394 384 1728 384 
Q 2125 384 2398 659 
Q 2672 934 2672 1341 
Q 2672 1728 2419 1979 
Q 2166 2231 1775 2231 
Q 1616 2231 1378 2169 
L 1441 2663 
Q 1497 2656 1531 2656 
Q 1891 2656 2178 2843 
Q 2466 3031 2466 3422 
Q 2466 3731 2256 3934 
Q 2047 4138 1716 4138 
Q 1388 4138 1169 3931 
Q 950 3725 888 3313 
L 325 3413 
Q 428 3978 793 4289 
Q 1159 4600 1703 4600 
Q 2078 4600 2393 4439 
Q 2709 4278 2876 4000 
Q 3044 3722 3044 3409 
Q 3044 3113 2884 2869 
Q 2725 2625 2413 2481 
Q 2819 2388 3044 2092 
Q 3269 1797 3269 1353 
Q 3269 753 2831 336 
Q 2394 -81 1725 -81 
Q 1122 -81 723 278 
Q 325 638 269 1209 
z
" transform="scale(0.015625)"/>
      </defs>
      <use xlink:href="#ArialMT-73"/>
      <use xlink:href="#ArialMT-79" transform="translate(50 0)"/>
      <use xlink:href="#ArialMT-73" transform="translate(100 0)"/>
      <use xlink:href="#ArialMT-74" transform="translate(150 0)"/>
      <use xlink:href="#ArialMT-65" transform="translate(177.783203 0)"/>
      <use xlink:href="#ArialMT-6d" transform="translate(233.398438 0)"/>
      <use xlink:href="#ArialMT-5f" transform="translate(316.699219 0)"/>
      <use xlink:href="#ArialMT-30" transform="translate(372.314453 0)"/>
      <use xlink:href="#ArialMT-33" transform="translate(427.929688 0)"/>
     </g>
    </g>
    <g id="line2d_20">
     <path d="M 625.6695 78.955625 
L 635.6695 78.955625 
L 645.6695 78.955625 
" style="fill: none; stroke: #17becf; stroke-width: 2; stroke-linecap: round"/>
     <g>
      <use xlink:href="#m20c7a65b0c" x="635.6695" y="78.955625" style="fill: #17becf; stroke: #ffffff; stroke-width: 1.5; stroke-linejoin: miter"/>
     </g>
    </g>
    <g id="text_17">
     <!-- system_05 -->
     <g style="fill: #262626" transform="translate(653.6695 82.455625) scale(0.1 -0.1)">
      <defs>
       <path id="ArialMT-35" d="M 266 1200 
L 856 1250 
Q 922 819 1161 601 
Q 1400 384 1738 384 
Q 2144 384 2425 690 
Q 2706 997 2706 1503 
Q 2706 1984 2436 2262 
Q 2166 2541 1728 2541 
Q 1456 2541 1237 2417 
Q 1019 2294 894 2097 
L 366 2166 
L 809 4519 
L 3088 4519 
L 3088 3981 
L 1259 3981 
L 1013 2750 
Q 1425 3038 1878 3038 
Q 2478 3038 2890 2622 
Q 3303 2206 3303 1553 
Q 3303 931 2941 478 
Q 2500 -78 1738 -78 
Q 1113 -78 717 272 
Q 322 622 266 1200 
z
" transform="scale(0.015625)"/>
      </defs>
      <use xlink:href="#ArialMT-73"/>
      <use xlink:href="#ArialMT-79" transform="translate(50 0)"/>
      <use xlink:href="#ArialMT-73" transform="translate(100 0)"/>
      <use xlink:href="#ArialMT-74" transform="translate(150 0)"/>
      <use xlink:href="#ArialMT-65" transform="translate(177.783203 0)"/>
      <use xlink:href="#ArialMT-6d" transform="translate(233.398438 0)"/>
      <use xlink:href="#ArialMT-5f" transform="translate(316.699219 0)"/>
      <use xlink:href="#ArialMT-30" transform="translate(372.314453 0)"/>
      <use xlink:href="#ArialMT-35" transform="translate(427.929688 0)"/>
     </g>
    </g>
   </g>
  </g>
  <g id="text_18">
   <g id="patch_6">
    <path d="M 257.664375 713.495562 
L 438.27375 713.495562 
Q 446.27375 713.495562 446.27375 705.495562 
L 446.27375 615.54275 
Q 446.27375 607.54275 438.27375 607.54275 
L 257.664375 607.54275 
Q 249.664375 607.54275 249.664375 615.54275 
L 249.664375 705.495562 
Q 249.664375 713.495562 257.664375 713.495562 
z
" style="fill: #ffffff; stroke: #808080; stroke-linejoin: miter"/>
   </g>
   <!-- Indicator Descriptions -->
   <g style="fill: #262626" transform="translate(281.745625 622.916187) scale(0.1 -0.1)">
    <defs>
     <path id="DejaVuSansMono-49" d="M 628 4666 
L 3219 4666 
L 3219 4134 
L 2241 4134 
L 2241 531 
L 3219 531 
L 3219 0 
L 628 0 
L 628 531 
L 1606 531 
L 1606 4134 
L 628 4134 
L 628 4666 
z
" transform="scale(0.015625)"/>
     <path id="DejaVuSansMono-6e" d="M 3284 2169 
L 3284 0 
L 2706 0 
L 2706 2169 
Q 2706 2641 2540 2862 
Q 2375 3084 2022 3084 
Q 1619 3084 1401 2798 
Q 1184 2513 1184 1978 
L 1184 0 
L 609 0 
L 609 3500 
L 1184 3500 
L 1184 2975 
Q 1338 3275 1600 3429 
Q 1863 3584 2222 3584 
Q 2756 3584 3020 3232 
Q 3284 2881 3284 2169 
z
" transform="scale(0.015625)"/>
     <path id="DejaVuSansMono-64" d="M 2681 3053 
L 2681 4863 
L 3256 4863 
L 3256 0 
L 2681 0 
L 2681 441 
Q 2538 181 2298 45 
Q 2059 -91 1747 -91 
Q 1113 -91 748 401 
Q 384 894 384 1759 
Q 384 2613 750 3098 
Q 1116 3584 1747 3584 
Q 2063 3584 2303 3448 
Q 2544 3313 2681 3053 
z
M 991 1747 
Q 991 1078 1203 737 
Q 1416 397 1831 397 
Q 2247 397 2464 740 
Q 2681 1084 2681 1747 
Q 2681 2413 2464 2755 
Q 2247 3097 1831 3097 
Q 1416 3097 1203 2756 
Q 991 2416 991 1747 
z
" transform="scale(0.015625)"/>
     <path id="DejaVuSansMono-69" d="M 800 3500 
L 2272 3500 
L 2272 447 
L 3413 447 
L 3413 0 
L 556 0 
L 556 447 
L 1697 447 
L 1697 3053 
L 800 3053 
L 800 3500 
z
M 1697 4863 
L 2272 4863 
L 2272 4134 
L 1697 4134 
L 1697 4863 
z
" transform="scale(0.015625)"/>
     <path id="DejaVuSansMono-63" d="M 3316 178 
Q 3084 44 2839 -23 
Q 2594 -91 2338 -91 
Q 1525 -91 1067 396 
Q 609 884 609 1747 
Q 609 2609 1067 3096 
Q 1525 3584 2338 3584 
Q 2591 3584 2831 3518 
Q 3072 3453 3316 3316 
L 3316 2713 
Q 3088 2916 2858 3006 
Q 2628 3097 2338 3097 
Q 1797 3097 1506 2747 
Q 1216 2397 1216 1747 
Q 1216 1100 1508 748 
Q 1800 397 2338 397 
Q 2638 397 2875 489 
Q 3113 581 3316 775 
L 3316 178 
z
" transform="scale(0.015625)"/>
     <path id="DejaVuSansMono-61" d="M 2194 1759 
L 2003 1759 
Q 1500 1759 1245 1582 
Q 991 1406 991 1056 
Q 991 741 1181 566 
Q 1372 391 1709 391 
Q 2184 391 2456 720 
Q 2728 1050 2731 1631 
L 2731 1759 
L 2194 1759 
z
M 3309 1997 
L 3309 0 
L 2731 0 
L 2731 519 
Q 2547 206 2267 57 
Q 1988 -91 1588 -91 
Q 1053 -91 734 211 
Q 416 513 416 1019 
Q 416 1603 808 1906 
Q 1200 2209 1959 2209 
L 2731 2209 
L 2731 2300 
Q 2728 2719 2518 2908 
Q 2309 3097 1850 3097 
Q 1556 3097 1256 3012 
Q 956 2928 672 2766 
L 672 3341 
Q 991 3463 1283 3523 
Q 1575 3584 1850 3584 
Q 2284 3584 2592 3456 
Q 2900 3328 3091 3072 
Q 3209 2916 3259 2686 
Q 3309 2456 3309 1997 
z
" transform="scale(0.015625)"/>
     <path id="DejaVuSansMono-74" d="M 1919 4494 
L 1919 3500 
L 3225 3500 
L 3225 3053 
L 1919 3053 
L 1919 1153 
Q 1919 766 2066 612 
Q 2213 459 2578 459 
L 3225 459 
L 3225 0 
L 2522 0 
Q 1875 0 1609 259 
Q 1344 519 1344 1153 
L 1344 3053 
L 409 3053 
L 409 3500 
L 1344 3500 
L 1344 4494 
L 1919 4494 
z
" transform="scale(0.015625)"/>
     <path id="DejaVuSansMono-6f" d="M 1925 3097 
Q 1488 3097 1263 2756 
Q 1038 2416 1038 1747 
Q 1038 1081 1263 739 
Q 1488 397 1925 397 
Q 2366 397 2591 739 
Q 2816 1081 2816 1747 
Q 2816 2416 2591 2756 
Q 2366 3097 1925 3097 
z
M 1925 3584 
Q 2653 3584 3039 3112 
Q 3425 2641 3425 1747 
Q 3425 850 3040 379 
Q 2656 -91 1925 -91 
Q 1197 -91 812 379 
Q 428 850 428 1747 
Q 428 2641 812 3112 
Q 1197 3584 1925 3584 
z
" transform="scale(0.015625)"/>
     <path id="DejaVuSansMono-72" d="M 3609 2778 
Q 3425 2922 3234 2987 
Q 3044 3053 2816 3053 
Q 2278 3053 1993 2715 
Q 1709 2378 1709 1741 
L 1709 0 
L 1131 0 
L 1131 3500 
L 1709 3500 
L 1709 2816 
Q 1853 3188 2151 3386 
Q 2450 3584 2859 3584 
Q 3072 3584 3256 3531 
Q 3441 3478 3609 3366 
L 3609 2778 
z
" transform="scale(0.015625)"/>
     <path id="DejaVuSansMono-20" transform="scale(0.015625)"/>
     <path id="DejaVuSansMono-44" d="M 1363 519 
Q 2159 519 2475 911 
Q 2791 1303 2791 2328 
Q 2791 3363 2477 3755 
Q 2163 4147 1363 4147 
L 1063 4147 
L 1063 519 
L 1363 519 
z
M 1375 4666 
Q 2444 4666 2950 4097 
Q 3456 3528 3456 2328 
Q 3456 1134 2950 567 
Q 2444 0 1375 0 
L 428 0 
L 428 4666 
L 1375 4666 
z
" transform="scale(0.015625)"/>
     <path id="DejaVuSansMono-65" d="M 3475 1894 
L 3475 1613 
L 984 1613 
L 984 1594 
Q 984 1022 1282 709 
Q 1581 397 2125 397 
Q 2400 397 2700 484 
Q 3000 572 3341 750 
L 3341 178 
Q 3013 44 2708 -23 
Q 2403 -91 2119 -91 
Q 1303 -91 843 398 
Q 384 888 384 1747 
Q 384 2584 834 3084 
Q 1284 3584 2034 3584 
Q 2703 3584 3089 3131 
Q 3475 2678 3475 1894 
z
M 2900 2063 
Q 2888 2569 2661 2833 
Q 2434 3097 2009 3097 
Q 1594 3097 1325 2822 
Q 1056 2547 1006 2059 
L 2900 2063 
z
" transform="scale(0.015625)"/>
     <path id="DejaVuSansMono-73" d="M 3041 3378 
L 3041 2816 
Q 2794 2959 2544 3031 
Q 2294 3103 2034 3103 
Q 1644 3103 1451 2976 
Q 1259 2850 1259 2591 
Q 1259 2356 1403 2240 
Q 1547 2125 2119 2016 
L 2350 1972 
Q 2778 1891 2998 1647 
Q 3219 1403 3219 1013 
Q 3219 494 2850 201 
Q 2481 -91 1825 -91 
Q 1566 -91 1281 -36 
Q 997 19 666 128 
L 666 722 
Q 988 556 1281 473 
Q 1575 391 1838 391 
Q 2219 391 2428 545 
Q 2638 700 2638 978 
Q 2638 1378 1872 1531 
L 1847 1538 
L 1631 1581 
Q 1134 1678 906 1908 
Q 678 2138 678 2534 
Q 678 3038 1018 3311 
Q 1359 3584 1991 3584 
Q 2272 3584 2531 3532 
Q 2791 3481 3041 3378 
z
" transform="scale(0.015625)"/>
     <path id="DejaVuSansMono-70" d="M 1172 441 
L 1172 -1331 
L 594 -1331 
L 594 3500 
L 1172 3500 
L 1172 3053 
Q 1316 3313 1555 3448 
Q 1794 3584 2106 3584 
Q 2741 3584 3102 3093 
Q 3463 2603 3463 1734 
Q 3463 881 3100 395 
Q 2738 -91 2106 -91 
Q 1788 -91 1548 45 
Q 1309 181 1172 441 
z
M 2859 1747 
Q 2859 2416 2648 2756 
Q 2438 3097 2022 3097 
Q 1603 3097 1387 2755 
Q 1172 2413 1172 1747 
Q 1172 1084 1387 740 
Q 1603 397 2022 397 
Q 2438 397 2648 737 
Q 2859 1078 2859 1747 
z
" transform="scale(0.015625)"/>
    </defs>
    <use xlink:href="#DejaVuSansMono-49"/>
    <use xlink:href="#DejaVuSansMono-6e" transform="translate(60.205078 0)"/>
    <use xlink:href="#DejaVuSansMono-64" transform="translate(120.410156 0)"/>
    <use xlink:href="#DejaVuSansMono-69" transform="translate(180.615234 0)"/>
    <use xlink:href="#DejaVuSansMono-63" transform="translate(240.820312 0)"/>
    <use xlink:href="#DejaVuSansMono-61" transform="translate(301.025391 0)"/>
    <use xlink:href="#DejaVuSansMono-74" transform="translate(361.230469 0)"/>
    <use xlink:href="#DejaVuSansMono-6f" transform="translate(421.435547 0)"/>
    <use xlink:href="#DejaVuSansMono-72" transform="translate(481.640625 0)"/>
    <use xlink:href="#DejaVuSansMono-20" transform="translate(541.845703 0)"/>
    <use xlink:href="#DejaVuSansMono-44" transform="translate(602.050781 0)"/>
    <use xlink:href="#DejaVuSansMono-65" transform="translate(662.255859 0)"/>
    <use xlink:href="#DejaVuSansMono-73" transform="translate(722.460938 0)"/>
    <use xlink:href="#DejaVuSansMono-63" transform="translate(782.666016 0)"/>
    <use xlink:href="#DejaVuSansMono-72" transform="translate(842.871094 0)"/>
    <use xlink:href="#DejaVuSansMono-69" transform="translate(903.076172 0)"/>
    <use xlink:href="#DejaVuSansMono-70" transform="translate(963.28125 0)"/>
    <use xlink:href="#DejaVuSansMono-74" transform="translate(1023.486328 0)"/>
    <use xlink:href="#DejaVuSansMono-69" transform="translate(1083.691406 0)"/>
    <use xlink:href="#DejaVuSansMono-6f" transform="translate(1143.896484 0)"/>
    <use xlink:href="#DejaVuSansMono-6e" transform="translate(1204.101562 0)"/>
    <use xlink:href="#DejaVuSansMono-73" transform="translate(1264.306641 0)"/>
   </g>
   <!--  -->
   <g style="fill: #262626" transform="translate(281.745625 634.17775) scale(0.1 -0.1)">
    <defs>
     <path id="DejaVuSansMono-2500" d="M -63 1931 
L -63 2469 
L 3916 2469 
L 3916 1931 
L -63 1931 
z
" transform="scale(0.015625)"/>
    </defs>
    <use xlink:href="#DejaVuSansMono-2500"/>
    <use xlink:href="#DejaVuSansMono-2500" transform="translate(60.205078 0)"/>
    <use xlink:href="#DejaVuSansMono-2500" transform="translate(120.410156 0)"/>
    <use xlink:href="#DejaVuSansMono-2500" transform="translate(180.615234 0)"/>
    <use xlink:href="#DejaVuSansMono-2500" transform="translate(240.820312 0)"/>
    <use xlink:href="#DejaVuSansMono-2500" transform="translate(301.025391 0)"/>
    <use xlink:href="#DejaVuSansMono-2500" transform="translate(361.230469 0)"/>
    <use xlink:href="#DejaVuSansMono-2500" transform="translate(421.435547 0)"/>
    <use xlink:href="#DejaVuSansMono-2500" transform="translate(481.640625 0)"/>
    <use xlink:href="#DejaVuSansMono-2500" transform="translate(541.845703 0)"/>
    <use xlink:href="#DejaVuSansMono-2500" transform="translate(602.050781 0)"/>
    <use xlink:href="#DejaVuSansMono-2500" transform="translate(662.255859 0)"/>
    <use xlink:href="#DejaVuSansMono-2500" transform="translate(722.460938 0)"/>
    <use xlink:href="#DejaVuSansMono-2500" transform="translate(782.666016 0)"/>
    <use xlink:href="#DejaVuSansMono-2500" transform="translate(842.871094 0)"/>
    <use xlink:href="#DejaVuSansMono-2500" transform="translate(903.076172 0)"/>
    <use xlink:href="#DejaVuSansMono-2500" transform="translate(963.28125 0)"/>
    <use xlink:href="#DejaVuSansMono-2500" transform="translate(1023.486328 0)"/>
    <use xlink:href="#DejaVuSansMono-2500" transform="translate(1083.691406 0)"/>
    <use xlink:href="#DejaVuSansMono-2500" transform="translate(1143.896484 0)"/>
    <use xlink:href="#DejaVuSansMono-2500" transform="translate(1204.101562 0)"/>
    <use xlink:href="#DejaVuSansMono-2500" transform="translate(1264.306641 0)"/>
   </g>
   <!-- IND01: electricity_consumption -->
   <g style="fill: #262626" transform="translate(257.664375 645.439312) scale(0.1 -0.1)">
    <defs>
     <path id="DejaVuSansMono-4e" d="M 434 4666 
L 1234 4666 
L 2809 825 
L 2809 4666 
L 3419 4666 
L 3419 0 
L 2619 0 
L 1044 3841 
L 1044 0 
L 434 0 
L 434 4666 
z
" transform="scale(0.015625)"/>
     <path id="DejaVuSansMono-30" d="M 1509 2344 
Q 1509 2516 1629 2641 
Q 1750 2766 1919 2766 
Q 2094 2766 2219 2641 
Q 2344 2516 2344 2344 
Q 2344 2169 2220 2047 
Q 2097 1925 1919 1925 
Q 1744 1925 1626 2044 
Q 1509 2163 1509 2344 
z
M 1925 4250 
Q 1484 4250 1267 3775 
Q 1050 3300 1050 2328 
Q 1050 1359 1267 884 
Q 1484 409 1925 409 
Q 2369 409 2586 884 
Q 2803 1359 2803 2328 
Q 2803 3300 2586 3775 
Q 2369 4250 1925 4250 
z
M 1925 4750 
Q 2672 4750 3055 4137 
Q 3438 3525 3438 2328 
Q 3438 1134 3055 521 
Q 2672 -91 1925 -91 
Q 1178 -91 797 521 
Q 416 1134 416 2328 
Q 416 3525 797 4137 
Q 1178 4750 1925 4750 
z
" transform="scale(0.015625)"/>
     <path id="DejaVuSansMono-31" d="M 844 531 
L 1825 531 
L 1825 4097 
L 769 3859 
L 769 4434 
L 1819 4666 
L 2450 4666 
L 2450 531 
L 3419 531 
L 3419 0 
L 844 0 
L 844 531 
z
" transform="scale(0.015625)"/>
     <path id="DejaVuSansMono-3a" d="M 1528 3322 
L 2316 3322 
L 2316 2375 
L 1528 2375 
L 1528 3322 
z
M 1528 953 
L 2316 953 
L 2316 0 
L 1528 0 
L 1528 953 
z
" transform="scale(0.015625)"/>
     <path id="DejaVuSansMono-6c" d="M 1997 1269 
Q 1997 881 2139 684 
Q 2281 488 2559 488 
L 3231 488 
L 3231 0 
L 2503 0 
Q 1988 0 1705 331 
Q 1422 663 1422 1269 
L 1422 4447 
L 500 4447 
L 500 4897 
L 1997 4897 
L 1997 1269 
z
" transform="scale(0.015625)"/>
     <path id="DejaVuSansMono-79" d="M 2681 1125 
Q 2538 759 2316 163 
Q 2006 -663 1900 -844 
Q 1756 -1088 1540 -1209 
Q 1325 -1331 1038 -1331 
L 575 -1331 
L 575 -850 
L 916 -850 
Q 1169 -850 1312 -703 
Q 1456 -556 1678 56 
L 325 3500 
L 934 3500 
L 1972 763 
L 2994 3500 
L 3603 3500 
L 2681 1125 
z
" transform="scale(0.015625)"/>
     <path id="DejaVuSansMono-5f" d="M 3853 -1259 
L 3853 -1509 
L 0 -1509 
L 0 -1259 
L 3853 -1259 
z
" transform="scale(0.015625)"/>
     <path id="DejaVuSansMono-75" d="M 609 1325 
L 609 3494 
L 1184 3494 
L 1184 1325 
Q 1184 853 1351 631 
Q 1519 409 1869 409 
Q 2275 409 2490 695 
Q 2706 981 2706 1516 
L 2706 3494 
L 3284 3494 
L 3284 0 
L 2706 0 
L 2706 525 
Q 2553 222 2289 65 
Q 2025 -91 1672 -91 
Q 1134 -91 871 261 
Q 609 613 609 1325 
z
" transform="scale(0.015625)"/>
     <path id="DejaVuSansMono-6d" d="M 2113 3144 
Q 2219 3369 2383 3476 
Q 2547 3584 2778 3584 
Q 3200 3584 3373 3257 
Q 3547 2931 3547 2028 
L 3547 0 
L 3022 0 
L 3022 2003 
Q 3022 2744 2939 2923 
Q 2856 3103 2638 3103 
Q 2388 3103 2295 2911 
Q 2203 2719 2203 2003 
L 2203 0 
L 1678 0 
L 1678 2003 
Q 1678 2753 1589 2928 
Q 1500 3103 1269 3103 
Q 1041 3103 952 2911 
Q 863 2719 863 2003 
L 863 0 
L 341 0 
L 341 3500 
L 863 3500 
L 863 3200 
Q 966 3388 1120 3486 
Q 1275 3584 1472 3584 
Q 1709 3584 1867 3475 
Q 2025 3366 2113 3144 
z
" transform="scale(0.015625)"/>
    </defs>
    <use xlink:href="#DejaVuSansMono-49"/>
    <use xlink:href="#DejaVuSansMono-4e" transform="translate(60.205078 0)"/>
    <use xlink:href="#DejaVuSansMono-44" transform="translate(120.410156 0)"/>
    <use xlink:href="#DejaVuSansMono-30" transform="translate(180.615234 0)"/>
    <use xlink:href="#DejaVuSansMono-31" transform="translate(240.820312 0)"/>
    <use xlink:href="#DejaVuSansMono-3a" transform="translate(301.025391 0)"/>
    <use xlink:href="#DejaVuSansMono-20" transform="translate(361.230469 0)"/>
    <use xlink:href="#DejaVuSansMono-65" transform="translate(421.435547 0)"/>
    <use xlink:href="#DejaVuSansMono-6c" transform="translate(481.640625 0)"/>
    <use xlink:href="#DejaVuSansMono-65" transform="translate(541.845703 0)"/>
    <use xlink:href="#DejaVuSansMono-63" transform="translate(602.050781 0)"/>
    <use xlink:href="#DejaVuSansMono-74" transform="translate(662.255859 0)"/>
    <use xlink:href="#DejaVuSansMono-72" transform="translate(722.460938 0)"/>
    <use xlink:href="#DejaVuSansMono-69" transform="translate(782.666016 0)"/>
    <use xlink:href="#DejaVuSansMono-63" transform="translate(842.871094 0)"/>
    <use xlink:href="#DejaVuSansMono-69" transform="translate(903.076172 0)"/>
    <use xlink:href="#DejaVuSansMono-74" transform="translate(963.28125 0)"/>
    <use xlink:href="#DejaVuSansMono-79" transform="translate(1023.486328 0)"/>
    <use xlink:href="#DejaVuSansMono-5f" transform="translate(1083.691406 0)"/>
    <use xlink:href="#DejaVuSansMono-63" transform="translate(1143.896484 0)"/>
    <use xlink:href="#DejaVuSansMono-6f" transform="translate(1204.101562 0)"/>
    <use xlink:href="#DejaVuSansMono-6e" transform="translate(1264.306641 0)"/>
    <use xlink:href="#DejaVuSansMono-73" transform="translate(1324.511719 0)"/>
    <use xlink:href="#DejaVuSansMono-75" transform="translate(1384.716797 0)"/>
    <use xlink:href="#DejaVuSansMono-6d" transform="translate(1444.921875 0)"/>
    <use xlink:href="#DejaVuSansMono-70" transform="translate(1505.126953 0)"/>
    <use xlink:href="#DejaVuSansMono-74" transform="translate(1565.332031 0)"/>
    <use xlink:href="#DejaVuSansMono-69" transform="translate(1625.537109 0)"/>
    <use xlink:href="#DejaVuSansMono-6f" transform="translate(1685.742188 0)"/>
    <use xlink:href="#DejaVuSansMono-6e" transform="translate(1745.947266 0)"/>
   </g>
   <!-- IND02: utilization_rate -->
   <g style="fill: #262626" transform="translate(278.735469 656.979) scale(0.1 -0.1)">
    <defs>
     <path id="DejaVuSansMono-32" d="M 1166 531 
L 3309 531 
L 3309 0 
L 475 0 
L 475 531 
Q 1059 1147 1496 1619 
Q 1934 2091 2100 2284 
Q 2413 2666 2522 2902 
Q 2631 3138 2631 3384 
Q 2631 3775 2401 3997 
Q 2172 4219 1772 4219 
Q 1488 4219 1175 4116 
Q 863 4013 513 3803 
L 513 4441 
Q 834 4594 1145 4672 
Q 1456 4750 1759 4750 
Q 2444 4750 2861 4386 
Q 3278 4022 3278 3431 
Q 3278 3131 3139 2831 
Q 3000 2531 2688 2169 
Q 2513 1966 2180 1606 
Q 1847 1247 1166 531 
z
" transform="scale(0.015625)"/>
     <path id="DejaVuSansMono-7a" d="M 709 3506 
L 3250 3506 
L 3250 2981 
L 1241 469 
L 3250 469 
L 3250 0 
L 634 0 
L 634 531 
L 2644 3047 
L 709 3047 
L 709 3506 
z
" transform="scale(0.015625)"/>
    </defs>
    <use xlink:href="#DejaVuSansMono-49"/>
    <use xlink:href="#DejaVuSansMono-4e" transform="translate(60.205078 0)"/>
    <use xlink:href="#DejaVuSansMono-44" transform="translate(120.410156 0)"/>
    <use xlink:href="#DejaVuSansMono-30" transform="translate(180.615234 0)"/>
    <use xlink:href="#DejaVuSansMono-32" transform="translate(240.820312 0)"/>
    <use xlink:href="#DejaVuSansMono-3a" transform="translate(301.025391 0)"/>
    <use xlink:href="#DejaVuSansMono-20" transform="translate(361.230469 0)"/>
    <use xlink:href="#DejaVuSansMono-75" transform="translate(421.435547 0)"/>
    <use xlink:href="#DejaVuSansMono-74" transform="translate(481.640625 0)"/>
    <use xlink:href="#DejaVuSansMono-69" transform="translate(541.845703 0)"/>
    <use xlink:href="#DejaVuSansMono-6c" transform="translate(602.050781 0)"/>
    <use xlink:href="#DejaVuSansMono-69" transform="translate(662.255859 0)"/>
    <use xlink:href="#DejaVuSansMono-7a" transform="translate(722.460938 0)"/>
    <use xlink:href="#DejaVuSansMono-61" transform="translate(782.666016 0)"/>
    <use xlink:href="#DejaVuSansMono-74" transform="translate(842.871094 0)"/>
    <use xlink:href="#DejaVuSansMono-69" transform="translate(903.076172 0)"/>
    <use xlink:href="#DejaVuSansMono-6f" transform="translate(963.28125 0)"/>
    <use xlink:href="#DejaVuSansMono-6e" transform="translate(1023.486328 0)"/>
    <use xlink:href="#DejaVuSansMono-5f" transform="translate(1083.691406 0)"/>
    <use xlink:href="#DejaVuSansMono-72" transform="translate(1143.896484 0)"/>
    <use xlink:href="#DejaVuSansMono-61" transform="translate(1204.101562 0)"/>
    <use xlink:href="#DejaVuSansMono-74" transform="translate(1264.306641 0)"/>
    <use xlink:href="#DejaVuSansMono-65" transform="translate(1324.511719 0)"/>
   </g>
   <!-- IND03: labor_cost -->
   <g style="fill: #262626" transform="translate(296.796406 668.518687) scale(0.1 -0.1)">
    <defs>
     <path id="DejaVuSansMono-33" d="M 2425 2497 
Q 2884 2375 3128 2064 
Q 3372 1753 3372 1288 
Q 3372 644 2939 276 
Q 2506 -91 1741 -91 
Q 1419 -91 1084 -31 
Q 750 28 428 141 
L 428 769 
Q 747 603 1056 522 
Q 1366 441 1672 441 
Q 2191 441 2469 675 
Q 2747 909 2747 1350 
Q 2747 1756 2469 1995 
Q 2191 2234 1716 2234 
L 1234 2234 
L 1234 2753 
L 1716 2753 
Q 2150 2753 2394 2943 
Q 2638 3134 2638 3475 
Q 2638 3834 2411 4026 
Q 2184 4219 1766 4219 
Q 1488 4219 1191 4156 
Q 894 4094 569 3969 
L 569 4550 
Q 947 4650 1242 4700 
Q 1538 4750 1766 4750 
Q 2447 4750 2855 4408 
Q 3263 4066 3263 3500 
Q 3263 3116 3048 2859 
Q 2834 2603 2425 2497 
z
" transform="scale(0.015625)"/>
     <path id="DejaVuSansMono-62" d="M 2869 1747 
Q 2869 2416 2656 2756 
Q 2444 3097 2028 3097 
Q 1609 3097 1393 2755 
Q 1178 2413 1178 1747 
Q 1178 1084 1393 740 
Q 1609 397 2028 397 
Q 2444 397 2656 737 
Q 2869 1078 2869 1747 
z
M 1178 3053 
Q 1316 3309 1558 3446 
Q 1800 3584 2119 3584 
Q 2750 3584 3112 3098 
Q 3475 2613 3475 1759 
Q 3475 894 3111 401 
Q 2747 -91 2113 -91 
Q 1800 -91 1561 45 
Q 1322 181 1178 441 
L 1178 0 
L 603 0 
L 603 4863 
L 1178 4863 
L 1178 3053 
z
" transform="scale(0.015625)"/>
    </defs>
    <use xlink:href="#DejaVuSansMono-49"/>
    <use xlink:href="#DejaVuSansMono-4e" transform="translate(60.205078 0)"/>
    <use xlink:href="#DejaVuSansMono-44" transform="translate(120.410156 0)"/>
    <use xlink:href="#DejaVuSansMono-30" transform="translate(180.615234 0)"/>
    <use xlink:href="#DejaVuSansMono-33" transform="translate(240.820312 0)"/>
    <use xlink:href="#DejaVuSansMono-3a" transform="translate(301.025391 0)"/>
    <use xlink:href="#DejaVuSansMono-20" transform="translate(361.230469 0)"/>
    <use xlink:href="#DejaVuSansMono-6c" transform="translate(421.435547 0)"/>
    <use xlink:href="#DejaVuSansMono-61" transform="translate(481.640625 0)"/>
    <use xlink:href="#DejaVuSansMono-62" transform="translate(541.845703 0)"/>
    <use xlink:href="#DejaVuSansMono-6f" transform="translate(602.050781 0)"/>
    <use xlink:href="#DejaVuSansMono-72" transform="translate(662.255859 0)"/>
    <use xlink:href="#DejaVuSansMono-5f" transform="translate(722.460938 0)"/>
    <use xlink:href="#DejaVuSansMono-63" transform="translate(782.666016 0)"/>
    <use xlink:href="#DejaVuSansMono-6f" transform="translate(842.871094 0)"/>
    <use xlink:href="#DejaVuSansMono-73" transform="translate(903.076172 0)"/>
    <use xlink:href="#DejaVuSansMono-74" transform="translate(963.28125 0)"/>
   </g>
   <!-- IND04: lead_time -->
   <g style="fill: #262626" transform="translate(299.806562 680.058375) scale(0.1 -0.1)">
    <defs>
     <path id="DejaVuSansMono-34" d="M 2297 4091 
L 825 1625 
L 2297 1625 
L 2297 4091 
z
M 2194 4666 
L 2925 4666 
L 2925 1625 
L 3547 1625 
L 3547 1113 
L 2925 1113 
L 2925 0 
L 2297 0 
L 2297 1113 
L 319 1113 
L 319 1709 
L 2194 4666 
z
" transform="scale(0.015625)"/>
    </defs>
    <use xlink:href="#DejaVuSansMono-49"/>
    <use xlink:href="#DejaVuSansMono-4e" transform="translate(60.205078 0)"/>
    <use xlink:href="#DejaVuSansMono-44" transform="translate(120.410156 0)"/>
    <use xlink:href="#DejaVuSansMono-30" transform="translate(180.615234 0)"/>
    <use xlink:href="#DejaVuSansMono-34" transform="translate(240.820312 0)"/>
    <use xlink:href="#DejaVuSansMono-3a" transform="translate(301.025391 0)"/>
    <use xlink:href="#DejaVuSansMono-20" transform="translate(361.230469 0)"/>
    <use xlink:href="#DejaVuSansMono-6c" transform="translate(421.435547 0)"/>
    <use xlink:href="#DejaVuSansMono-65" transform="translate(481.640625 0)"/>
    <use xlink:href="#DejaVuSansMono-61" transform="translate(541.845703 0)"/>
    <use xlink:href="#DejaVuSansMono-64" transform="translate(602.050781 0)"/>
    <use xlink:href="#DejaVuSansMono-5f" transform="translate(662.255859 0)"/>
    <use xlink:href="#DejaVuSansMono-74" transform="translate(722.460938 0)"/>
    <use xlink:href="#DejaVuSansMono-69" transform="translate(782.666016 0)"/>
    <use xlink:href="#DejaVuSansMono-6d" transform="translate(842.871094 0)"/>
    <use xlink:href="#DejaVuSansMono-65" transform="translate(903.076172 0)"/>
   </g>
   <!-- IND05: production_output -->
   <g style="fill: #262626" transform="translate(275.725312 691.598062) scale(0.1 -0.1)">
    <defs>
     <path id="DejaVuSansMono-35" d="M 647 4666 
L 3009 4666 
L 3009 4134 
L 1222 4134 
L 1222 2988 
Q 1356 3038 1492 3061 
Q 1628 3084 1766 3084 
Q 2491 3084 2916 2656 
Q 3341 2228 3341 1497 
Q 3341 759 2895 334 
Q 2450 -91 1678 -91 
Q 1306 -91 998 -41 
Q 691 9 447 109 
L 447 750 
Q 734 594 1025 517 
Q 1316 441 1619 441 
Q 2141 441 2423 716 
Q 2706 991 2706 1497 
Q 2706 1997 2414 2275 
Q 2122 2553 1600 2553 
Q 1347 2553 1106 2495 
Q 866 2438 647 2322 
L 647 4666 
z
" transform="scale(0.015625)"/>
    </defs>
    <use xlink:href="#DejaVuSansMono-49"/>
    <use xlink:href="#DejaVuSansMono-4e" transform="translate(60.205078 0)"/>
    <use xlink:href="#DejaVuSansMono-44" transform="translate(120.410156 0)"/>
    <use xlink:href="#DejaVuSansMono-30" transform="translate(180.615234 0)"/>
    <use xlink:href="#DejaVuSansMono-35" transform="translate(240.820312 0)"/>
    <use xlink:href="#DejaVuSansMono-3a" transform="translate(301.025391 0)"/>
    <use xlink:href="#DejaVuSansMono-20" transform="translate(361.230469 0)"/>
    <use xlink:href="#DejaVuSansMono-70" transform="translate(421.435547 0)"/>
    <use xlink:href="#DejaVuSansMono-72" transform="translate(481.640625 0)"/>
    <use xlink:href="#DejaVuSansMono-6f" transform="translate(541.845703 0)"/>
    <use xlink:href="#DejaVuSansMono-64" transform="translate(602.050781 0)"/>
    <use xlink:href="#DejaVuSansMono-75" transform="translate(662.255859 0)"/>
    <use xlink:href="#DejaVuSansMono-63" transform="translate(722.460938 0)"/>
    <use xlink:href="#DejaVuSansMono-74" transform="translate(782.666016 0)"/>
    <use xlink:href="#DejaVuSansMono-69" transform="translate(842.871094 0)"/>
    <use xlink:href="#DejaVuSansMono-6f" transform="translate(903.076172 0)"/>
    <use xlink:href="#DejaVuSansMono-6e" transform="translate(963.28125 0)"/>
    <use xlink:href="#DejaVuSansMono-5f" transform="translate(1023.486328 0)"/>
    <use xlink:href="#DejaVuSansMono-6f" transform="translate(1083.691406 0)"/>
    <use xlink:href="#DejaVuSansMono-75" transform="translate(1143.896484 0)"/>
    <use xlink:href="#DejaVuSansMono-74" transform="translate(1204.101562 0)"/>
    <use xlink:href="#DejaVuSansMono-70" transform="translate(1264.306641 0)"/>
    <use xlink:href="#DejaVuSansMono-75" transform="translate(1324.511719 0)"/>
    <use xlink:href="#DejaVuSansMono-74" transform="translate(1384.716797 0)"/>
   </g>
   <!-- IND06: circularity_index -->
   <g style="fill: #262626" transform="translate(275.725312 703.13775) scale(0.1 -0.1)">
    <defs>
     <path id="DejaVuSansMono-36" d="M 3097 4563 
L 3097 3981 
Q 2900 4097 2678 4158 
Q 2456 4219 2216 4219 
Q 1616 4219 1306 3767 
Q 997 3316 997 2438 
Q 1147 2750 1412 2917 
Q 1678 3084 2022 3084 
Q 2697 3084 3067 2670 
Q 3438 2256 3438 1497 
Q 3438 741 3056 325 
Q 2675 -91 1984 -91 
Q 1172 -91 794 492 
Q 416 1075 416 2328 
Q 416 3509 870 4129 
Q 1325 4750 2188 4750 
Q 2419 4750 2650 4701 
Q 2881 4653 3097 4563 
z
M 1972 2591 
Q 1569 2591 1337 2300 
Q 1106 2009 1106 1497 
Q 1106 984 1337 693 
Q 1569 403 1972 403 
Q 2391 403 2603 679 
Q 2816 956 2816 1497 
Q 2816 2041 2603 2316 
Q 2391 2591 1972 2591 
z
" transform="scale(0.015625)"/>
     <path id="DejaVuSansMono-78" d="M 3494 3500 
L 2241 1825 
L 3616 0 
L 2950 0 
L 1925 1403 
L 903 0 
L 238 0 
L 1613 1825 
L 359 3500 
L 997 3500 
L 1925 2234 
L 2847 3500 
L 3494 3500 
z
" transform="scale(0.015625)"/>
    </defs>
    <use xlink:href="#DejaVuSansMono-49"/>
    <use xlink:href="#DejaVuSansMono-4e" transform="translate(60.205078 0)"/>
    <use xlink:href="#DejaVuSansMono-44" transform="translate(120.410156 0)"/>
    <use xlink:href="#DejaVuSansMono-30" transform="translate(180.615234 0)"/>
    <use xlink:href="#DejaVuSansMono-36" transform="translate(240.820312 0)"/>
    <use xlink:href="#DejaVuSansMono-3a" transform="translate(301.025391 0)"/>
    <use xlink:href="#DejaVuSansMono-20" transform="translate(361.230469 0)"/>
    <use xlink:href="#DejaVuSansMono-63" transform="translate(421.435547 0)"/>
    <use xlink:href="#DejaVuSansMono-69" transform="translate(481.640625 0)"/>
    <use xlink:href="#DejaVuSansMono-72" transform="translate(541.845703 0)"/>
    <use xlink:href="#DejaVuSansMono-63" transform="translate(602.050781 0)"/>
    <use xlink:href="#DejaVuSansMono-75" transform="translate(662.255859 0)"/>
    <use xlink:href="#DejaVuSansMono-6c" transform="translate(722.460938 0)"/>
    <use xlink:href="#DejaVuSansMono-61" transform="translate(782.666016 0)"/>
    <use xlink:href="#DejaVuSansMono-72" transform="translate(842.871094 0)"/>
    <use xlink:href="#DejaVuSansMono-69" transform="translate(903.076172 0)"/>
    <use xlink:href="#DejaVuSansMono-74" transform="translate(963.28125 0)"/>
    <use xlink:href="#DejaVuSansMono-79" transform="translate(1023.486328 0)"/>
    <use xlink:href="#DejaVuSansMono-5f" transform="translate(1083.691406 0)"/>
    <use xlink:href="#DejaVuSansMono-69" transform="translate(1143.896484 0)"/>
    <use xlink:href="#DejaVuSansMono-6e" transform="translate(1204.101562 0)"/>
    <use xlink:href="#DejaVuSansMono-64" transform="translate(1264.306641 0)"/>
    <use xlink:href="#DejaVuSansMono-65" transform="translate(1324.511719 0)"/>
    <use xlink:href="#DejaVuSansMono-78" transform="translate(1384.716797 0)"/>
   </g>
  </g>
 </g>
 <defs>
  <clipPath id="p8989eee2d8">
   <path d="M 555.429062 334.575562 
C 555.429062 300.521972 548.721248 266.79951 535.689503 235.338095 
C 522.657758 203.87668 503.555518 175.288157 479.475993 151.208632 
C 455.396468 127.129107 426.807945 108.026867 395.34653 94.995122 
C 363.885115 81.963377 330.162653 75.255562 296.109062 75.255562 
C 262.055472 75.255562 228.33301 81.963377 196.871595 94.995122 
C 165.41018 108.026867 136.821657 127.129107 112.742132 151.208632 
C 88.662607 175.288157 69.560367 203.87668 56.528622 235.338095 
C 43.496877 266.79951 36.789063 300.521972 36.789063 334.575562 
C 36.789063 368.629153 43.496877 402.351615 56.528622 433.81303 
C 69.560367 465.274445 88.662607 493.862968 112.742132 517.942493 
C 136.821657 542.022018 165.41018 561.124258 196.871595 574.156003 
C 228.33301 587.187748 262.055472 593.895562 296.109062 593.895562 
C 330.162653 593.895562 363.885115 587.187748 395.34653 574.156003 
C 426.807945 561.124258 455.396468 542.022018 479.475993 517.942493 
C 503.555518 493.862968 522.657758 465.274445 535.689503 433.81303 
C 548.721248 402.351615 555.429062 368.629153 555.429062 334.575562 
M 296.109062 334.575562 
C 296.109062 334.575562 296.109062 334.575562 296.109062 334.575562 
C 296.109062 334.575562 296.109062 334.575562 296.109062 334.575562 
C 296.109062 334.575562 296.109062 334.575562 296.109062 334.575562 
C 296.109062 334.575562 296.109062 334.575562 296.109062 334.575562 
C 296.109062 334.575562 296.109062 334.575562 296.109062 334.575562 
C 296.109062 334.575562 296.109062 334.575562 296.109062 334.575562 
C 296.109062 334.575562 296.109062 334.575562 296.109062 334.575562 
C 296.109062 334.575562 296.109062 334.575562 296.109062 334.575562 
C 296.109062 334.575562 296.109062 334.575562 296.109062 334.575562 
C 296.109062 334.575562 296.109062 334.575562 296.109062 334.575562 
C 296.109062 334.575562 296.109062 334.575562 296.109062 334.575562 
C 296.109062 334.575562 296.109062 334.575562 296.109062 334.575562 
C 296.109062 334.575562 296.109062 334.575562 296.109062 334.575562 
C 296.109062 334.575562 296.109062 334.575562 296.109062 334.575562 
C 296.109062 334.575562 296.109062 334.575562 296.109062 334.575562 
C 296.109062 334.575562 296.109062 334.575562 296.109062 334.575562 
z
"/>
  </clipPath>
 </defs>
</svg>
