<?xml version="1.0" encoding="utf-8" standalone="no"?>
<!DOCTYPE svg PUBLIC "-//W3C//DTD SVG 1.1//EN"
  "http://www.w3.org/Graphics/SVG/1.1/DTD/svg11.dtd">
<svg xmlns:xlink="http://www.w3.org/1999/xlink" width="713.377062pt" height="712.827563pt" viewBox="0 0 713.377062 712.827563" xmlns="http://www.w3.org/2000/svg" version="1.1">
 <metadata>
  <rdf:RDF xmlns:dc="http://purl.org/dc/elements/1.1/" xmlns:cc="http://creativecommons.org/ns#" xmlns:rdf="http://www.w3.org/1999/02/22-rdf-syntax-ns#">
   <cc:Work>
    <dc:type rdf:resource="http://purl.org/dc/dcmitype/StillImage"/>
    <dc:date>2025-11-11T12:30:56.256355</dc:date>
    <dc:format>image/svg+xml</dc:format>
    <dc:creator>
     <cc:Agent>
      <dc:title>Matplotlib v3.10.3, https://matplotlib.org/</dc:title>
     </cc:Agent>
    </dc:creator>
   </cc:Work>
  </rdf:RDF>
 </metadata>
 <defs>
  <style type="text/css">*{stroke-linejoin: round; stroke-linecap: butt}</style>
 </defs>
 <g id="figure_1">
  <g id="patch_1">
   <path d="M 0 712.827563 
L 713.377062 712.827563 
L 713.377062 0 
L 0 0 
z
" style="fill: #ffffff"/>
  </g>
  <g id="axes_1">
   <g id="patch_2">
    <path d="M 555.549063 334.647563 
C 555.549063 300.586093 548.839696 266.855828 535.804936 235.387134 
C 522.770176 203.918439 503.663515 175.323302 479.578419 151.238206 
C 455.493323 127.15311 426.898186 108.046449 395.429491 95.011689 
C 363.960797 81.976929 330.230532 75.267563 296.169063 75.267563 
C 262.107593 75.267563 228.377328 81.976929 196.908634 95.011689 
C 165.439939 108.046449 136.844802 127.15311 112.759706 151.238206 
C 88.67461 175.323302 69.567949 203.918439 56.533189 235.387134 
C 43.498429 266.855828 36.789063 300.586093 36.789063 334.647562 
C 36.789063 368.709032 43.498429 402.439297 56.533189 433.907991 
C 69.567949 465.376686 88.67461 493.971823 112.759706 518.056919 
C 136.844802 542.142015 165.439939 561.248676 196.908634 574.283436 
C 228.377328 587.318196 262.107593 594.027563 296.169062 594.027563 
C 330.230532 594.027563 363.960797 587.318196 395.429491 574.283436 
C 426.898186 561.248676 455.493323 542.142015 479.578419 518.056919 
C 503.663515 493.971823 522.770176 465.376686 535.804936 433.907991 
C 548.839696 402.439297 555.549063 368.709032 555.549063 334.647563 
M 296.169063 334.647563 
C 296.169063 334.647563 296.169063 334.647563 296.169063 334.647563 
C 296.169063 334.647563 296.169063 334.647563 296.169063 334.647563 
C 296.169063 334.647563 296.169063 334.647563 296.169063 334.647563 
C 296.169063 334.647563 296.169063 334.647563 296.169063 334.647563 
C 296.169063 334.647563 296.169063 334.647563 296.169063 334.647563 
C 296.169063 334.647563 296.169063 334.647563 296.169063 334.647563 
C 296.169063 334.647563 296.169063 334.647563 296.169063 334.647563 
C 296.169063 334.647563 296.169063 334.647563 296.169063 334.647563 
C 296.169063 334.647563 296.169063 334.647563 296.169063 334.647563 
C 296.169063 334.647563 296.169063 334.647563 296.169063 334.647563 
C 296.169063 334.647563 296.169063 334.647563 296.169063 334.647563 
C 296.169063 334.647563 296.169063 334.647563 296.169063 334.647563 
C 296.169063 334.647563 296.169063 334.647563 296.169063 334.647563 
C 296.169063 334.647563 296.169063 334.647563 296.169063 334.647563 
C 296.169063 334.647563 296.169063 334.647563 296.169063 334.647563 
C 296.169063 334.647563 296.169063 334.647563 296.169063 334.647563 
z
" style="fill: #ffffff"/>
   </g>
   <g id="matplotlib.axis_1">
    <g id="xtick_1">
     <g id="line2d_1">
      <path d="M 296.169063 334.647563 
L 555.549063 334.647563 
" clip-path="url(#p21a21f4f99)" style="fill: none; stroke: #cccccc; stroke-opacity: 0.3; stroke-width: 0.8; stroke-linecap: round"/>
     </g>
     <g id="text_1">
      <!-- IND01 -->
      <g style="fill: #262626" transform="translate(553.96 337.498969) scale(0.11 -0.11)">
       <defs>
        <path id="Arial-BoldMT-49" d="M 438 0 
L 438 4581 
L 1363 4581 
L 1363 0 
L 438 0 
z
" transform="scale(0.015625)"/>
        <path id="Arial-BoldMT-4e" d="M 475 0 
L 475 4581 
L 1375 4581 
L 3250 1522 
L 3250 4581 
L 4109 4581 
L 4109 0 
L 3181 0 
L 1334 2988 
L 1334 0 
L 475 0 
z
" transform="scale(0.015625)"/>
        <path id="Arial-BoldMT-44" d="M 463 4581 
L 2153 4581 
Q 2725 4581 3025 4494 
Q 3428 4375 3715 4072 
Q 4003 3769 4153 3330 
Q 4303 2891 4303 2247 
Q 4303 1681 4163 1272 
Q 3991 772 3672 463 
Q 3431 228 3022 97 
Q 2716 0 2203 0 
L 463 0 
L 463 4581 
z
M 1388 3806 
L 1388 772 
L 2078 772 
Q 2466 772 2638 816 
Q 2863 872 3011 1006 
Q 3159 1141 3253 1448 
Q 3347 1756 3347 2288 
Q 3347 2819 3253 3103 
Q 3159 3388 2990 3547 
Q 2822 3706 2563 3763 
Q 2369 3806 1803 3806 
L 1388 3806 
z
" transform="scale(0.015625)"/>
        <path id="Arial-BoldMT-30" d="M 1756 4600 
Q 2422 4600 2797 4125 
Q 3244 3563 3244 2259 
Q 3244 959 2794 391 
Q 2422 -78 1756 -78 
Q 1088 -78 678 436 
Q 269 950 269 2269 
Q 269 3563 719 4131 
Q 1091 4600 1756 4600 
z
M 1756 3872 
Q 1597 3872 1472 3770 
Q 1347 3669 1278 3406 
Q 1188 3066 1188 2259 
Q 1188 1453 1269 1151 
Q 1350 850 1473 750 
Q 1597 650 1756 650 
Q 1916 650 2041 751 
Q 2166 853 2234 1116 
Q 2325 1453 2325 2259 
Q 2325 3066 2244 3367 
Q 2163 3669 2039 3770 
Q 1916 3872 1756 3872 
z
" transform="scale(0.015625)"/>
        <path id="Arial-BoldMT-31" d="M 2519 0 
L 1641 0 
L 1641 3309 
Q 1159 2859 506 2644 
L 506 3441 
Q 850 3553 1253 3867 
Q 1656 4181 1806 4600 
L 2519 4600 
L 2519 0 
z
" transform="scale(0.015625)"/>
       </defs>
       <use xlink:href="#Arial-BoldMT-49"/>
       <use xlink:href="#Arial-BoldMT-4e" transform="translate(27.783203 0)"/>
       <use xlink:href="#Arial-BoldMT-44" transform="translate(100 0)"/>
       <use xlink:href="#Arial-BoldMT-30" transform="translate(172.216797 0)"/>
       <use xlink:href="#Arial-BoldMT-31" transform="translate(227.832031 0)"/>
      </g>
     </g>
    </g>
    <g id="xtick_2">
     <g id="line2d_2">
      <path d="M 296.169063 334.647563 
L 425.859063 110.017893 
" clip-path="url(#p21a21f4f99)" style="fill: none; stroke: #cccccc; stroke-opacity: 0.3; stroke-width: 0.8; stroke-linecap: round"/>
     </g>
     <g id="text_2">
      <!-- IND02 -->
      <g style="fill: #262626" transform="translate(417.27 100.744944) scale(0.11 -0.11)">
       <defs>
        <path id="Arial-BoldMT-32" d="M 3238 816 
L 3238 0 
L 159 0 
Q 209 463 459 877 
Q 709 1291 1447 1975 
Q 2041 2528 2175 2725 
Q 2356 2997 2356 3263 
Q 2356 3556 2198 3714 
Q 2041 3872 1763 3872 
Q 1488 3872 1325 3706 
Q 1163 3541 1138 3156 
L 263 3244 
Q 341 3969 753 4284 
Q 1166 4600 1784 4600 
Q 2463 4600 2850 4234 
Q 3238 3869 3238 3325 
Q 3238 3016 3127 2736 
Q 3016 2456 2775 2150 
Q 2616 1947 2200 1565 
Q 1784 1184 1673 1059 
Q 1563 934 1494 816 
L 3238 816 
z
" transform="scale(0.015625)"/>
       </defs>
       <use xlink:href="#Arial-BoldMT-49"/>
       <use xlink:href="#Arial-BoldMT-4e" transform="translate(27.783203 0)"/>
       <use xlink:href="#Arial-BoldMT-44" transform="translate(100 0)"/>
       <use xlink:href="#Arial-BoldMT-30" transform="translate(172.216797 0)"/>
       <use xlink:href="#Arial-BoldMT-32" transform="translate(227.832031 0)"/>
      </g>
     </g>
    </g>
    <g id="xtick_3">
     <g id="line2d_3">
      <path d="M 296.169063 334.647563 
L 166.479063 110.017893 
" clip-path="url(#p21a21f4f99)" style="fill: none; stroke: #cccccc; stroke-opacity: 0.3; stroke-width: 0.8; stroke-linecap: round"/>
     </g>
     <g id="text_3">
      <!-- IND03 -->
      <g style="fill: #262626" transform="translate(143.89 100.744944) scale(0.11 -0.11)">
       <defs>
        <path id="Arial-BoldMT-33" d="M 241 1216 
L 1091 1319 
Q 1131 994 1309 822 
Q 1488 650 1741 650 
Q 2013 650 2198 856 
Q 2384 1063 2384 1413 
Q 2384 1744 2206 1937 
Q 2028 2131 1772 2131 
Q 1603 2131 1369 2066 
L 1466 2781 
Q 1822 2772 2009 2936 
Q 2197 3100 2197 3372 
Q 2197 3603 2059 3740 
Q 1922 3878 1694 3878 
Q 1469 3878 1309 3722 
Q 1150 3566 1116 3266 
L 306 3403 
Q 391 3819 561 4067 
Q 731 4316 1036 4458 
Q 1341 4600 1719 4600 
Q 2366 4600 2756 4188 
Q 3078 3850 3078 3425 
Q 3078 2822 2419 2463 
Q 2813 2378 3048 2084 
Q 3284 1791 3284 1375 
Q 3284 772 2843 347 
Q 2403 -78 1747 -78 
Q 1125 -78 715 280 
Q 306 638 241 1216 
z
" transform="scale(0.015625)"/>
       </defs>
       <use xlink:href="#Arial-BoldMT-49"/>
       <use xlink:href="#Arial-BoldMT-4e" transform="translate(27.783203 0)"/>
       <use xlink:href="#Arial-BoldMT-44" transform="translate(100 0)"/>
       <use xlink:href="#Arial-BoldMT-30" transform="translate(172.216797 0)"/>
       <use xlink:href="#Arial-BoldMT-33" transform="translate(227.832031 0)"/>
      </g>
     </g>
    </g>
    <g id="xtick_4">
     <g id="line2d_4">
      <path d="M 296.169063 334.647563 
L 36.789062 334.647563 
" clip-path="url(#p21a21f4f99)" style="fill: none; stroke: #cccccc; stroke-opacity: 0.3; stroke-width: 0.8; stroke-linecap: round"/>
     </g>
     <g id="text_4">
      <!-- IND04 -->
      <g style="fill: #262626" transform="translate(7.2 337.498969) scale(0.11 -0.11)">
       <defs>
        <path id="Arial-BoldMT-34" d="M 1994 0 
L 1994 922 
L 119 922 
L 119 1691 
L 2106 4600 
L 2844 4600 
L 2844 1694 
L 3413 1694 
L 3413 922 
L 2844 922 
L 2844 0 
L 1994 0 
z
M 1994 1694 
L 1994 3259 
L 941 1694 
L 1994 1694 
z
" transform="scale(0.015625)"/>
       </defs>
       <use xlink:href="#Arial-BoldMT-49"/>
       <use xlink:href="#Arial-BoldMT-4e" transform="translate(27.783203 0)"/>
       <use xlink:href="#Arial-BoldMT-44" transform="translate(100 0)"/>
       <use xlink:href="#Arial-BoldMT-30" transform="translate(172.216797 0)"/>
       <use xlink:href="#Arial-BoldMT-34" transform="translate(227.832031 0)"/>
      </g>
     </g>
    </g>
    <g id="xtick_5">
     <g id="line2d_5">
      <path d="M 296.169063 334.647563 
L 166.479062 559.277232 
" clip-path="url(#p21a21f4f99)" style="fill: none; stroke: #cccccc; stroke-opacity: 0.3; stroke-width: 0.8; stroke-linecap: round"/>
     </g>
     <g id="text_5">
      <!-- IND05 -->
      <g style="fill: #262626" transform="translate(143.89 574.252994) scale(0.11 -0.11)">
       <defs>
        <path id="Arial-BoldMT-35" d="M 284 1178 
L 1159 1269 
Q 1197 972 1381 798 
Q 1566 625 1806 625 
Q 2081 625 2272 848 
Q 2463 1072 2463 1522 
Q 2463 1944 2273 2155 
Q 2084 2366 1781 2366 
Q 1403 2366 1103 2031 
L 391 2134 
L 841 4519 
L 3163 4519 
L 3163 3697 
L 1506 3697 
L 1369 2919 
Q 1663 3066 1969 3066 
Q 2553 3066 2959 2641 
Q 3366 2216 3366 1538 
Q 3366 972 3038 528 
Q 2591 -78 1797 -78 
Q 1163 -78 763 262 
Q 363 603 284 1178 
z
" transform="scale(0.015625)"/>
       </defs>
       <use xlink:href="#Arial-BoldMT-49"/>
       <use xlink:href="#Arial-BoldMT-4e" transform="translate(27.783203 0)"/>
       <use xlink:href="#Arial-BoldMT-44" transform="translate(100 0)"/>
       <use xlink:href="#Arial-BoldMT-30" transform="translate(172.216797 0)"/>
       <use xlink:href="#Arial-BoldMT-35" transform="translate(227.832031 0)"/>
      </g>
     </g>
    </g>
    <g id="xtick_6">
     <g id="line2d_6">
      <path d="M 296.169063 334.647563 
L 425.859063 559.277232 
" clip-path="url(#p21a21f4f99)" style="fill: none; stroke: #cccccc; stroke-opacity: 0.3; stroke-width: 0.8; stroke-linecap: round"/>
     </g>
     <g id="text_6">
      <!-- IND06 -->
      <g style="fill: #262626" transform="translate(417.27 574.252994) scale(0.11 -0.11)">
       <defs>
        <path id="Arial-BoldMT-36" d="M 3247 3459 
L 2397 3366 
Q 2366 3628 2234 3753 
Q 2103 3878 1894 3878 
Q 1616 3878 1423 3628 
Q 1231 3378 1181 2588 
Q 1509 2975 1997 2975 
Q 2547 2975 2939 2556 
Q 3331 2138 3331 1475 
Q 3331 772 2918 347 
Q 2506 -78 1859 -78 
Q 1166 -78 719 461 
Q 272 1000 272 2228 
Q 272 3488 737 4044 
Q 1203 4600 1947 4600 
Q 2469 4600 2811 4308 
Q 3153 4016 3247 3459 
z
M 1256 1544 
Q 1256 1116 1453 883 
Q 1650 650 1903 650 
Q 2147 650 2309 840 
Q 2472 1031 2472 1466 
Q 2472 1913 2297 2120 
Q 2122 2328 1859 2328 
Q 1606 2328 1431 2129 
Q 1256 1931 1256 1544 
z
" transform="scale(0.015625)"/>
       </defs>
       <use xlink:href="#Arial-BoldMT-49"/>
       <use xlink:href="#Arial-BoldMT-4e" transform="translate(27.783203 0)"/>
       <use xlink:href="#Arial-BoldMT-44" transform="translate(100 0)"/>
       <use xlink:href="#Arial-BoldMT-30" transform="translate(172.216797 0)"/>
       <use xlink:href="#Arial-BoldMT-36" transform="translate(227.832031 0)"/>
      </g>
     </g>
    </g>
   </g>
   <g id="matplotlib.axis_2">
    <g id="ytick_1">
     <g id="line2d_7">
      <path d="M 333.223348 334.647563 
C 333.223348 329.781638 332.264867 324.963029 330.402759 320.467501 
C 328.54065 315.971973 325.811127 311.886954 322.370399 308.446226 
C 318.929671 305.005498 314.844652 302.275975 310.349124 300.413866 
C 305.853596 298.551758 301.034987 297.593277 296.169063 297.593277 
C 291.303138 297.593277 286.484529 298.551758 281.989001 300.413866 
C 277.493473 302.275975 273.408454 305.005498 269.967726 308.446226 
C 266.526998 311.886954 263.797475 315.971973 261.935366 320.467501 
C 260.073258 324.963029 259.114777 329.781638 259.114777 334.647563 
C 259.114777 339.513487 260.073258 344.332096 261.935366 348.827624 
C 263.797475 353.323152 266.526998 357.408171 269.967726 360.848899 
C 273.408454 364.289627 277.493473 367.01915 281.989001 368.881259 
C 286.484529 370.743367 291.303138 371.701848 296.169063 371.701848 
C 301.034987 371.701848 305.853596 370.743367 310.349124 368.881259 
C 314.844652 367.01915 318.929671 364.289627 322.370399 360.848899 
C 325.811127 357.408171 328.54065 353.323152 330.402759 348.827624 
C 332.264867 344.332096 333.223348 339.513487 333.223348 334.647563 
" clip-path="url(#p21a21f4f99)" style="fill: none; stroke: #cccccc; stroke-opacity: 0.3; stroke-width: 0.8; stroke-linecap: round"/>
     </g>
     <g id="text_7">
      <!-- 0.0 -->
      <g style="fill: #262626" transform="translate(330.402759 318.678751) scale(0.09 -0.09)">
       <defs>
        <path id="ArialMT-30" d="M 266 2259 
Q 266 3072 433 3567 
Q 600 4063 929 4331 
Q 1259 4600 1759 4600 
Q 2128 4600 2406 4451 
Q 2684 4303 2865 4023 
Q 3047 3744 3150 3342 
Q 3253 2941 3253 2259 
Q 3253 1453 3087 958 
Q 2922 463 2592 192 
Q 2263 -78 1759 -78 
Q 1097 -78 719 397 
Q 266 969 266 2259 
z
M 844 2259 
Q 844 1131 1108 757 
Q 1372 384 1759 384 
Q 2147 384 2411 759 
Q 2675 1134 2675 2259 
Q 2675 3391 2411 3762 
Q 2147 4134 1753 4134 
Q 1366 4134 1134 3806 
Q 844 3388 844 2259 
z
" transform="scale(0.015625)"/>
        <path id="ArialMT-2e" d="M 581 0 
L 581 641 
L 1222 641 
L 1222 0 
L 581 0 
z
" transform="scale(0.015625)"/>
       </defs>
       <use xlink:href="#ArialMT-30"/>
       <use xlink:href="#ArialMT-2e" transform="translate(55.615234 0)"/>
       <use xlink:href="#ArialMT-30" transform="translate(83.398438 0)"/>
      </g>
     </g>
    </g>
    <g id="ytick_2">
     <g id="line2d_8">
      <path d="M 370.277634 334.647563 
C 370.277634 324.915714 368.360672 315.278496 364.636455 306.28744 
C 360.912238 297.296384 355.453192 289.126345 348.571736 282.244889 
C 341.69028 275.363433 333.520241 269.904387 324.529185 266.18017 
C 315.538129 262.455953 305.900911 260.538991 296.169063 260.538991 
C 286.437214 260.538991 276.799996 262.455953 267.80894 266.18017 
C 258.817884 269.904387 250.647845 275.363433 243.766389 282.244889 
C 236.884933 289.126345 231.425887 297.296384 227.70167 306.28744 
C 223.977453 315.278496 222.060491 324.915714 222.060491 334.647563 
C 222.060491 344.379411 223.977453 354.016629 227.70167 363.007685 
C 231.425887 371.998741 236.884933 380.16878 243.766389 387.050236 
C 250.647845 393.931692 258.817884 399.390738 267.80894 403.114955 
C 276.799996 406.839172 286.437214 408.756134 296.169063 408.756134 
C 305.900911 408.756134 315.538129 406.839172 324.529185 403.114955 
C 333.520241 399.390738 341.69028 393.931692 348.571736 387.050236 
C 355.453192 380.16878 360.912238 371.998741 364.636455 363.007685 
C 368.360672 354.016629 370.277634 344.379411 370.277634 334.647563 
" clip-path="url(#p21a21f4f99)" style="fill: none; stroke: #cccccc; stroke-opacity: 0.3; stroke-width: 0.8; stroke-linecap: round"/>
     </g>
     <g id="text_8">
      <!-- 0.2 -->
      <g style="fill: #262626" transform="translate(364.636455 304.49869) scale(0.09 -0.09)">
       <defs>
        <path id="ArialMT-32" d="M 3222 541 
L 3222 0 
L 194 0 
Q 188 203 259 391 
Q 375 700 629 1000 
Q 884 1300 1366 1694 
Q 2113 2306 2375 2664 
Q 2638 3022 2638 3341 
Q 2638 3675 2398 3904 
Q 2159 4134 1775 4134 
Q 1369 4134 1125 3890 
Q 881 3647 878 3216 
L 300 3275 
Q 359 3922 746 4261 
Q 1134 4600 1788 4600 
Q 2447 4600 2831 4234 
Q 3216 3869 3216 3328 
Q 3216 3053 3103 2787 
Q 2991 2522 2730 2228 
Q 2469 1934 1863 1422 
Q 1356 997 1212 845 
Q 1069 694 975 541 
L 3222 541 
z
" transform="scale(0.015625)"/>
       </defs>
       <use xlink:href="#ArialMT-30"/>
       <use xlink:href="#ArialMT-2e" transform="translate(55.615234 0)"/>
       <use xlink:href="#ArialMT-32" transform="translate(83.398438 0)"/>
      </g>
     </g>
    </g>
    <g id="ytick_3">
     <g id="line2d_9">
      <path d="M 407.33192 334.647563 
C 407.33192 320.04979 404.456477 305.593962 398.870151 292.107379 
C 393.283825 278.620795 385.095257 266.365736 374.773073 256.043552 
C 364.450889 245.721368 352.19583 237.5328 338.709246 231.946474 
C 325.222663 226.360148 310.766835 223.484705 296.169063 223.484705 
C 281.57129 223.484705 267.115462 226.360148 253.628879 231.946474 
C 240.142295 237.5328 227.887236 245.721368 217.565052 256.043552 
C 207.242868 266.365736 199.0543 278.620795 193.467974 292.107379 
C 187.881648 305.593962 185.006205 320.04979 185.006205 334.647563 
C 185.006205 349.245335 187.881648 363.701163 193.467974 377.187746 
C 199.0543 390.67433 207.242868 402.929389 217.565052 413.251573 
C 227.887236 423.573757 240.142295 431.762325 253.628879 437.348651 
C 267.115462 442.934977 281.57129 445.81042 296.169063 445.81042 
C 310.766835 445.81042 325.222663 442.934977 338.709246 437.348651 
C 352.19583 431.762325 364.450889 423.573757 374.773073 413.251573 
C 385.095257 402.929389 393.283825 390.67433 398.870151 377.187746 
C 404.456477 363.701163 407.33192 349.245335 407.33192 334.647563 
" clip-path="url(#p21a21f4f99)" style="fill: none; stroke: #cccccc; stroke-opacity: 0.3; stroke-width: 0.8; stroke-linecap: round"/>
     </g>
     <g id="text_9">
      <!-- 0.4 -->
      <g style="fill: #262626" transform="translate(398.870151 290.318629) scale(0.09 -0.09)">
       <defs>
        <path id="ArialMT-34" d="M 2069 0 
L 2069 1097 
L 81 1097 
L 81 1613 
L 2172 4581 
L 2631 4581 
L 2631 1613 
L 3250 1613 
L 3250 1097 
L 2631 1097 
L 2631 0 
L 2069 0 
z
M 2069 1613 
L 2069 3678 
L 634 1613 
L 2069 1613 
z
" transform="scale(0.015625)"/>
       </defs>
       <use xlink:href="#ArialMT-30"/>
       <use xlink:href="#ArialMT-2e" transform="translate(55.615234 0)"/>
       <use xlink:href="#ArialMT-34" transform="translate(83.398438 0)"/>
      </g>
     </g>
    </g>
    <g id="ytick_4">
     <g id="line2d_10">
      <path d="M 444.386205 334.647563 
C 444.386205 315.183866 440.552281 295.909429 433.103847 277.927318 
C 425.655413 259.945206 414.737321 243.605128 400.974409 229.842216 
C 387.211497 216.079304 370.871419 205.161212 352.889307 197.712778 
C 334.907196 190.264344 315.632759 186.43042 296.169063 186.43042 
C 276.705366 186.43042 257.430929 190.264344 239.448818 197.712778 
C 221.466706 205.161212 205.126628 216.079304 191.363716 229.842216 
C 177.600804 243.605128 166.682712 259.945206 159.234278 277.927318 
C 151.785844 295.909429 147.95192 315.183866 147.95192 334.647563 
C 147.95192 354.111259 151.785844 373.385696 159.234278 391.367807 
C 166.682712 409.349919 177.600804 425.689997 191.363716 439.452909 
C 205.126628 453.215821 221.466706 464.133913 239.448818 471.582347 
C 257.430929 479.030781 276.705366 482.864705 296.169063 482.864705 
C 315.632759 482.864705 334.907196 479.030781 352.889307 471.582347 
C 370.871419 464.133913 387.211497 453.215821 400.974409 439.452909 
C 414.737321 425.689997 425.655413 409.349919 433.103847 391.367807 
C 440.552281 373.385696 444.386205 354.111259 444.386205 334.647563 
" clip-path="url(#p21a21f4f99)" style="fill: none; stroke: #cccccc; stroke-opacity: 0.3; stroke-width: 0.8; stroke-linecap: round"/>
     </g>
     <g id="text_10">
      <!-- 0.6 -->
      <g style="fill: #262626" transform="translate(433.103847 276.138568) scale(0.09 -0.09)">
       <defs>
        <path id="ArialMT-36" d="M 3184 3459 
L 2625 3416 
Q 2550 3747 2413 3897 
Q 2184 4138 1850 4138 
Q 1581 4138 1378 3988 
Q 1113 3794 959 3422 
Q 806 3050 800 2363 
Q 1003 2672 1297 2822 
Q 1591 2972 1913 2972 
Q 2475 2972 2870 2558 
Q 3266 2144 3266 1488 
Q 3266 1056 3080 686 
Q 2894 316 2569 119 
Q 2244 -78 1831 -78 
Q 1128 -78 684 439 
Q 241 956 241 2144 
Q 241 3472 731 4075 
Q 1159 4600 1884 4600 
Q 2425 4600 2770 4297 
Q 3116 3994 3184 3459 
z
M 888 1484 
Q 888 1194 1011 928 
Q 1134 663 1356 523 
Q 1578 384 1822 384 
Q 2178 384 2434 671 
Q 2691 959 2691 1453 
Q 2691 1928 2437 2201 
Q 2184 2475 1800 2475 
Q 1419 2475 1153 2201 
Q 888 1928 888 1484 
z
" transform="scale(0.015625)"/>
       </defs>
       <use xlink:href="#ArialMT-30"/>
       <use xlink:href="#ArialMT-2e" transform="translate(55.615234 0)"/>
       <use xlink:href="#ArialMT-36" transform="translate(83.398438 0)"/>
      </g>
     </g>
    </g>
    <g id="ytick_5">
     <g id="line2d_11">
      <path d="M 481.440491 334.647563 
C 481.440491 310.317941 476.648086 286.224895 467.337543 263.747256 
C 458.027 241.269617 444.379386 220.844519 427.175746 203.640879 
C 409.972106 186.437239 389.547008 172.789625 367.069369 163.479082 
C 344.59173 154.168539 320.498684 149.376134 296.169063 149.376134 
C 271.839441 149.376134 247.746395 154.168539 225.268756 163.479082 
C 202.791117 172.789625 182.366019 186.437239 165.162379 203.640879 
C 147.958739 220.844519 134.311125 241.269617 125.000582 263.747256 
C 115.690039 286.224895 110.897634 310.317941 110.897634 334.647563 
C 110.897634 358.977184 115.690039 383.07023 125.000582 405.547869 
C 134.311125 428.025508 147.958739 448.450606 165.162379 465.654246 
C 182.366019 482.857886 202.791117 496.5055 225.268756 505.816043 
C 247.746395 515.126586 271.839441 519.918991 296.169062 519.918991 
C 320.498684 519.918991 344.59173 515.126586 367.069369 505.816043 
C 389.547008 496.5055 409.972106 482.857886 427.175746 465.654246 
C 444.379386 448.450606 458.027 428.025508 467.337543 405.547869 
C 476.648086 383.07023 481.440491 358.977184 481.440491 334.647563 
" clip-path="url(#p21a21f4f99)" style="fill: none; stroke: #cccccc; stroke-opacity: 0.3; stroke-width: 0.8; stroke-linecap: round"/>
     </g>
     <g id="text_11">
      <!-- 0.8 -->
      <g style="fill: #262626" transform="translate(467.337543 261.958506) scale(0.09 -0.09)">
       <defs>
        <path id="ArialMT-38" d="M 1131 2484 
Q 781 2613 612 2850 
Q 444 3088 444 3419 
Q 444 3919 803 4259 
Q 1163 4600 1759 4600 
Q 2359 4600 2725 4251 
Q 3091 3903 3091 3403 
Q 3091 3084 2923 2848 
Q 2756 2613 2416 2484 
Q 2838 2347 3058 2040 
Q 3278 1734 3278 1309 
Q 3278 722 2862 322 
Q 2447 -78 1769 -78 
Q 1091 -78 675 323 
Q 259 725 259 1325 
Q 259 1772 486 2073 
Q 713 2375 1131 2484 
z
M 1019 3438 
Q 1019 3113 1228 2906 
Q 1438 2700 1772 2700 
Q 2097 2700 2305 2904 
Q 2513 3109 2513 3406 
Q 2513 3716 2298 3927 
Q 2084 4138 1766 4138 
Q 1444 4138 1231 3931 
Q 1019 3725 1019 3438 
z
M 838 1322 
Q 838 1081 952 856 
Q 1066 631 1291 507 
Q 1516 384 1775 384 
Q 2178 384 2440 643 
Q 2703 903 2703 1303 
Q 2703 1709 2433 1975 
Q 2163 2241 1756 2241 
Q 1359 2241 1098 1978 
Q 838 1716 838 1322 
z
" transform="scale(0.015625)"/>
       </defs>
       <use xlink:href="#ArialMT-30"/>
       <use xlink:href="#ArialMT-2e" transform="translate(55.615234 0)"/>
       <use xlink:href="#ArialMT-38" transform="translate(83.398438 0)"/>
      </g>
     </g>
    </g>
    <g id="ytick_6">
     <g id="line2d_12">
      <path d="M 518.494777 334.647563 
C 518.494777 305.452017 512.743891 276.540362 501.571239 249.567195 
C 490.398588 222.594028 474.021451 198.08391 453.377083 177.439542 
C 432.732715 156.795174 408.222597 140.418037 381.24943 129.245386 
C 354.276263 118.072734 325.364608 112.321848 296.169063 112.321848 
C 266.973517 112.321848 238.061862 118.072734 211.088695 129.245386 
C 184.115528 140.418037 159.60541 156.795174 138.961042 177.439542 
C 118.316674 198.08391 101.939537 222.594028 90.766886 249.567195 
C 79.594234 276.540362 73.843348 305.452017 73.843348 334.647563 
C 73.843348 363.843108 79.594234 392.754763 90.766886 419.72793 
C 101.939537 446.701097 118.316674 471.211215 138.961042 491.855583 
C 159.60541 512.499951 184.115528 528.877088 211.088695 540.049739 
C 238.061862 551.222391 266.973517 556.973277 296.169062 556.973277 
C 325.364608 556.973277 354.276263 551.222391 381.24943 540.049739 
C 408.222597 528.877088 432.732715 512.499951 453.377083 491.855583 
C 474.021451 471.211215 490.398588 446.701097 501.571239 419.72793 
C 512.743891 392.754763 518.494777 363.843108 518.494777 334.647563 
" clip-path="url(#p21a21f4f99)" style="fill: none; stroke: #cccccc; stroke-opacity: 0.3; stroke-width: 0.8; stroke-linecap: round"/>
     </g>
     <g id="text_12">
      <!-- 1.0 -->
      <g style="fill: #262626" transform="translate(501.571239 247.778445) scale(0.09 -0.09)">
       <defs>
        <path id="ArialMT-31" d="M 2384 0 
L 1822 0 
L 1822 3584 
Q 1619 3391 1289 3197 
Q 959 3003 697 2906 
L 697 3450 
Q 1169 3672 1522 3987 
Q 1875 4303 2022 4600 
L 2384 4600 
L 2384 0 
z
" transform="scale(0.015625)"/>
       </defs>
       <use xlink:href="#ArialMT-31"/>
       <use xlink:href="#ArialMT-2e" transform="translate(55.615234 0)"/>
       <use xlink:href="#ArialMT-30" transform="translate(83.398438 0)"/>
      </g>
     </g>
    </g>
   </g>
   <g id="line2d_13">
    <path d="M 431.417205 334.647563 
L 346.192348 248.00469 
L 230.397705 220.72823 
L 225.76592 334.647563 
L 234.103134 442.148904 
L 363.793134 451.77589 
L 431.417205 334.647563 
" clip-path="url(#p21a21f4f99)" style="fill: none; stroke: #1f77b4; stroke-width: 2; stroke-linecap: round"/>
    <defs>
     <path id="m895c6cb0ab" d="M 0 4 
C 1.060812 4 2.078319 3.578535 2.828427 2.828427 
C 3.578535 2.078319 4 1.060812 4 0 
C 4 -1.060812 3.578535 -2.078319 2.828427 -2.828427 
C 2.078319 -3.578535 1.060812 -4 0 -4 
C -1.060812 -4 -2.078319 -3.578535 -2.828427 -2.828427 
C -3.578535 -2.078319 -4 -1.060812 -4 0 
C -4 1.060812 -3.578535 2.078319 -2.828427 2.828427 
C -2.078319 3.578535 -1.060812 4 0 4 
z
" style="stroke: #ffffff; stroke-width: 1.5"/>
    </defs>
    <g clip-path="url(#p21a21f4f99)">
     <use xlink:href="#m895c6cb0ab" x="431.417205" y="334.647563" style="fill: #1f77b4; stroke: #ffffff; stroke-width: 1.5"/>
     <use xlink:href="#m895c6cb0ab" x="346.192348" y="248.00469" style="fill: #1f77b4; stroke: #ffffff; stroke-width: 1.5"/>
     <use xlink:href="#m895c6cb0ab" x="230.397705" y="220.72823" style="fill: #1f77b4; stroke: #ffffff; stroke-width: 1.5"/>
     <use xlink:href="#m895c6cb0ab" x="225.76592" y="334.647563" style="fill: #1f77b4; stroke: #ffffff; stroke-width: 1.5"/>
     <use xlink:href="#m895c6cb0ab" x="234.103134" y="442.148904" style="fill: #1f77b4; stroke: #ffffff; stroke-width: 1.5"/>
     <use xlink:href="#m895c6cb0ab" x="363.793134" y="451.77589" style="fill: #1f77b4; stroke: #ffffff; stroke-width: 1.5"/>
     <use xlink:href="#m895c6cb0ab" x="431.417205" y="334.647563" style="fill: #1f77b4; stroke: #ffffff; stroke-width: 1.5"/>
    </g>
   </g>
   <g id="line2d_14">
    <path d="M 414.742777 334.647563 
L 335.076063 267.258662 
L 237.808563 233.564211 
L 257.262063 334.647563 
L 236.882205 437.335411 
L 361.94042 448.566895 
L 414.742777 334.647563 
" clip-path="url(#p21a21f4f99)" style="fill: none; stroke: #17becf; stroke-width: 2; stroke-linecap: round"/>
    <defs>
     <path id="m00ce2e35c1" d="M -4 4 
L 4 4 
L 4 -4 
L -4 -4 
z
" style="stroke: #ffffff; stroke-width: 1.5; stroke-linejoin: miter"/>
    </defs>
    <g clip-path="url(#p21a21f4f99)">
     <use xlink:href="#m00ce2e35c1" x="414.742777" y="334.647563" style="fill: #17becf; stroke: #ffffff; stroke-width: 1.5; stroke-linejoin: miter"/>
     <use xlink:href="#m00ce2e35c1" x="335.076063" y="267.258662" style="fill: #17becf; stroke: #ffffff; stroke-width: 1.5; stroke-linejoin: miter"/>
     <use xlink:href="#m00ce2e35c1" x="237.808563" y="233.564211" style="fill: #17becf; stroke: #ffffff; stroke-width: 1.5; stroke-linejoin: miter"/>
     <use xlink:href="#m00ce2e35c1" x="257.262063" y="334.647563" style="fill: #17becf; stroke: #ffffff; stroke-width: 1.5; stroke-linejoin: miter"/>
     <use xlink:href="#m00ce2e35c1" x="236.882205" y="437.335411" style="fill: #17becf; stroke: #ffffff; stroke-width: 1.5; stroke-linejoin: miter"/>
     <use xlink:href="#m00ce2e35c1" x="361.94042" y="448.566895" style="fill: #17becf; stroke: #ffffff; stroke-width: 1.5; stroke-linejoin: miter"/>
     <use xlink:href="#m00ce2e35c1" x="414.742777" y="334.647563" style="fill: #17becf; stroke: #ffffff; stroke-width: 1.5; stroke-linejoin: miter"/>
    </g>
   </g>
   <g id="patch_3">
    <path d="M 555.549063 334.647563 
C 555.549063 300.586093 548.839696 266.855828 535.804936 235.387134 
C 522.770176 203.918439 503.663515 175.323302 479.578419 151.238206 
C 455.493323 127.15311 426.898186 108.046449 395.429491 95.011689 
C 363.960797 81.976929 330.230532 75.267563 296.169063 75.267563 
C 262.107593 75.267563 228.377328 81.976929 196.908634 95.011689 
C 165.439939 108.046449 136.844802 127.15311 112.759706 151.238206 
C 88.67461 175.323302 69.567949 203.918439 56.533189 235.387134 
C 43.498429 266.855828 36.789062 300.586093 36.789062 334.647563 
C 36.789062 368.709032 43.498429 402.439297 56.533189 433.907991 
C 69.567949 465.376686 88.67461 493.971823 112.759706 518.056919 
C 136.844802 542.142015 165.439939 561.248676 196.908634 574.283436 
C 228.377328 587.318196 262.107593 594.027563 296.169062 594.027563 
C 330.230532 594.027563 363.960797 587.318196 395.429491 574.283436 
C 426.898186 561.248676 455.493323 542.142015 479.578419 518.056919 
C 503.663515 493.971823 522.770176 465.376686 535.804936 433.907991 
C 548.839696 402.439297 555.549063 368.709032 555.549063 334.647563 
" style="fill: none; stroke: #cccccc; stroke-width: 0.8; stroke-linejoin: miter; stroke-linecap: square"/>
   </g>
   <g id="text_13">
    <!-- Labor vs. Quantity Division Strategy Comparison -->
    <g style="fill: #262626" transform="translate(132.814219 17.391562) scale(0.14 -0.14)">
     <defs>
      <path id="Arial-BoldMT-4c" d="M 491 0 
L 491 4544 
L 1416 4544 
L 1416 772 
L 3716 772 
L 3716 0 
L 491 0 
z
" transform="scale(0.015625)"/>
      <path id="Arial-BoldMT-61" d="M 1116 2306 
L 319 2450 
Q 453 2931 781 3162 
Q 1109 3394 1756 3394 
Q 2344 3394 2631 3255 
Q 2919 3116 3036 2902 
Q 3153 2688 3153 2116 
L 3144 1091 
Q 3144 653 3186 445 
Q 3228 238 3344 0 
L 2475 0 
Q 2441 88 2391 259 
Q 2369 338 2359 363 
Q 2134 144 1878 34 
Q 1622 -75 1331 -75 
Q 819 -75 523 203 
Q 228 481 228 906 
Q 228 1188 362 1408 
Q 497 1628 739 1745 
Q 981 1863 1438 1950 
Q 2053 2066 2291 2166 
L 2291 2253 
Q 2291 2506 2166 2614 
Q 2041 2722 1694 2722 
Q 1459 2722 1328 2630 
Q 1197 2538 1116 2306 
z
M 2291 1594 
Q 2122 1538 1756 1459 
Q 1391 1381 1278 1306 
Q 1106 1184 1106 997 
Q 1106 813 1243 678 
Q 1381 544 1594 544 
Q 1831 544 2047 700 
Q 2206 819 2256 991 
Q 2291 1103 2291 1419 
L 2291 1594 
z
" transform="scale(0.015625)"/>
      <path id="Arial-BoldMT-62" d="M 422 0 
L 422 4581 
L 1300 4581 
L 1300 2931 
Q 1706 3394 2263 3394 
Q 2869 3394 3266 2955 
Q 3663 2516 3663 1694 
Q 3663 844 3258 384 
Q 2853 -75 2275 -75 
Q 1991 -75 1714 67 
Q 1438 209 1238 488 
L 1238 0 
L 422 0 
z
M 1294 1731 
Q 1294 1216 1456 969 
Q 1684 619 2063 619 
Q 2353 619 2558 867 
Q 2763 1116 2763 1650 
Q 2763 2219 2556 2470 
Q 2350 2722 2028 2722 
Q 1713 2722 1503 2476 
Q 1294 2231 1294 1731 
z
" transform="scale(0.015625)"/>
      <path id="Arial-BoldMT-6f" d="M 256 1706 
Q 256 2144 472 2553 
Q 688 2963 1083 3178 
Q 1478 3394 1966 3394 
Q 2719 3394 3200 2905 
Q 3681 2416 3681 1669 
Q 3681 916 3195 420 
Q 2709 -75 1972 -75 
Q 1516 -75 1102 131 
Q 688 338 472 736 
Q 256 1134 256 1706 
z
M 1156 1659 
Q 1156 1166 1390 903 
Q 1625 641 1969 641 
Q 2313 641 2545 903 
Q 2778 1166 2778 1666 
Q 2778 2153 2545 2415 
Q 2313 2678 1969 2678 
Q 1625 2678 1390 2415 
Q 1156 2153 1156 1659 
z
" transform="scale(0.015625)"/>
      <path id="Arial-BoldMT-72" d="M 1300 0 
L 422 0 
L 422 3319 
L 1238 3319 
L 1238 2847 
Q 1447 3181 1614 3287 
Q 1781 3394 1994 3394 
Q 2294 3394 2572 3228 
L 2300 2463 
Q 2078 2606 1888 2606 
Q 1703 2606 1575 2504 
Q 1447 2403 1373 2137 
Q 1300 1872 1300 1025 
L 1300 0 
z
" transform="scale(0.015625)"/>
      <path id="Arial-BoldMT-20" transform="scale(0.015625)"/>
      <path id="Arial-BoldMT-76" d="M 1372 0 
L 34 3319 
L 956 3319 
L 1581 1625 
L 1763 1059 
Q 1834 1275 1853 1344 
Q 1897 1484 1947 1625 
L 2578 3319 
L 3481 3319 
L 2163 0 
L 1372 0 
z
" transform="scale(0.015625)"/>
      <path id="Arial-BoldMT-73" d="M 150 947 
L 1031 1081 
Q 1088 825 1259 692 
Q 1431 559 1741 559 
Q 2081 559 2253 684 
Q 2369 772 2369 919 
Q 2369 1019 2306 1084 
Q 2241 1147 2013 1200 
Q 950 1434 666 1628 
Q 272 1897 272 2375 
Q 272 2806 612 3100 
Q 953 3394 1669 3394 
Q 2350 3394 2681 3172 
Q 3013 2950 3138 2516 
L 2309 2363 
Q 2256 2556 2107 2659 
Q 1959 2763 1684 2763 
Q 1338 2763 1188 2666 
Q 1088 2597 1088 2488 
Q 1088 2394 1175 2328 
Q 1294 2241 1995 2081 
Q 2697 1922 2975 1691 
Q 3250 1456 3250 1038 
Q 3250 581 2869 253 
Q 2488 -75 1741 -75 
Q 1063 -75 667 200 
Q 272 475 150 947 
z
" transform="scale(0.015625)"/>
      <path id="Arial-BoldMT-2e" d="M 459 0 
L 459 878 
L 1338 878 
L 1338 0 
L 459 0 
z
" transform="scale(0.015625)"/>
      <path id="Arial-BoldMT-51" d="M 4153 581 
Q 4494 338 4894 194 
L 4553 -459 
Q 4344 -397 4144 -288 
Q 4100 -266 3528 119 
Q 3078 -78 2531 -78 
Q 1475 -78 876 544 
Q 278 1166 278 2291 
Q 278 3413 878 4036 
Q 1478 4659 2506 4659 
Q 3525 4659 4122 4036 
Q 4719 3413 4719 2291 
Q 4719 1697 4553 1247 
Q 4428 903 4153 581 
z
M 3409 1103 
Q 3588 1313 3677 1609 
Q 3766 1906 3766 2291 
Q 3766 3084 3416 3476 
Q 3066 3869 2500 3869 
Q 1934 3869 1582 3475 
Q 1231 3081 1231 2291 
Q 1231 1488 1582 1089 
Q 1934 691 2472 691 
Q 2672 691 2850 756 
Q 2569 941 2278 1044 
L 2538 1572 
Q 2994 1416 3409 1103 
z
" transform="scale(0.015625)"/>
      <path id="Arial-BoldMT-75" d="M 2644 0 
L 2644 497 
Q 2463 231 2167 78 
Q 1872 -75 1544 -75 
Q 1209 -75 943 72 
Q 678 219 559 484 
Q 441 750 441 1219 
L 441 3319 
L 1319 3319 
L 1319 1794 
Q 1319 1094 1367 936 
Q 1416 778 1544 686 
Q 1672 594 1869 594 
Q 2094 594 2272 717 
Q 2450 841 2515 1023 
Q 2581 1206 2581 1919 
L 2581 3319 
L 3459 3319 
L 3459 0 
L 2644 0 
z
" transform="scale(0.015625)"/>
      <path id="Arial-BoldMT-6e" d="M 3478 0 
L 2600 0 
L 2600 1694 
Q 2600 2231 2544 2389 
Q 2488 2547 2361 2634 
Q 2234 2722 2056 2722 
Q 1828 2722 1647 2597 
Q 1466 2472 1398 2265 
Q 1331 2059 1331 1503 
L 1331 0 
L 453 0 
L 453 3319 
L 1269 3319 
L 1269 2831 
Q 1703 3394 2363 3394 
Q 2653 3394 2893 3289 
Q 3134 3184 3257 3021 
Q 3381 2859 3429 2653 
Q 3478 2447 3478 2063 
L 3478 0 
z
" transform="scale(0.015625)"/>
      <path id="Arial-BoldMT-74" d="M 1981 3319 
L 1981 2619 
L 1381 2619 
L 1381 1281 
Q 1381 875 1398 808 
Q 1416 741 1477 697 
Q 1538 653 1625 653 
Q 1747 653 1978 738 
L 2053 56 
Q 1747 -75 1359 -75 
Q 1122 -75 931 4 
Q 741 84 652 211 
Q 563 338 528 553 
Q 500 706 500 1172 
L 500 2619 
L 97 2619 
L 97 3319 
L 500 3319 
L 500 3978 
L 1381 4491 
L 1381 3319 
L 1981 3319 
z
" transform="scale(0.015625)"/>
      <path id="Arial-BoldMT-69" d="M 459 3769 
L 459 4581 
L 1338 4581 
L 1338 3769 
L 459 3769 
z
M 459 0 
L 459 3319 
L 1338 3319 
L 1338 0 
L 459 0 
z
" transform="scale(0.015625)"/>
      <path id="Arial-BoldMT-79" d="M 44 3319 
L 978 3319 
L 1772 963 
L 2547 3319 
L 3456 3319 
L 2284 125 
L 2075 -453 
Q 1959 -744 1854 -897 
Q 1750 -1050 1614 -1145 
Q 1478 -1241 1279 -1294 
Q 1081 -1347 831 -1347 
Q 578 -1347 334 -1294 
L 256 -606 
Q 463 -647 628 -647 
Q 934 -647 1081 -467 
Q 1228 -288 1306 -9 
L 44 3319 
z
" transform="scale(0.015625)"/>
      <path id="Arial-BoldMT-53" d="M 231 1491 
L 1131 1578 
Q 1213 1125 1461 912 
Q 1709 700 2131 700 
Q 2578 700 2804 889 
Q 3031 1078 3031 1331 
Q 3031 1494 2936 1608 
Q 2841 1722 2603 1806 
Q 2441 1863 1863 2006 
Q 1119 2191 819 2459 
Q 397 2838 397 3381 
Q 397 3731 595 4036 
Q 794 4341 1167 4500 
Q 1541 4659 2069 4659 
Q 2931 4659 3367 4281 
Q 3803 3903 3825 3272 
L 2900 3231 
Q 2841 3584 2645 3739 
Q 2450 3894 2059 3894 
Q 1656 3894 1428 3728 
Q 1281 3622 1281 3444 
Q 1281 3281 1419 3166 
Q 1594 3019 2269 2859 
Q 2944 2700 3267 2529 
Q 3591 2359 3773 2064 
Q 3956 1769 3956 1334 
Q 3956 941 3737 597 
Q 3519 253 3119 86 
Q 2719 -81 2122 -81 
Q 1253 -81 787 320 
Q 322 722 231 1491 
z
" transform="scale(0.015625)"/>
      <path id="Arial-BoldMT-65" d="M 2381 1056 
L 3256 909 
Q 3088 428 2723 176 
Q 2359 -75 1813 -75 
Q 947 -75 531 491 
Q 203 944 203 1634 
Q 203 2459 634 2926 
Q 1066 3394 1725 3394 
Q 2466 3394 2894 2905 
Q 3322 2416 3303 1406 
L 1103 1406 
Q 1113 1016 1316 798 
Q 1519 581 1822 581 
Q 2028 581 2168 693 
Q 2309 806 2381 1056 
z
M 2431 1944 
Q 2422 2325 2234 2523 
Q 2047 2722 1778 2722 
Q 1491 2722 1303 2513 
Q 1116 2303 1119 1944 
L 2431 1944 
z
" transform="scale(0.015625)"/>
      <path id="Arial-BoldMT-67" d="M 378 -219 
L 1381 -341 
Q 1406 -516 1497 -581 
Q 1622 -675 1891 -675 
Q 2234 -675 2406 -572 
Q 2522 -503 2581 -350 
Q 2622 -241 2622 53 
L 2622 538 
Q 2228 0 1628 0 
Q 959 0 569 566 
Q 263 1013 263 1678 
Q 263 2513 664 2953 
Q 1066 3394 1663 3394 
Q 2278 3394 2678 2853 
L 2678 3319 
L 3500 3319 
L 3500 341 
Q 3500 -247 3403 -537 
Q 3306 -828 3131 -993 
Q 2956 -1159 2664 -1253 
Q 2372 -1347 1925 -1347 
Q 1081 -1347 728 -1058 
Q 375 -769 375 -325 
Q 375 -281 378 -219 
z
M 1163 1728 
Q 1163 1200 1367 954 
Q 1572 709 1872 709 
Q 2194 709 2416 961 
Q 2638 1213 2638 1706 
Q 2638 2222 2425 2472 
Q 2213 2722 1888 2722 
Q 1572 2722 1367 2476 
Q 1163 2231 1163 1728 
z
" transform="scale(0.015625)"/>
      <path id="Arial-BoldMT-43" d="M 3397 1684 
L 4294 1400 
Q 4088 650 3608 286 
Q 3128 -78 2391 -78 
Q 1478 -78 890 545 
Q 303 1169 303 2250 
Q 303 3394 893 4026 
Q 1484 4659 2447 4659 
Q 3288 4659 3813 4163 
Q 4125 3869 4281 3319 
L 3366 3100 
Q 3284 3456 3026 3662 
Q 2769 3869 2400 3869 
Q 1891 3869 1573 3503 
Q 1256 3138 1256 2319 
Q 1256 1450 1568 1081 
Q 1881 713 2381 713 
Q 2750 713 3015 947 
Q 3281 1181 3397 1684 
z
" transform="scale(0.015625)"/>
      <path id="Arial-BoldMT-6d" d="M 394 3319 
L 1203 3319 
L 1203 2866 
Q 1638 3394 2238 3394 
Q 2556 3394 2790 3262 
Q 3025 3131 3175 2866 
Q 3394 3131 3647 3262 
Q 3900 3394 4188 3394 
Q 4553 3394 4806 3245 
Q 5059 3097 5184 2809 
Q 5275 2597 5275 2122 
L 5275 0 
L 4397 0 
L 4397 1897 
Q 4397 2391 4306 2534 
Q 4184 2722 3931 2722 
Q 3747 2722 3584 2609 
Q 3422 2497 3350 2280 
Q 3278 2063 3278 1594 
L 3278 0 
L 2400 0 
L 2400 1819 
Q 2400 2303 2353 2443 
Q 2306 2584 2207 2653 
Q 2109 2722 1941 2722 
Q 1738 2722 1575 2612 
Q 1413 2503 1342 2297 
Q 1272 2091 1272 1613 
L 1272 0 
L 394 0 
L 394 3319 
z
" transform="scale(0.015625)"/>
      <path id="Arial-BoldMT-70" d="M 434 3319 
L 1253 3319 
L 1253 2831 
Q 1413 3081 1684 3237 
Q 1956 3394 2288 3394 
Q 2866 3394 3269 2941 
Q 3672 2488 3672 1678 
Q 3672 847 3265 386 
Q 2859 -75 2281 -75 
Q 2006 -75 1782 34 
Q 1559 144 1313 409 
L 1313 -1263 
L 434 -1263 
L 434 3319 
z
M 1303 1716 
Q 1303 1156 1525 889 
Q 1747 622 2066 622 
Q 2372 622 2575 867 
Q 2778 1113 2778 1672 
Q 2778 2194 2568 2447 
Q 2359 2700 2050 2700 
Q 1728 2700 1515 2451 
Q 1303 2203 1303 1716 
z
" transform="scale(0.015625)"/>
     </defs>
     <use xlink:href="#Arial-BoldMT-4c"/>
     <use xlink:href="#Arial-BoldMT-61" transform="translate(61.083984 0)"/>
     <use xlink:href="#Arial-BoldMT-62" transform="translate(116.699219 0)"/>
     <use xlink:href="#Arial-BoldMT-6f" transform="translate(177.783203 0)"/>
     <use xlink:href="#Arial-BoldMT-72" transform="translate(238.867188 0)"/>
     <use xlink:href="#Arial-BoldMT-20" transform="translate(277.783203 0)"/>
     <use xlink:href="#Arial-BoldMT-76" transform="translate(305.566406 0)"/>
     <use xlink:href="#Arial-BoldMT-73" transform="translate(361.181641 0)"/>
     <use xlink:href="#Arial-BoldMT-2e" transform="translate(416.796875 0)"/>
     <use xlink:href="#Arial-BoldMT-20" transform="translate(444.580078 0)"/>
     <use xlink:href="#Arial-BoldMT-51" transform="translate(472.363281 0)"/>
     <use xlink:href="#Arial-BoldMT-75" transform="translate(550.146484 0)"/>
     <use xlink:href="#Arial-BoldMT-61" transform="translate(611.230469 0)"/>
     <use xlink:href="#Arial-BoldMT-6e" transform="translate(666.845703 0)"/>
     <use xlink:href="#Arial-BoldMT-74" transform="translate(727.929688 0)"/>
     <use xlink:href="#Arial-BoldMT-69" transform="translate(761.230469 0)"/>
     <use xlink:href="#Arial-BoldMT-74" transform="translate(789.013672 0)"/>
     <use xlink:href="#Arial-BoldMT-79" transform="translate(822.314453 0)"/>
     <use xlink:href="#Arial-BoldMT-20" transform="translate(877.929688 0)"/>
     <use xlink:href="#Arial-BoldMT-44" transform="translate(905.712891 0)"/>
     <use xlink:href="#Arial-BoldMT-69" transform="translate(977.929688 0)"/>
     <use xlink:href="#Arial-BoldMT-76" transform="translate(1005.712891 0)"/>
     <use xlink:href="#Arial-BoldMT-69" transform="translate(1061.328125 0)"/>
     <use xlink:href="#Arial-BoldMT-73" transform="translate(1089.111328 0)"/>
     <use xlink:href="#Arial-BoldMT-69" transform="translate(1144.726562 0)"/>
     <use xlink:href="#Arial-BoldMT-6f" transform="translate(1172.509766 0)"/>
     <use xlink:href="#Arial-BoldMT-6e" transform="translate(1233.59375 0)"/>
     <use xlink:href="#Arial-BoldMT-20" transform="translate(1294.677734 0)"/>
     <use xlink:href="#Arial-BoldMT-53" transform="translate(1322.460938 0)"/>
     <use xlink:href="#Arial-BoldMT-74" transform="translate(1389.160156 0)"/>
     <use xlink:href="#Arial-BoldMT-72" transform="translate(1422.460938 0)"/>
     <use xlink:href="#Arial-BoldMT-61" transform="translate(1461.376953 0)"/>
     <use xlink:href="#Arial-BoldMT-74" transform="translate(1516.992188 0)"/>
     <use xlink:href="#Arial-BoldMT-65" transform="translate(1550.292969 0)"/>
     <use xlink:href="#Arial-BoldMT-67" transform="translate(1605.908203 0)"/>
     <use xlink:href="#Arial-BoldMT-79" transform="translate(1666.992188 0)"/>
     <use xlink:href="#Arial-BoldMT-20" transform="translate(1722.607422 0)"/>
     <use xlink:href="#Arial-BoldMT-43" transform="translate(1750.390625 0)"/>
     <use xlink:href="#Arial-BoldMT-6f" transform="translate(1822.607422 0)"/>
     <use xlink:href="#Arial-BoldMT-6d" transform="translate(1883.691406 0)"/>
     <use xlink:href="#Arial-BoldMT-70" transform="translate(1972.607422 0)"/>
     <use xlink:href="#Arial-BoldMT-61" transform="translate(2033.691406 0)"/>
     <use xlink:href="#Arial-BoldMT-72" transform="translate(2089.306641 0)"/>
     <use xlink:href="#Arial-BoldMT-69" transform="translate(2128.222656 0)"/>
     <use xlink:href="#Arial-BoldMT-73" transform="translate(2156.005859 0)"/>
     <use xlink:href="#Arial-BoldMT-6f" transform="translate(2211.621094 0)"/>
     <use xlink:href="#Arial-BoldMT-6e" transform="translate(2272.705078 0)"/>
    </g>
   </g>
   <g id="legend_1">
    <g id="patch_4">
     <path d="M 639.155188 61.799375 
L 706.177063 61.799375 
Q 708.177063 61.799375 708.177063 59.799375 
L 708.177063 32.391562 
Q 708.177063 30.391562 706.177063 30.391562 
L 639.155188 30.391562 
Q 637.155188 30.391562 637.155188 32.391562 
L 637.155188 59.799375 
Q 637.155188 61.799375 639.155188 61.799375 
z
" style="fill: #4d4d4d; opacity: 0.5; stroke: #4d4d4d; stroke-linejoin: miter"/>
    </g>
    <g id="patch_5">
     <path d="M 637.155188 59.799375 
L 704.177063 59.799375 
Q 706.177063 59.799375 706.177063 57.799375 
L 706.177063 30.391562 
Q 706.177063 28.391562 704.177063 28.391562 
L 637.155188 28.391562 
Q 635.155188 28.391562 635.155188 30.391562 
L 635.155188 57.799375 
Q 635.155188 59.799375 637.155188 59.799375 
z
" style="fill: #ffffff; stroke: #cccccc; stroke-linejoin: miter"/>
    </g>
    <g id="line2d_15">
     <path d="M 639.155188 36.049375 
L 649.155188 36.049375 
L 659.155188 36.049375 
" style="fill: none; stroke: #1f77b4; stroke-width: 2; stroke-linecap: round"/>
     <g>
      <use xlink:href="#m895c6cb0ab" x="649.155188" y="36.049375" style="fill: #1f77b4; stroke: #ffffff; stroke-width: 1.5"/>
     </g>
    </g>
    <g id="text_14">
     <!-- labor -->
     <g style="fill: #262626" transform="translate(667.155188 39.549375) scale(0.1 -0.1)">
      <defs>
       <path id="ArialMT-6c" d="M 409 0 
L 409 4581 
L 972 4581 
L 972 0 
L 409 0 
z
" transform="scale(0.015625)"/>
       <path id="ArialMT-61" d="M 2588 409 
Q 2275 144 1986 34 
Q 1697 -75 1366 -75 
Q 819 -75 525 192 
Q 231 459 231 875 
Q 231 1119 342 1320 
Q 453 1522 633 1644 
Q 813 1766 1038 1828 
Q 1203 1872 1538 1913 
Q 2219 1994 2541 2106 
Q 2544 2222 2544 2253 
Q 2544 2597 2384 2738 
Q 2169 2928 1744 2928 
Q 1347 2928 1158 2789 
Q 969 2650 878 2297 
L 328 2372 
Q 403 2725 575 2942 
Q 747 3159 1072 3276 
Q 1397 3394 1825 3394 
Q 2250 3394 2515 3294 
Q 2781 3194 2906 3042 
Q 3031 2891 3081 2659 
Q 3109 2516 3109 2141 
L 3109 1391 
Q 3109 606 3145 398 
Q 3181 191 3288 0 
L 2700 0 
Q 2613 175 2588 409 
z
M 2541 1666 
Q 2234 1541 1622 1453 
Q 1275 1403 1131 1340 
Q 988 1278 909 1158 
Q 831 1038 831 891 
Q 831 666 1001 516 
Q 1172 366 1500 366 
Q 1825 366 2078 508 
Q 2331 650 2450 897 
Q 2541 1088 2541 1459 
L 2541 1666 
z
" transform="scale(0.015625)"/>
       <path id="ArialMT-62" d="M 941 0 
L 419 0 
L 419 4581 
L 981 4581 
L 981 2947 
Q 1338 3394 1891 3394 
Q 2197 3394 2470 3270 
Q 2744 3147 2920 2923 
Q 3097 2700 3197 2384 
Q 3297 2069 3297 1709 
Q 3297 856 2875 390 
Q 2453 -75 1863 -75 
Q 1275 -75 941 416 
L 941 0 
z
M 934 1684 
Q 934 1088 1097 822 
Q 1363 388 1816 388 
Q 2184 388 2453 708 
Q 2722 1028 2722 1663 
Q 2722 2313 2464 2622 
Q 2206 2931 1841 2931 
Q 1472 2931 1203 2611 
Q 934 2291 934 1684 
z
" transform="scale(0.015625)"/>
       <path id="ArialMT-6f" d="M 213 1659 
Q 213 2581 725 3025 
Q 1153 3394 1769 3394 
Q 2453 3394 2887 2945 
Q 3322 2497 3322 1706 
Q 3322 1066 3130 698 
Q 2938 331 2570 128 
Q 2203 -75 1769 -75 
Q 1072 -75 642 372 
Q 213 819 213 1659 
z
M 791 1659 
Q 791 1022 1069 705 
Q 1347 388 1769 388 
Q 2188 388 2466 706 
Q 2744 1025 2744 1678 
Q 2744 2294 2464 2611 
Q 2184 2928 1769 2928 
Q 1347 2928 1069 2612 
Q 791 2297 791 1659 
z
" transform="scale(0.015625)"/>
       <path id="ArialMT-72" d="M 416 0 
L 416 3319 
L 922 3319 
L 922 2816 
Q 1116 3169 1280 3281 
Q 1444 3394 1641 3394 
Q 1925 3394 2219 3213 
L 2025 2691 
Q 1819 2813 1613 2813 
Q 1428 2813 1281 2702 
Q 1134 2591 1072 2394 
Q 978 2094 978 1738 
L 978 0 
L 416 0 
z
" transform="scale(0.015625)"/>
      </defs>
      <use xlink:href="#ArialMT-6c"/>
      <use xlink:href="#ArialMT-61" transform="translate(22.216797 0)"/>
      <use xlink:href="#ArialMT-62" transform="translate(77.832031 0)"/>
      <use xlink:href="#ArialMT-6f" transform="translate(133.447266 0)"/>
      <use xlink:href="#ArialMT-72" transform="translate(189.0625 0)"/>
     </g>
    </g>
    <g id="line2d_16">
     <path d="M 639.155188 50.194687 
L 649.155188 50.194687 
L 659.155188 50.194687 
" style="fill: none; stroke: #17becf; stroke-width: 2; stroke-linecap: round"/>
     <g>
      <use xlink:href="#m00ce2e35c1" x="649.155188" y="50.194687" style="fill: #17becf; stroke: #ffffff; stroke-width: 1.5; stroke-linejoin: miter"/>
     </g>
    </g>
    <g id="text_15">
     <!-- quantity -->
     <g style="fill: #262626" transform="translate(667.155188 53.694687) scale(0.1 -0.1)">
      <defs>
       <path id="ArialMT-71" d="M 2538 -1272 
L 2538 353 
Q 2406 169 2170 47 
Q 1934 -75 1669 -75 
Q 1078 -75 651 397 
Q 225 869 225 1691 
Q 225 2191 398 2587 
Q 572 2984 901 3189 
Q 1231 3394 1625 3394 
Q 2241 3394 2594 2875 
L 2594 3319 
L 3100 3319 
L 3100 -1272 
L 2538 -1272 
z
M 803 1669 
Q 803 1028 1072 708 
Q 1341 388 1716 388 
Q 2075 388 2334 692 
Q 2594 997 2594 1619 
Q 2594 2281 2320 2615 
Q 2047 2950 1678 2950 
Q 1313 2950 1058 2639 
Q 803 2328 803 1669 
z
" transform="scale(0.015625)"/>
       <path id="ArialMT-75" d="M 2597 0 
L 2597 488 
Q 2209 -75 1544 -75 
Q 1250 -75 995 37 
Q 741 150 617 320 
Q 494 491 444 738 
Q 409 903 409 1263 
L 409 3319 
L 972 3319 
L 972 1478 
Q 972 1038 1006 884 
Q 1059 663 1231 536 
Q 1403 409 1656 409 
Q 1909 409 2131 539 
Q 2353 669 2445 892 
Q 2538 1116 2538 1541 
L 2538 3319 
L 3100 3319 
L 3100 0 
L 2597 0 
z
" transform="scale(0.015625)"/>
       <path id="ArialMT-6e" d="M 422 0 
L 422 3319 
L 928 3319 
L 928 2847 
Q 1294 3394 1984 3394 
Q 2284 3394 2536 3286 
Q 2788 3178 2913 3003 
Q 3038 2828 3088 2588 
Q 3119 2431 3119 2041 
L 3119 0 
L 2556 0 
L 2556 2019 
Q 2556 2363 2490 2533 
Q 2425 2703 2258 2804 
Q 2091 2906 1866 2906 
Q 1506 2906 1245 2678 
Q 984 2450 984 1813 
L 984 0 
L 422 0 
z
" transform="scale(0.015625)"/>
       <path id="ArialMT-74" d="M 1650 503 
L 1731 6 
Q 1494 -44 1306 -44 
Q 1000 -44 831 53 
Q 663 150 594 308 
Q 525 466 525 972 
L 525 2881 
L 113 2881 
L 113 3319 
L 525 3319 
L 525 4141 
L 1084 4478 
L 1084 3319 
L 1650 3319 
L 1650 2881 
L 1084 2881 
L 1084 941 
Q 1084 700 1114 631 
Q 1144 563 1211 522 
Q 1278 481 1403 481 
Q 1497 481 1650 503 
z
" transform="scale(0.015625)"/>
       <path id="ArialMT-69" d="M 425 3934 
L 425 4581 
L 988 4581 
L 988 3934 
L 425 3934 
z
M 425 0 
L 425 3319 
L 988 3319 
L 988 0 
L 425 0 
z
" transform="scale(0.015625)"/>
       <path id="ArialMT-79" d="M 397 -1278 
L 334 -750 
Q 519 -800 656 -800 
Q 844 -800 956 -737 
Q 1069 -675 1141 -563 
Q 1194 -478 1313 -144 
Q 1328 -97 1363 -6 
L 103 3319 
L 709 3319 
L 1400 1397 
Q 1534 1031 1641 628 
Q 1738 1016 1872 1384 
L 2581 3319 
L 3144 3319 
L 1881 -56 
Q 1678 -603 1566 -809 
Q 1416 -1088 1222 -1217 
Q 1028 -1347 759 -1347 
Q 597 -1347 397 -1278 
z
" transform="scale(0.015625)"/>
      </defs>
      <use xlink:href="#ArialMT-71"/>
      <use xlink:href="#ArialMT-75" transform="translate(55.615234 0)"/>
      <use xlink:href="#ArialMT-61" transform="translate(111.230469 0)"/>
      <use xlink:href="#ArialMT-6e" transform="translate(166.845703 0)"/>
      <use xlink:href="#ArialMT-74" transform="translate(222.460938 0)"/>
      <use xlink:href="#ArialMT-69" transform="translate(250.244141 0)"/>
      <use xlink:href="#ArialMT-74" transform="translate(272.460938 0)"/>
      <use xlink:href="#ArialMT-79" transform="translate(300.244141 0)"/>
     </g>
    </g>
   </g>
  </g>
  <g id="text_16">
   <g id="patch_6">
    <path d="M 257.724375 713.627563 
L 438.33375 713.627563 
Q 446.33375 713.627563 446.33375 705.627563 
L 446.33375 615.67475 
Q 446.33375 607.67475 438.33375 607.67475 
L 257.724375 607.67475 
Q 249.724375 607.67475 249.724375 615.67475 
L 249.724375 705.627563 
Q 249.724375 713.627563 257.724375 713.627563 
z
" style="fill: #ffffff; stroke: #808080; stroke-linejoin: miter"/>
   </g>
   <!-- Indicator Descriptions -->
   <g style="fill: #262626" transform="translate(281.805625 623.048188) scale(0.1 -0.1)">
    <defs>
     <path id="DejaVuSansMono-49" d="M 628 4666 
L 3219 4666 
L 3219 4134 
L 2241 4134 
L 2241 531 
L 3219 531 
L 3219 0 
L 628 0 
L 628 531 
L 1606 531 
L 1606 4134 
L 628 4134 
L 628 4666 
z
" transform="scale(0.015625)"/>
     <path id="DejaVuSansMono-6e" d="M 3284 2169 
L 3284 0 
L 2706 0 
L 2706 2169 
Q 2706 2641 2540 2862 
Q 2375 3084 2022 3084 
Q 1619 3084 1401 2798 
Q 1184 2513 1184 1978 
L 1184 0 
L 609 0 
L 609 3500 
L 1184 3500 
L 1184 2975 
Q 1338 3275 1600 3429 
Q 1863 3584 2222 3584 
Q 2756 3584 3020 3232 
Q 3284 2881 3284 2169 
z
" transform="scale(0.015625)"/>
     <path id="DejaVuSansMono-64" d="M 2681 3053 
L 2681 4863 
L 3256 4863 
L 3256 0 
L 2681 0 
L 2681 441 
Q 2538 181 2298 45 
Q 2059 -91 1747 -91 
Q 1113 -91 748 401 
Q 384 894 384 1759 
Q 384 2613 750 3098 
Q 1116 3584 1747 3584 
Q 2063 3584 2303 3448 
Q 2544 3313 2681 3053 
z
M 991 1747 
Q 991 1078 1203 737 
Q 1416 397 1831 397 
Q 2247 397 2464 740 
Q 2681 1084 2681 1747 
Q 2681 2413 2464 2755 
Q 2247 3097 1831 3097 
Q 1416 3097 1203 2756 
Q 991 2416 991 1747 
z
" transform="scale(0.015625)"/>
     <path id="DejaVuSansMono-69" d="M 800 3500 
L 2272 3500 
L 2272 447 
L 3413 447 
L 3413 0 
L 556 0 
L 556 447 
L 1697 447 
L 1697 3053 
L 800 3053 
L 800 3500 
z
M 1697 4863 
L 2272 4863 
L 2272 4134 
L 1697 4134 
L 1697 4863 
z
" transform="scale(0.015625)"/>
     <path id="DejaVuSansMono-63" d="M 3316 178 
Q 3084 44 2839 -23 
Q 2594 -91 2338 -91 
Q 1525 -91 1067 396 
Q 609 884 609 1747 
Q 609 2609 1067 3096 
Q 1525 3584 2338 3584 
Q 2591 3584 2831 3518 
Q 3072 3453 3316 3316 
L 3316 2713 
Q 3088 2916 2858 3006 
Q 2628 3097 2338 3097 
Q 1797 3097 1506 2747 
Q 1216 2397 1216 1747 
Q 1216 1100 1508 748 
Q 1800 397 2338 397 
Q 2638 397 2875 489 
Q 3113 581 3316 775 
L 3316 178 
z
" transform="scale(0.015625)"/>
     <path id="DejaVuSansMono-61" d="M 2194 1759 
L 2003 1759 
Q 1500 1759 1245 1582 
Q 991 1406 991 1056 
Q 991 741 1181 566 
Q 1372 391 1709 391 
Q 2184 391 2456 720 
Q 2728 1050 2731 1631 
L 2731 1759 
L 2194 1759 
z
M 3309 1997 
L 3309 0 
L 2731 0 
L 2731 519 
Q 2547 206 2267 57 
Q 1988 -91 1588 -91 
Q 1053 -91 734 211 
Q 416 513 416 1019 
Q 416 1603 808 1906 
Q 1200 2209 1959 2209 
L 2731 2209 
L 2731 2300 
Q 2728 2719 2518 2908 
Q 2309 3097 1850 3097 
Q 1556 3097 1256 3012 
Q 956 2928 672 2766 
L 672 3341 
Q 991 3463 1283 3523 
Q 1575 3584 1850 3584 
Q 2284 3584 2592 3456 
Q 2900 3328 3091 3072 
Q 3209 2916 3259 2686 
Q 3309 2456 3309 1997 
z
" transform="scale(0.015625)"/>
     <path id="DejaVuSansMono-74" d="M 1919 4494 
L 1919 3500 
L 3225 3500 
L 3225 3053 
L 1919 3053 
L 1919 1153 
Q 1919 766 2066 612 
Q 2213 459 2578 459 
L 3225 459 
L 3225 0 
L 2522 0 
Q 1875 0 1609 259 
Q 1344 519 1344 1153 
L 1344 3053 
L 409 3053 
L 409 3500 
L 1344 3500 
L 1344 4494 
L 1919 4494 
z
" transform="scale(0.015625)"/>
     <path id="DejaVuSansMono-6f" d="M 1925 3097 
Q 1488 3097 1263 2756 
Q 1038 2416 1038 1747 
Q 1038 1081 1263 739 
Q 1488 397 1925 397 
Q 2366 397 2591 739 
Q 2816 1081 2816 1747 
Q 2816 2416 2591 2756 
Q 2366 3097 1925 3097 
z
M 1925 3584 
Q 2653 3584 3039 3112 
Q 3425 2641 3425 1747 
Q 3425 850 3040 379 
Q 2656 -91 1925 -91 
Q 1197 -91 812 379 
Q 428 850 428 1747 
Q 428 2641 812 3112 
Q 1197 3584 1925 3584 
z
" transform="scale(0.015625)"/>
     <path id="DejaVuSansMono-72" d="M 3609 2778 
Q 3425 2922 3234 2987 
Q 3044 3053 2816 3053 
Q 2278 3053 1993 2715 
Q 1709 2378 1709 1741 
L 1709 0 
L 1131 0 
L 1131 3500 
L 1709 3500 
L 1709 2816 
Q 1853 3188 2151 3386 
Q 2450 3584 2859 3584 
Q 3072 3584 3256 3531 
Q 3441 3478 3609 3366 
L 3609 2778 
z
" transform="scale(0.015625)"/>
     <path id="DejaVuSansMono-20" transform="scale(0.015625)"/>
     <path id="DejaVuSansMono-44" d="M 1363 519 
Q 2159 519 2475 911 
Q 2791 1303 2791 2328 
Q 2791 3363 2477 3755 
Q 2163 4147 1363 4147 
L 1063 4147 
L 1063 519 
L 1363 519 
z
M 1375 4666 
Q 2444 4666 2950 4097 
Q 3456 3528 3456 2328 
Q 3456 1134 2950 567 
Q 2444 0 1375 0 
L 428 0 
L 428 4666 
L 1375 4666 
z
" transform="scale(0.015625)"/>
     <path id="DejaVuSansMono-65" d="M 3475 1894 
L 3475 1613 
L 984 1613 
L 984 1594 
Q 984 1022 1282 709 
Q 1581 397 2125 397 
Q 2400 397 2700 484 
Q 3000 572 3341 750 
L 3341 178 
Q 3013 44 2708 -23 
Q 2403 -91 2119 -91 
Q 1303 -91 843 398 
Q 384 888 384 1747 
Q 384 2584 834 3084 
Q 1284 3584 2034 3584 
Q 2703 3584 3089 3131 
Q 3475 2678 3475 1894 
z
M 2900 2063 
Q 2888 2569 2661 2833 
Q 2434 3097 2009 3097 
Q 1594 3097 1325 2822 
Q 1056 2547 1006 2059 
L 2900 2063 
z
" transform="scale(0.015625)"/>
     <path id="DejaVuSansMono-73" d="M 3041 3378 
L 3041 2816 
Q 2794 2959 2544 3031 
Q 2294 3103 2034 3103 
Q 1644 3103 1451 2976 
Q 1259 2850 1259 2591 
Q 1259 2356 1403 2240 
Q 1547 2125 2119 2016 
L 2350 1972 
Q 2778 1891 2998 1647 
Q 3219 1403 3219 1013 
Q 3219 494 2850 201 
Q 2481 -91 1825 -91 
Q 1566 -91 1281 -36 
Q 997 19 666 128 
L 666 722 
Q 988 556 1281 473 
Q 1575 391 1838 391 
Q 2219 391 2428 545 
Q 2638 700 2638 978 
Q 2638 1378 1872 1531 
L 1847 1538 
L 1631 1581 
Q 1134 1678 906 1908 
Q 678 2138 678 2534 
Q 678 3038 1018 3311 
Q 1359 3584 1991 3584 
Q 2272 3584 2531 3532 
Q 2791 3481 3041 3378 
z
" transform="scale(0.015625)"/>
     <path id="DejaVuSansMono-70" d="M 1172 441 
L 1172 -1331 
L 594 -1331 
L 594 3500 
L 1172 3500 
L 1172 3053 
Q 1316 3313 1555 3448 
Q 1794 3584 2106 3584 
Q 2741 3584 3102 3093 
Q 3463 2603 3463 1734 
Q 3463 881 3100 395 
Q 2738 -91 2106 -91 
Q 1788 -91 1548 45 
Q 1309 181 1172 441 
z
M 2859 1747 
Q 2859 2416 2648 2756 
Q 2438 3097 2022 3097 
Q 1603 3097 1387 2755 
Q 1172 2413 1172 1747 
Q 1172 1084 1387 740 
Q 1603 397 2022 397 
Q 2438 397 2648 737 
Q 2859 1078 2859 1747 
z
" transform="scale(0.015625)"/>
    </defs>
    <use xlink:href="#DejaVuSansMono-49"/>
    <use xlink:href="#DejaVuSansMono-6e" transform="translate(60.205078 0)"/>
    <use xlink:href="#DejaVuSansMono-64" transform="translate(120.410156 0)"/>
    <use xlink:href="#DejaVuSansMono-69" transform="translate(180.615234 0)"/>
    <use xlink:href="#DejaVuSansMono-63" transform="translate(240.820312 0)"/>
    <use xlink:href="#DejaVuSansMono-61" transform="translate(301.025391 0)"/>
    <use xlink:href="#DejaVuSansMono-74" transform="translate(361.230469 0)"/>
    <use xlink:href="#DejaVuSansMono-6f" transform="translate(421.435547 0)"/>
    <use xlink:href="#DejaVuSansMono-72" transform="translate(481.640625 0)"/>
    <use xlink:href="#DejaVuSansMono-20" transform="translate(541.845703 0)"/>
    <use xlink:href="#DejaVuSansMono-44" transform="translate(602.050781 0)"/>
    <use xlink:href="#DejaVuSansMono-65" transform="translate(662.255859 0)"/>
    <use xlink:href="#DejaVuSansMono-73" transform="translate(722.460938 0)"/>
    <use xlink:href="#DejaVuSansMono-63" transform="translate(782.666016 0)"/>
    <use xlink:href="#DejaVuSansMono-72" transform="translate(842.871094 0)"/>
    <use xlink:href="#DejaVuSansMono-69" transform="translate(903.076172 0)"/>
    <use xlink:href="#DejaVuSansMono-70" transform="translate(963.28125 0)"/>
    <use xlink:href="#DejaVuSansMono-74" transform="translate(1023.486328 0)"/>
    <use xlink:href="#DejaVuSansMono-69" transform="translate(1083.691406 0)"/>
    <use xlink:href="#DejaVuSansMono-6f" transform="translate(1143.896484 0)"/>
    <use xlink:href="#DejaVuSansMono-6e" transform="translate(1204.101562 0)"/>
    <use xlink:href="#DejaVuSansMono-73" transform="translate(1264.306641 0)"/>
   </g>
   <!--  -->
   <g style="fill: #262626" transform="translate(281.805625 634.30975) scale(0.1 -0.1)">
    <defs>
     <path id="DejaVuSansMono-2500" d="M -63 1931 
L -63 2469 
L 3916 2469 
L 3916 1931 
L -63 1931 
z
" transform="scale(0.015625)"/>
    </defs>
    <use xlink:href="#DejaVuSansMono-2500"/>
    <use xlink:href="#DejaVuSansMono-2500" transform="translate(60.205078 0)"/>
    <use xlink:href="#DejaVuSansMono-2500" transform="translate(120.410156 0)"/>
    <use xlink:href="#DejaVuSansMono-2500" transform="translate(180.615234 0)"/>
    <use xlink:href="#DejaVuSansMono-2500" transform="translate(240.820312 0)"/>
    <use xlink:href="#DejaVuSansMono-2500" transform="translate(301.025391 0)"/>
    <use xlink:href="#DejaVuSansMono-2500" transform="translate(361.230469 0)"/>
    <use xlink:href="#DejaVuSansMono-2500" transform="translate(421.435547 0)"/>
    <use xlink:href="#DejaVuSansMono-2500" transform="translate(481.640625 0)"/>
    <use xlink:href="#DejaVuSansMono-2500" transform="translate(541.845703 0)"/>
    <use xlink:href="#DejaVuSansMono-2500" transform="translate(602.050781 0)"/>
    <use xlink:href="#DejaVuSansMono-2500" transform="translate(662.255859 0)"/>
    <use xlink:href="#DejaVuSansMono-2500" transform="translate(722.460938 0)"/>
    <use xlink:href="#DejaVuSansMono-2500" transform="translate(782.666016 0)"/>
    <use xlink:href="#DejaVuSansMono-2500" transform="translate(842.871094 0)"/>
    <use xlink:href="#DejaVuSansMono-2500" transform="translate(903.076172 0)"/>
    <use xlink:href="#DejaVuSansMono-2500" transform="translate(963.28125 0)"/>
    <use xlink:href="#DejaVuSansMono-2500" transform="translate(1023.486328 0)"/>
    <use xlink:href="#DejaVuSansMono-2500" transform="translate(1083.691406 0)"/>
    <use xlink:href="#DejaVuSansMono-2500" transform="translate(1143.896484 0)"/>
    <use xlink:href="#DejaVuSansMono-2500" transform="translate(1204.101562 0)"/>
    <use xlink:href="#DejaVuSansMono-2500" transform="translate(1264.306641 0)"/>
   </g>
   <!-- IND01: electricity_consumption -->
   <g style="fill: #262626" transform="translate(257.724375 645.571313) scale(0.1 -0.1)">
    <defs>
     <path id="DejaVuSansMono-4e" d="M 434 4666 
L 1234 4666 
L 2809 825 
L 2809 4666 
L 3419 4666 
L 3419 0 
L 2619 0 
L 1044 3841 
L 1044 0 
L 434 0 
L 434 4666 
z
" transform="scale(0.015625)"/>
     <path id="DejaVuSansMono-30" d="M 1509 2344 
Q 1509 2516 1629 2641 
Q 1750 2766 1919 2766 
Q 2094 2766 2219 2641 
Q 2344 2516 2344 2344 
Q 2344 2169 2220 2047 
Q 2097 1925 1919 1925 
Q 1744 1925 1626 2044 
Q 1509 2163 1509 2344 
z
M 1925 4250 
Q 1484 4250 1267 3775 
Q 1050 3300 1050 2328 
Q 1050 1359 1267 884 
Q 1484 409 1925 409 
Q 2369 409 2586 884 
Q 2803 1359 2803 2328 
Q 2803 3300 2586 3775 
Q 2369 4250 1925 4250 
z
M 1925 4750 
Q 2672 4750 3055 4137 
Q 3438 3525 3438 2328 
Q 3438 1134 3055 521 
Q 2672 -91 1925 -91 
Q 1178 -91 797 521 
Q 416 1134 416 2328 
Q 416 3525 797 4137 
Q 1178 4750 1925 4750 
z
" transform="scale(0.015625)"/>
     <path id="DejaVuSansMono-31" d="M 844 531 
L 1825 531 
L 1825 4097 
L 769 3859 
L 769 4434 
L 1819 4666 
L 2450 4666 
L 2450 531 
L 3419 531 
L 3419 0 
L 844 0 
L 844 531 
z
" transform="scale(0.015625)"/>
     <path id="DejaVuSansMono-3a" d="M 1528 3322 
L 2316 3322 
L 2316 2375 
L 1528 2375 
L 1528 3322 
z
M 1528 953 
L 2316 953 
L 2316 0 
L 1528 0 
L 1528 953 
z
" transform="scale(0.015625)"/>
     <path id="DejaVuSansMono-6c" d="M 1997 1269 
Q 1997 881 2139 684 
Q 2281 488 2559 488 
L 3231 488 
L 3231 0 
L 2503 0 
Q 1988 0 1705 331 
Q 1422 663 1422 1269 
L 1422 4447 
L 500 4447 
L 500 4897 
L 1997 4897 
L 1997 1269 
z
" transform="scale(0.015625)"/>
     <path id="DejaVuSansMono-79" d="M 2681 1125 
Q 2538 759 2316 163 
Q 2006 -663 1900 -844 
Q 1756 -1088 1540 -1209 
Q 1325 -1331 1038 -1331 
L 575 -1331 
L 575 -850 
L 916 -850 
Q 1169 -850 1312 -703 
Q 1456 -556 1678 56 
L 325 3500 
L 934 3500 
L 1972 763 
L 2994 3500 
L 3603 3500 
L 2681 1125 
z
" transform="scale(0.015625)"/>
     <path id="DejaVuSansMono-5f" d="M 3853 -1259 
L 3853 -1509 
L 0 -1509 
L 0 -1259 
L 3853 -1259 
z
" transform="scale(0.015625)"/>
     <path id="DejaVuSansMono-75" d="M 609 1325 
L 609 3494 
L 1184 3494 
L 1184 1325 
Q 1184 853 1351 631 
Q 1519 409 1869 409 
Q 2275 409 2490 695 
Q 2706 981 2706 1516 
L 2706 3494 
L 3284 3494 
L 3284 0 
L 2706 0 
L 2706 525 
Q 2553 222 2289 65 
Q 2025 -91 1672 -91 
Q 1134 -91 871 261 
Q 609 613 609 1325 
z
" transform="scale(0.015625)"/>
     <path id="DejaVuSansMono-6d" d="M 2113 3144 
Q 2219 3369 2383 3476 
Q 2547 3584 2778 3584 
Q 3200 3584 3373 3257 
Q 3547 2931 3547 2028 
L 3547 0 
L 3022 0 
L 3022 2003 
Q 3022 2744 2939 2923 
Q 2856 3103 2638 3103 
Q 2388 3103 2295 2911 
Q 2203 2719 2203 2003 
L 2203 0 
L 1678 0 
L 1678 2003 
Q 1678 2753 1589 2928 
Q 1500 3103 1269 3103 
Q 1041 3103 952 2911 
Q 863 2719 863 2003 
L 863 0 
L 341 0 
L 341 3500 
L 863 3500 
L 863 3200 
Q 966 3388 1120 3486 
Q 1275 3584 1472 3584 
Q 1709 3584 1867 3475 
Q 2025 3366 2113 3144 
z
" transform="scale(0.015625)"/>
    </defs>
    <use xlink:href="#DejaVuSansMono-49"/>
    <use xlink:href="#DejaVuSansMono-4e" transform="translate(60.205078 0)"/>
    <use xlink:href="#DejaVuSansMono-44" transform="translate(120.410156 0)"/>
    <use xlink:href="#DejaVuSansMono-30" transform="translate(180.615234 0)"/>
    <use xlink:href="#DejaVuSansMono-31" transform="translate(240.820312 0)"/>
    <use xlink:href="#DejaVuSansMono-3a" transform="translate(301.025391 0)"/>
    <use xlink:href="#DejaVuSansMono-20" transform="translate(361.230469 0)"/>
    <use xlink:href="#DejaVuSansMono-65" transform="translate(421.435547 0)"/>
    <use xlink:href="#DejaVuSansMono-6c" transform="translate(481.640625 0)"/>
    <use xlink:href="#DejaVuSansMono-65" transform="translate(541.845703 0)"/>
    <use xlink:href="#DejaVuSansMono-63" transform="translate(602.050781 0)"/>
    <use xlink:href="#DejaVuSansMono-74" transform="translate(662.255859 0)"/>
    <use xlink:href="#DejaVuSansMono-72" transform="translate(722.460938 0)"/>
    <use xlink:href="#DejaVuSansMono-69" transform="translate(782.666016 0)"/>
    <use xlink:href="#DejaVuSansMono-63" transform="translate(842.871094 0)"/>
    <use xlink:href="#DejaVuSansMono-69" transform="translate(903.076172 0)"/>
    <use xlink:href="#DejaVuSansMono-74" transform="translate(963.28125 0)"/>
    <use xlink:href="#DejaVuSansMono-79" transform="translate(1023.486328 0)"/>
    <use xlink:href="#DejaVuSansMono-5f" transform="translate(1083.691406 0)"/>
    <use xlink:href="#DejaVuSansMono-63" transform="translate(1143.896484 0)"/>
    <use xlink:href="#DejaVuSansMono-6f" transform="translate(1204.101562 0)"/>
    <use xlink:href="#DejaVuSansMono-6e" transform="translate(1264.306641 0)"/>
    <use xlink:href="#DejaVuSansMono-73" transform="translate(1324.511719 0)"/>
    <use xlink:href="#DejaVuSansMono-75" transform="translate(1384.716797 0)"/>
    <use xlink:href="#DejaVuSansMono-6d" transform="translate(1444.921875 0)"/>
    <use xlink:href="#DejaVuSansMono-70" transform="translate(1505.126953 0)"/>
    <use xlink:href="#DejaVuSansMono-74" transform="translate(1565.332031 0)"/>
    <use xlink:href="#DejaVuSansMono-69" transform="translate(1625.537109 0)"/>
    <use xlink:href="#DejaVuSansMono-6f" transform="translate(1685.742188 0)"/>
    <use xlink:href="#DejaVuSansMono-6e" transform="translate(1745.947266 0)"/>
   </g>
   <!-- IND02: utilization_rate -->
   <g style="fill: #262626" transform="translate(278.795469 657.111) scale(0.1 -0.1)">
    <defs>
     <path id="DejaVuSansMono-32" d="M 1166 531 
L 3309 531 
L 3309 0 
L 475 0 
L 475 531 
Q 1059 1147 1496 1619 
Q 1934 2091 2100 2284 
Q 2413 2666 2522 2902 
Q 2631 3138 2631 3384 
Q 2631 3775 2401 3997 
Q 2172 4219 1772 4219 
Q 1488 4219 1175 4116 
Q 863 4013 513 3803 
L 513 4441 
Q 834 4594 1145 4672 
Q 1456 4750 1759 4750 
Q 2444 4750 2861 4386 
Q 3278 4022 3278 3431 
Q 3278 3131 3139 2831 
Q 3000 2531 2688 2169 
Q 2513 1966 2180 1606 
Q 1847 1247 1166 531 
z
" transform="scale(0.015625)"/>
     <path id="DejaVuSansMono-7a" d="M 709 3506 
L 3250 3506 
L 3250 2981 
L 1241 469 
L 3250 469 
L 3250 0 
L 634 0 
L 634 531 
L 2644 3047 
L 709 3047 
L 709 3506 
z
" transform="scale(0.015625)"/>
    </defs>
    <use xlink:href="#DejaVuSansMono-49"/>
    <use xlink:href="#DejaVuSansMono-4e" transform="translate(60.205078 0)"/>
    <use xlink:href="#DejaVuSansMono-44" transform="translate(120.410156 0)"/>
    <use xlink:href="#DejaVuSansMono-30" transform="translate(180.615234 0)"/>
    <use xlink:href="#DejaVuSansMono-32" transform="translate(240.820312 0)"/>
    <use xlink:href="#DejaVuSansMono-3a" transform="translate(301.025391 0)"/>
    <use xlink:href="#DejaVuSansMono-20" transform="translate(361.230469 0)"/>
    <use xlink:href="#DejaVuSansMono-75" transform="translate(421.435547 0)"/>
    <use xlink:href="#DejaVuSansMono-74" transform="translate(481.640625 0)"/>
    <use xlink:href="#DejaVuSansMono-69" transform="translate(541.845703 0)"/>
    <use xlink:href="#DejaVuSansMono-6c" transform="translate(602.050781 0)"/>
    <use xlink:href="#DejaVuSansMono-69" transform="translate(662.255859 0)"/>
    <use xlink:href="#DejaVuSansMono-7a" transform="translate(722.460938 0)"/>
    <use xlink:href="#DejaVuSansMono-61" transform="translate(782.666016 0)"/>
    <use xlink:href="#DejaVuSansMono-74" transform="translate(842.871094 0)"/>
    <use xlink:href="#DejaVuSansMono-69" transform="translate(903.076172 0)"/>
    <use xlink:href="#DejaVuSansMono-6f" transform="translate(963.28125 0)"/>
    <use xlink:href="#DejaVuSansMono-6e" transform="translate(1023.486328 0)"/>
    <use xlink:href="#DejaVuSansMono-5f" transform="translate(1083.691406 0)"/>
    <use xlink:href="#DejaVuSansMono-72" transform="translate(1143.896484 0)"/>
    <use xlink:href="#DejaVuSansMono-61" transform="translate(1204.101562 0)"/>
    <use xlink:href="#DejaVuSansMono-74" transform="translate(1264.306641 0)"/>
    <use xlink:href="#DejaVuSansMono-65" transform="translate(1324.511719 0)"/>
   </g>
   <!-- IND03: labor_cost -->
   <g style="fill: #262626" transform="translate(296.856406 668.650688) scale(0.1 -0.1)">
    <defs>
     <path id="DejaVuSansMono-33" d="M 2425 2497 
Q 2884 2375 3128 2064 
Q 3372 1753 3372 1288 
Q 3372 644 2939 276 
Q 2506 -91 1741 -91 
Q 1419 -91 1084 -31 
Q 750 28 428 141 
L 428 769 
Q 747 603 1056 522 
Q 1366 441 1672 441 
Q 2191 441 2469 675 
Q 2747 909 2747 1350 
Q 2747 1756 2469 1995 
Q 2191 2234 1716 2234 
L 1234 2234 
L 1234 2753 
L 1716 2753 
Q 2150 2753 2394 2943 
Q 2638 3134 2638 3475 
Q 2638 3834 2411 4026 
Q 2184 4219 1766 4219 
Q 1488 4219 1191 4156 
Q 894 4094 569 3969 
L 569 4550 
Q 947 4650 1242 4700 
Q 1538 4750 1766 4750 
Q 2447 4750 2855 4408 
Q 3263 4066 3263 3500 
Q 3263 3116 3048 2859 
Q 2834 2603 2425 2497 
z
" transform="scale(0.015625)"/>
     <path id="DejaVuSansMono-62" d="M 2869 1747 
Q 2869 2416 2656 2756 
Q 2444 3097 2028 3097 
Q 1609 3097 1393 2755 
Q 1178 2413 1178 1747 
Q 1178 1084 1393 740 
Q 1609 397 2028 397 
Q 2444 397 2656 737 
Q 2869 1078 2869 1747 
z
M 1178 3053 
Q 1316 3309 1558 3446 
Q 1800 3584 2119 3584 
Q 2750 3584 3112 3098 
Q 3475 2613 3475 1759 
Q 3475 894 3111 401 
Q 2747 -91 2113 -91 
Q 1800 -91 1561 45 
Q 1322 181 1178 441 
L 1178 0 
L 603 0 
L 603 4863 
L 1178 4863 
L 1178 3053 
z
" transform="scale(0.015625)"/>
    </defs>
    <use xlink:href="#DejaVuSansMono-49"/>
    <use xlink:href="#DejaVuSansMono-4e" transform="translate(60.205078 0)"/>
    <use xlink:href="#DejaVuSansMono-44" transform="translate(120.410156 0)"/>
    <use xlink:href="#DejaVuSansMono-30" transform="translate(180.615234 0)"/>
    <use xlink:href="#DejaVuSansMono-33" transform="translate(240.820312 0)"/>
    <use xlink:href="#DejaVuSansMono-3a" transform="translate(301.025391 0)"/>
    <use xlink:href="#DejaVuSansMono-20" transform="translate(361.230469 0)"/>
    <use xlink:href="#DejaVuSansMono-6c" transform="translate(421.435547 0)"/>
    <use xlink:href="#DejaVuSansMono-61" transform="translate(481.640625 0)"/>
    <use xlink:href="#DejaVuSansMono-62" transform="translate(541.845703 0)"/>
    <use xlink:href="#DejaVuSansMono-6f" transform="translate(602.050781 0)"/>
    <use xlink:href="#DejaVuSansMono-72" transform="translate(662.255859 0)"/>
    <use xlink:href="#DejaVuSansMono-5f" transform="translate(722.460938 0)"/>
    <use xlink:href="#DejaVuSansMono-63" transform="translate(782.666016 0)"/>
    <use xlink:href="#DejaVuSansMono-6f" transform="translate(842.871094 0)"/>
    <use xlink:href="#DejaVuSansMono-73" transform="translate(903.076172 0)"/>
    <use xlink:href="#DejaVuSansMono-74" transform="translate(963.28125 0)"/>
   </g>
   <!-- IND04: lead_time -->
   <g style="fill: #262626" transform="translate(299.866562 680.190375) scale(0.1 -0.1)">
    <defs>
     <path id="DejaVuSansMono-34" d="M 2297 4091 
L 825 1625 
L 2297 1625 
L 2297 4091 
z
M 2194 4666 
L 2925 4666 
L 2925 1625 
L 3547 1625 
L 3547 1113 
L 2925 1113 
L 2925 0 
L 2297 0 
L 2297 1113 
L 319 1113 
L 319 1709 
L 2194 4666 
z
" transform="scale(0.015625)"/>
    </defs>
    <use xlink:href="#DejaVuSansMono-49"/>
    <use xlink:href="#DejaVuSansMono-4e" transform="translate(60.205078 0)"/>
    <use xlink:href="#DejaVuSansMono-44" transform="translate(120.410156 0)"/>
    <use xlink:href="#DejaVuSansMono-30" transform="translate(180.615234 0)"/>
    <use xlink:href="#DejaVuSansMono-34" transform="translate(240.820312 0)"/>
    <use xlink:href="#DejaVuSansMono-3a" transform="translate(301.025391 0)"/>
    <use xlink:href="#DejaVuSansMono-20" transform="translate(361.230469 0)"/>
    <use xlink:href="#DejaVuSansMono-6c" transform="translate(421.435547 0)"/>
    <use xlink:href="#DejaVuSansMono-65" transform="translate(481.640625 0)"/>
    <use xlink:href="#DejaVuSansMono-61" transform="translate(541.845703 0)"/>
    <use xlink:href="#DejaVuSansMono-64" transform="translate(602.050781 0)"/>
    <use xlink:href="#DejaVuSansMono-5f" transform="translate(662.255859 0)"/>
    <use xlink:href="#DejaVuSansMono-74" transform="translate(722.460938 0)"/>
    <use xlink:href="#DejaVuSansMono-69" transform="translate(782.666016 0)"/>
    <use xlink:href="#DejaVuSansMono-6d" transform="translate(842.871094 0)"/>
    <use xlink:href="#DejaVuSansMono-65" transform="translate(903.076172 0)"/>
   </g>
   <!-- IND05: production_output -->
   <g style="fill: #262626" transform="translate(275.785312 691.730063) scale(0.1 -0.1)">
    <defs>
     <path id="DejaVuSansMono-35" d="M 647 4666 
L 3009 4666 
L 3009 4134 
L 1222 4134 
L 1222 2988 
Q 1356 3038 1492 3061 
Q 1628 3084 1766 3084 
Q 2491 3084 2916 2656 
Q 3341 2228 3341 1497 
Q 3341 759 2895 334 
Q 2450 -91 1678 -91 
Q 1306 -91 998 -41 
Q 691 9 447 109 
L 447 750 
Q 734 594 1025 517 
Q 1316 441 1619 441 
Q 2141 441 2423 716 
Q 2706 991 2706 1497 
Q 2706 1997 2414 2275 
Q 2122 2553 1600 2553 
Q 1347 2553 1106 2495 
Q 866 2438 647 2322 
L 647 4666 
z
" transform="scale(0.015625)"/>
    </defs>
    <use xlink:href="#DejaVuSansMono-49"/>
    <use xlink:href="#DejaVuSansMono-4e" transform="translate(60.205078 0)"/>
    <use xlink:href="#DejaVuSansMono-44" transform="translate(120.410156 0)"/>
    <use xlink:href="#DejaVuSansMono-30" transform="translate(180.615234 0)"/>
    <use xlink:href="#DejaVuSansMono-35" transform="translate(240.820312 0)"/>
    <use xlink:href="#DejaVuSansMono-3a" transform="translate(301.025391 0)"/>
    <use xlink:href="#DejaVuSansMono-20" transform="translate(361.230469 0)"/>
    <use xlink:href="#DejaVuSansMono-70" transform="translate(421.435547 0)"/>
    <use xlink:href="#DejaVuSansMono-72" transform="translate(481.640625 0)"/>
    <use xlink:href="#DejaVuSansMono-6f" transform="translate(541.845703 0)"/>
    <use xlink:href="#DejaVuSansMono-64" transform="translate(602.050781 0)"/>
    <use xlink:href="#DejaVuSansMono-75" transform="translate(662.255859 0)"/>
    <use xlink:href="#DejaVuSansMono-63" transform="translate(722.460938 0)"/>
    <use xlink:href="#DejaVuSansMono-74" transform="translate(782.666016 0)"/>
    <use xlink:href="#DejaVuSansMono-69" transform="translate(842.871094 0)"/>
    <use xlink:href="#DejaVuSansMono-6f" transform="translate(903.076172 0)"/>
    <use xlink:href="#DejaVuSansMono-6e" transform="translate(963.28125 0)"/>
    <use xlink:href="#DejaVuSansMono-5f" transform="translate(1023.486328 0)"/>
    <use xlink:href="#DejaVuSansMono-6f" transform="translate(1083.691406 0)"/>
    <use xlink:href="#DejaVuSansMono-75" transform="translate(1143.896484 0)"/>
    <use xlink:href="#DejaVuSansMono-74" transform="translate(1204.101562 0)"/>
    <use xlink:href="#DejaVuSansMono-70" transform="translate(1264.306641 0)"/>
    <use xlink:href="#DejaVuSansMono-75" transform="translate(1324.511719 0)"/>
    <use xlink:href="#DejaVuSansMono-74" transform="translate(1384.716797 0)"/>
   </g>
   <!-- IND06: circularity_index -->
   <g style="fill: #262626" transform="translate(275.785312 703.26975) scale(0.1 -0.1)">
    <defs>
     <path id="DejaVuSansMono-36" d="M 3097 4563 
L 3097 3981 
Q 2900 4097 2678 4158 
Q 2456 4219 2216 4219 
Q 1616 4219 1306 3767 
Q 997 3316 997 2438 
Q 1147 2750 1412 2917 
Q 1678 3084 2022 3084 
Q 2697 3084 3067 2670 
Q 3438 2256 3438 1497 
Q 3438 741 3056 325 
Q 2675 -91 1984 -91 
Q 1172 -91 794 492 
Q 416 1075 416 2328 
Q 416 3509 870 4129 
Q 1325 4750 2188 4750 
Q 2419 4750 2650 4701 
Q 2881 4653 3097 4563 
z
M 1972 2591 
Q 1569 2591 1337 2300 
Q 1106 2009 1106 1497 
Q 1106 984 1337 693 
Q 1569 403 1972 403 
Q 2391 403 2603 679 
Q 2816 956 2816 1497 
Q 2816 2041 2603 2316 
Q 2391 2591 1972 2591 
z
" transform="scale(0.015625)"/>
     <path id="DejaVuSansMono-78" d="M 3494 3500 
L 2241 1825 
L 3616 0 
L 2950 0 
L 1925 1403 
L 903 0 
L 238 0 
L 1613 1825 
L 359 3500 
L 997 3500 
L 1925 2234 
L 2847 3500 
L 3494 3500 
z
" transform="scale(0.015625)"/>
    </defs>
    <use xlink:href="#DejaVuSansMono-49"/>
    <use xlink:href="#DejaVuSansMono-4e" transform="translate(60.205078 0)"/>
    <use xlink:href="#DejaVuSansMono-44" transform="translate(120.410156 0)"/>
    <use xlink:href="#DejaVuSansMono-30" transform="translate(180.615234 0)"/>
    <use xlink:href="#DejaVuSansMono-36" transform="translate(240.820312 0)"/>
    <use xlink:href="#DejaVuSansMono-3a" transform="translate(301.025391 0)"/>
    <use xlink:href="#DejaVuSansMono-20" transform="translate(361.230469 0)"/>
    <use xlink:href="#DejaVuSansMono-63" transform="translate(421.435547 0)"/>
    <use xlink:href="#DejaVuSansMono-69" transform="translate(481.640625 0)"/>
    <use xlink:href="#DejaVuSansMono-72" transform="translate(541.845703 0)"/>
    <use xlink:href="#DejaVuSansMono-63" transform="translate(602.050781 0)"/>
    <use xlink:href="#DejaVuSansMono-75" transform="translate(662.255859 0)"/>
    <use xlink:href="#DejaVuSansMono-6c" transform="translate(722.460938 0)"/>
    <use xlink:href="#DejaVuSansMono-61" transform="translate(782.666016 0)"/>
    <use xlink:href="#DejaVuSansMono-72" transform="translate(842.871094 0)"/>
    <use xlink:href="#DejaVuSansMono-69" transform="translate(903.076172 0)"/>
    <use xlink:href="#DejaVuSansMono-74" transform="translate(963.28125 0)"/>
    <use xlink:href="#DejaVuSansMono-79" transform="translate(1023.486328 0)"/>
    <use xlink:href="#DejaVuSansMono-5f" transform="translate(1083.691406 0)"/>
    <use xlink:href="#DejaVuSansMono-69" transform="translate(1143.896484 0)"/>
    <use xlink:href="#DejaVuSansMono-6e" transform="translate(1204.101562 0)"/>
    <use xlink:href="#DejaVuSansMono-64" transform="translate(1264.306641 0)"/>
    <use xlink:href="#DejaVuSansMono-65" transform="translate(1324.511719 0)"/>
    <use xlink:href="#DejaVuSansMono-78" transform="translate(1384.716797 0)"/>
   </g>
  </g>
 </g>
 <defs>
  <clipPath id="p21a21f4f99">
   <path d="M 555.549063 334.647563 
C 555.549063 300.586093 548.839696 266.855828 535.804936 235.387134 
C 522.770176 203.918439 503.663515 175.323302 479.578419 151.238206 
C 455.493323 127.15311 426.898186 108.046449 395.429491 95.011689 
C 363.960797 81.976929 330.230532 75.267563 296.169063 75.267563 
C 262.107593 75.267563 228.377328 81.976929 196.908634 95.011689 
C 165.439939 108.046449 136.844802 127.15311 112.759706 151.238206 
C 88.67461 175.323302 69.567949 203.918439 56.533189 235.387134 
C 43.498429 266.855828 36.789063 300.586093 36.789063 334.647562 
C 36.789063 368.709032 43.498429 402.439297 56.533189 433.907991 
C 69.567949 465.376686 88.67461 493.971823 112.759706 518.056919 
C 136.844802 542.142015 165.439939 561.248676 196.908634 574.283436 
C 228.377328 587.318196 262.107593 594.027563 296.169062 594.027563 
C 330.230532 594.027563 363.960797 587.318196 395.429491 574.283436 
C 426.898186 561.248676 455.493323 542.142015 479.578419 518.056919 
C 503.663515 493.971823 522.770176 465.376686 535.804936 433.907991 
C 548.839696 402.439297 555.549063 368.709032 555.549063 334.647563 
M 296.169063 334.647563 
C 296.169063 334.647563 296.169063 334.647563 296.169063 334.647563 
C 296.169063 334.647563 296.169063 334.647563 296.169063 334.647563 
C 296.169063 334.647563 296.169063 334.647563 296.169063 334.647563 
C 296.169063 334.647563 296.169063 334.647563 296.169063 334.647563 
C 296.169063 334.647563 296.169063 334.647563 296.169063 334.647563 
C 296.169063 334.647563 296.169063 334.647563 296.169063 334.647563 
C 296.169063 334.647563 296.169063 334.647563 296.169063 334.647563 
C 296.169063 334.647563 296.169063 334.647563 296.169063 334.647563 
C 296.169063 334.647563 296.169063 334.647563 296.169063 334.647563 
C 296.169063 334.647563 296.169063 334.647563 296.169063 334.647563 
C 296.169063 334.647563 296.169063 334.647563 296.169063 334.647563 
C 296.169063 334.647563 296.169063 334.647563 296.169063 334.647563 
C 296.169063 334.647563 296.169063 334.647563 296.169063 334.647563 
C 296.169063 334.647563 296.169063 334.647563 296.169063 334.647563 
C 296.169063 334.647563 296.169063 334.647563 296.169063 334.647563 
C 296.169063 334.647563 296.169063 334.647563 296.169063 334.647563 
z
"/>
  </clipPath>
 </defs>
</svg>
