<?xml version="1.0" encoding="utf-8" standalone="no"?>
<!DOCTYPE svg PUBLIC "-//W3C//DTD SVG 1.1//EN"
  "http://www.w3.org/Graphics/SVG/1.1/DTD/svg11.dtd">
<svg xmlns:xlink="http://www.w3.org/1999/xlink" width="715.876437pt" height="712.613812pt" viewBox="0 0 715.876437 712.613812" xmlns="http://www.w3.org/2000/svg" version="1.1">
 <metadata>
  <rdf:RDF xmlns:dc="http://purl.org/dc/elements/1.1/" xmlns:cc="http://creativecommons.org/ns#" xmlns:rdf="http://www.w3.org/1999/02/22-rdf-syntax-ns#">
   <cc:Work>
    <dc:type rdf:resource="http://purl.org/dc/dcmitype/StillImage"/>
    <dc:date>2025-11-17T18:52:53.301757</dc:date>
    <dc:format>image/svg+xml</dc:format>
    <dc:creator>
     <cc:Agent>
      <dc:title>Matplotlib v3.10.3, https://matplotlib.org/</dc:title>
     </cc:Agent>
    </dc:creator>
   </cc:Work>
  </rdf:RDF>
 </metadata>
 <defs>
  <style type="text/css">*{stroke-linejoin: round; stroke-linecap: butt}</style>
 </defs>
 <g id="figure_1">
  <g id="patch_1">
   <path d="M 0 712.613812 
L 715.876437 712.613812 
L 715.876437 0 
L 0 0 
z
" style="fill: #ffffff"/>
  </g>
  <g id="axes_1">
   <g id="patch_2">
    <path d="M 558.228437 334.733812 
C 558.228437 300.711739 551.526831 267.020487 538.507147 235.588189 
C 525.487463 204.155891 506.402902 175.593827 482.345662 151.536588 
C 458.288423 127.479348 429.726359 108.394787 398.294061 95.375103 
C 366.861763 82.355419 333.170511 75.653812 299.148437 75.653812 
C 265.126364 75.653812 231.435112 82.355419 200.002814 95.375103 
C 168.570516 108.394787 140.008452 127.479348 115.951213 151.536588 
C 91.893973 175.593827 72.809412 204.155891 59.789728 235.588189 
C 46.770044 267.020487 40.068437 300.711739 40.068437 334.733812 
C 40.068437 368.755886 46.770044 402.447138 59.789728 433.879436 
C 72.809412 465.311734 91.893973 493.873798 115.951213 517.931037 
C 140.008452 541.988277 168.570516 561.072838 200.002814 574.092522 
C 231.435112 587.112206 265.126364 593.813812 299.148437 593.813812 
C 333.170511 593.813812 366.861763 587.112206 398.294061 574.092522 
C 429.726359 561.072838 458.288423 541.988277 482.345662 517.931037 
C 506.402902 493.873798 525.487463 465.311734 538.507147 433.879436 
C 551.526831 402.447138 558.228437 368.755886 558.228437 334.733812 
M 299.148437 334.733812 
C 299.148437 334.733812 299.148437 334.733812 299.148437 334.733812 
C 299.148437 334.733812 299.148437 334.733812 299.148437 334.733812 
C 299.148437 334.733812 299.148437 334.733812 299.148437 334.733812 
C 299.148437 334.733812 299.148437 334.733812 299.148437 334.733812 
C 299.148437 334.733812 299.148437 334.733812 299.148437 334.733812 
C 299.148437 334.733812 299.148437 334.733812 299.148437 334.733812 
C 299.148437 334.733812 299.148437 334.733812 299.148437 334.733812 
C 299.148437 334.733812 299.148437 334.733812 299.148437 334.733812 
C 299.148437 334.733812 299.148437 334.733812 299.148437 334.733812 
C 299.148437 334.733812 299.148437 334.733812 299.148437 334.733812 
C 299.148437 334.733812 299.148437 334.733812 299.148437 334.733812 
C 299.148437 334.733812 299.148437 334.733812 299.148437 334.733812 
C 299.148437 334.733812 299.148437 334.733812 299.148437 334.733812 
C 299.148437 334.733812 299.148437 334.733812 299.148437 334.733812 
C 299.148437 334.733812 299.148437 334.733812 299.148437 334.733812 
C 299.148437 334.733812 299.148437 334.733812 299.148437 334.733812 
z
" style="fill: #ffffff"/>
   </g>
   <g id="matplotlib.axis_1">
    <g id="xtick_1">
     <g id="line2d_1">
      <path d="M 299.148437 334.733812 
L 558.228437 334.733812 
" clip-path="url(#p4138b08959)" style="fill: none; stroke: #b0b0b0; stroke-opacity: 0.3; stroke-width: 0.8; stroke-linecap: square"/>
     </g>
     <g id="text_1">
      <!-- IND01 -->
      <g transform="translate(553.36 337.769125) scale(0.11 -0.11)">
       <defs>
        <path id="DejaVuSans-Bold-49" d="M 588 4666 
L 1791 4666 
L 1791 0 
L 588 0 
L 588 4666 
z
" transform="scale(0.015625)"/>
        <path id="DejaVuSans-Bold-4e" d="M 588 4666 
L 1931 4666 
L 3628 1466 
L 3628 4666 
L 4769 4666 
L 4769 0 
L 3425 0 
L 1728 3200 
L 1728 0 
L 588 0 
L 588 4666 
z
" transform="scale(0.015625)"/>
        <path id="DejaVuSans-Bold-44" d="M 1791 3756 
L 1791 909 
L 2222 909 
Q 2959 909 3348 1275 
Q 3738 1641 3738 2338 
Q 3738 3031 3350 3393 
Q 2963 3756 2222 3756 
L 1791 3756 
z
M 588 4666 
L 1856 4666 
Q 2919 4666 3439 4514 
Q 3959 4363 4331 4000 
Q 4659 3684 4818 3271 
Q 4978 2859 4978 2338 
Q 4978 1809 4818 1395 
Q 4659 981 4331 666 
Q 3956 303 3431 151 
Q 2906 0 1856 0 
L 588 0 
L 588 4666 
z
" transform="scale(0.015625)"/>
        <path id="DejaVuSans-Bold-30" d="M 2944 2338 
Q 2944 3213 2780 3570 
Q 2616 3928 2228 3928 
Q 1841 3928 1675 3570 
Q 1509 3213 1509 2338 
Q 1509 1453 1675 1090 
Q 1841 728 2228 728 
Q 2613 728 2778 1090 
Q 2944 1453 2944 2338 
z
M 4147 2328 
Q 4147 1169 3647 539 
Q 3147 -91 2228 -91 
Q 1306 -91 806 539 
Q 306 1169 306 2328 
Q 306 3491 806 4120 
Q 1306 4750 2228 4750 
Q 3147 4750 3647 4120 
Q 4147 3491 4147 2328 
z
" transform="scale(0.015625)"/>
        <path id="DejaVuSans-Bold-31" d="M 750 831 
L 1813 831 
L 1813 3847 
L 722 3622 
L 722 4441 
L 1806 4666 
L 2950 4666 
L 2950 831 
L 4013 831 
L 4013 0 
L 750 0 
L 750 831 
z
" transform="scale(0.015625)"/>
       </defs>
       <use xlink:href="#DejaVuSans-Bold-49"/>
       <use xlink:href="#DejaVuSans-Bold-4e" transform="translate(37.207031 0)"/>
       <use xlink:href="#DejaVuSans-Bold-44" transform="translate(120.898438 0)"/>
       <use xlink:href="#DejaVuSans-Bold-30" transform="translate(203.90625 0)"/>
       <use xlink:href="#DejaVuSans-Bold-31" transform="translate(273.486328 0)"/>
      </g>
     </g>
    </g>
    <g id="xtick_2">
     <g id="line2d_2">
      <path d="M 299.148437 334.733812 
L 428.688437 110.363951 
" clip-path="url(#p4138b08959)" style="fill: none; stroke: #b0b0b0; stroke-opacity: 0.3; stroke-width: 0.8; stroke-linecap: square"/>
     </g>
     <g id="text_2">
      <!-- IND02 -->
      <g transform="translate(416.82 101.274908) scale(0.11 -0.11)">
       <defs>
        <path id="DejaVuSans-Bold-32" d="M 1844 884 
L 3897 884 
L 3897 0 
L 506 0 
L 506 884 
L 2209 2388 
Q 2438 2594 2547 2791 
Q 2656 2988 2656 3200 
Q 2656 3528 2436 3728 
Q 2216 3928 1850 3928 
Q 1569 3928 1234 3808 
Q 900 3688 519 3450 
L 519 4475 
Q 925 4609 1322 4679 
Q 1719 4750 2100 4750 
Q 2938 4750 3402 4381 
Q 3866 4013 3866 3353 
Q 3866 2972 3669 2642 
Q 3472 2313 2841 1759 
L 1844 884 
z
" transform="scale(0.015625)"/>
       </defs>
       <use xlink:href="#DejaVuSans-Bold-49"/>
       <use xlink:href="#DejaVuSans-Bold-4e" transform="translate(37.207031 0)"/>
       <use xlink:href="#DejaVuSans-Bold-44" transform="translate(120.898438 0)"/>
       <use xlink:href="#DejaVuSans-Bold-30" transform="translate(203.90625 0)"/>
       <use xlink:href="#DejaVuSans-Bold-32" transform="translate(273.486328 0)"/>
      </g>
     </g>
    </g>
    <g id="xtick_3">
     <g id="line2d_3">
      <path d="M 299.148437 334.733812 
L 169.608438 110.363951 
" clip-path="url(#p4138b08959)" style="fill: none; stroke: #b0b0b0; stroke-opacity: 0.3; stroke-width: 0.8; stroke-linecap: square"/>
     </g>
     <g id="text_3">
      <!-- IND03 -->
      <g transform="translate(143.74 101.274908) scale(0.11 -0.11)">
       <defs>
        <path id="DejaVuSans-Bold-33" d="M 2981 2516 
Q 3453 2394 3698 2092 
Q 3944 1791 3944 1325 
Q 3944 631 3412 270 
Q 2881 -91 1863 -91 
Q 1503 -91 1142 -33 
Q 781 25 428 141 
L 428 1069 
Q 766 900 1098 814 
Q 1431 728 1753 728 
Q 2231 728 2486 893 
Q 2741 1059 2741 1369 
Q 2741 1688 2480 1852 
Q 2219 2016 1709 2016 
L 1228 2016 
L 1228 2791 
L 1734 2791 
Q 2188 2791 2409 2933 
Q 2631 3075 2631 3366 
Q 2631 3634 2415 3781 
Q 2200 3928 1806 3928 
Q 1516 3928 1219 3862 
Q 922 3797 628 3669 
L 628 4550 
Q 984 4650 1334 4700 
Q 1684 4750 2022 4750 
Q 2931 4750 3382 4451 
Q 3834 4153 3834 3553 
Q 3834 3144 3618 2883 
Q 3403 2622 2981 2516 
z
" transform="scale(0.015625)"/>
       </defs>
       <use xlink:href="#DejaVuSans-Bold-49"/>
       <use xlink:href="#DejaVuSans-Bold-4e" transform="translate(37.207031 0)"/>
       <use xlink:href="#DejaVuSans-Bold-44" transform="translate(120.898438 0)"/>
       <use xlink:href="#DejaVuSans-Bold-30" transform="translate(203.90625 0)"/>
       <use xlink:href="#DejaVuSans-Bold-33" transform="translate(273.486328 0)"/>
      </g>
     </g>
    </g>
    <g id="xtick_4">
     <g id="line2d_4">
      <path d="M 299.148437 334.733812 
L 40.068438 334.733812 
" clip-path="url(#p4138b08959)" style="fill: none; stroke: #b0b0b0; stroke-opacity: 0.3; stroke-width: 0.8; stroke-linecap: square"/>
     </g>
     <g id="text_4">
      <!-- IND04 -->
      <g transform="translate(7.2 337.769125) scale(0.11 -0.11)">
       <defs>
        <path id="DejaVuSans-Bold-34" d="M 2356 3675 
L 1038 1722 
L 2356 1722 
L 2356 3675 
z
M 2156 4666 
L 3494 4666 
L 3494 1722 
L 4159 1722 
L 4159 850 
L 3494 850 
L 3494 0 
L 2356 0 
L 2356 850 
L 288 850 
L 288 1881 
L 2156 4666 
z
" transform="scale(0.015625)"/>
       </defs>
       <use xlink:href="#DejaVuSans-Bold-49"/>
       <use xlink:href="#DejaVuSans-Bold-4e" transform="translate(37.207031 0)"/>
       <use xlink:href="#DejaVuSans-Bold-44" transform="translate(120.898438 0)"/>
       <use xlink:href="#DejaVuSans-Bold-30" transform="translate(203.90625 0)"/>
       <use xlink:href="#DejaVuSans-Bold-34" transform="translate(273.486328 0)"/>
      </g>
     </g>
    </g>
    <g id="xtick_5">
     <g id="line2d_5">
      <path d="M 299.148437 334.733812 
L 169.608437 559.103674 
" clip-path="url(#p4138b08959)" style="fill: none; stroke: #b0b0b0; stroke-opacity: 0.3; stroke-width: 0.8; stroke-linecap: square"/>
     </g>
     <g id="text_5">
      <!-- IND05 -->
      <g transform="translate(143.74 574.263342) scale(0.11 -0.11)">
       <defs>
        <path id="DejaVuSans-Bold-35" d="M 678 4666 
L 3669 4666 
L 3669 3781 
L 1638 3781 
L 1638 3059 
Q 1775 3097 1914 3117 
Q 2053 3138 2203 3138 
Q 3056 3138 3531 2711 
Q 4006 2284 4006 1522 
Q 4006 766 3489 337 
Q 2972 -91 2053 -91 
Q 1656 -91 1267 -14 
Q 878 63 494 219 
L 494 1166 
Q 875 947 1217 837 
Q 1559 728 1863 728 
Q 2300 728 2551 942 
Q 2803 1156 2803 1522 
Q 2803 1891 2551 2103 
Q 2300 2316 1863 2316 
Q 1603 2316 1309 2248 
Q 1016 2181 678 2041 
L 678 4666 
z
" transform="scale(0.015625)"/>
       </defs>
       <use xlink:href="#DejaVuSans-Bold-49"/>
       <use xlink:href="#DejaVuSans-Bold-4e" transform="translate(37.207031 0)"/>
       <use xlink:href="#DejaVuSans-Bold-44" transform="translate(120.898438 0)"/>
       <use xlink:href="#DejaVuSans-Bold-30" transform="translate(203.90625 0)"/>
       <use xlink:href="#DejaVuSans-Bold-35" transform="translate(273.486328 0)"/>
      </g>
     </g>
    </g>
    <g id="xtick_6">
     <g id="line2d_6">
      <path d="M 299.148437 334.733812 
L 428.688437 559.103674 
" clip-path="url(#p4138b08959)" style="fill: none; stroke: #b0b0b0; stroke-opacity: 0.3; stroke-width: 0.8; stroke-linecap: square"/>
     </g>
     <g id="text_6">
      <!-- IND06 -->
      <g transform="translate(416.82 574.263342) scale(0.11 -0.11)">
       <defs>
        <path id="DejaVuSans-Bold-36" d="M 2316 2303 
Q 2000 2303 1842 2098 
Q 1684 1894 1684 1484 
Q 1684 1075 1842 870 
Q 2000 666 2316 666 
Q 2634 666 2792 870 
Q 2950 1075 2950 1484 
Q 2950 1894 2792 2098 
Q 2634 2303 2316 2303 
z
M 3803 4544 
L 3803 3681 
Q 3506 3822 3243 3889 
Q 2981 3956 2731 3956 
Q 2194 3956 1894 3657 
Q 1594 3359 1544 2772 
Q 1750 2925 1990 3001 
Q 2231 3078 2516 3078 
Q 3231 3078 3670 2659 
Q 4109 2241 4109 1563 
Q 4109 813 3618 361 
Q 3128 -91 2303 -91 
Q 1394 -91 895 523 
Q 397 1138 397 2266 
Q 397 3422 980 4083 
Q 1563 4744 2578 4744 
Q 2900 4744 3203 4694 
Q 3506 4644 3803 4544 
z
" transform="scale(0.015625)"/>
       </defs>
       <use xlink:href="#DejaVuSans-Bold-49"/>
       <use xlink:href="#DejaVuSans-Bold-4e" transform="translate(37.207031 0)"/>
       <use xlink:href="#DejaVuSans-Bold-44" transform="translate(120.898438 0)"/>
       <use xlink:href="#DejaVuSans-Bold-30" transform="translate(203.90625 0)"/>
       <use xlink:href="#DejaVuSans-Bold-36" transform="translate(273.486328 0)"/>
      </g>
     </g>
    </g>
   </g>
   <g id="matplotlib.axis_2">
    <g id="ytick_1">
     <g id="line2d_7">
      <path d="M 336.159866 334.733812 
C 336.159866 329.873516 335.202494 325.06048 333.342539 320.570152 
C 331.482584 316.079824 328.756218 311.999529 325.31947 308.56278 
C 321.882721 305.126032 317.802426 302.399666 313.312098 300.539711 
C 308.82177 298.679756 304.008734 297.722384 299.148437 297.722384 
C 294.288141 297.722384 289.475105 298.679756 284.984777 300.539711 
C 280.494449 302.399666 276.414154 305.126032 272.977405 308.56278 
C 269.540657 311.999529 266.814291 316.079824 264.954336 320.570152 
C 263.094381 325.06048 262.137009 329.873516 262.137009 334.733812 
C 262.137009 339.594109 263.094381 344.407145 264.954336 348.897473 
C 266.814291 353.387801 269.540657 357.468096 272.977405 360.904845 
C 276.414154 364.341593 280.494449 367.067959 284.984777 368.927914 
C 289.475105 370.787869 294.288141 371.745241 299.148437 371.745241 
C 304.008734 371.745241 308.82177 370.787869 313.312098 368.927914 
C 317.802426 367.067959 321.882721 364.341593 325.31947 360.904845 
C 328.756218 357.468096 331.482584 353.387801 333.342539 348.897473 
C 335.202494 344.407145 336.159866 339.594109 336.159866 334.733812 
" clip-path="url(#p4138b08959)" style="fill: none; stroke: #b0b0b0; stroke-opacity: 0.3; stroke-width: 0.8; stroke-linecap: square"/>
     </g>
     <g id="text_7">
      <!-- 0.0 -->
      <g transform="translate(333.342539 318.698433) scale(0.09 -0.09)">
       <defs>
        <path id="DejaVuSans-30" d="M 2034 4250 
Q 1547 4250 1301 3770 
Q 1056 3291 1056 2328 
Q 1056 1369 1301 889 
Q 1547 409 2034 409 
Q 2525 409 2770 889 
Q 3016 1369 3016 2328 
Q 3016 3291 2770 3770 
Q 2525 4250 2034 4250 
z
M 2034 4750 
Q 2819 4750 3233 4129 
Q 3647 3509 3647 2328 
Q 3647 1150 3233 529 
Q 2819 -91 2034 -91 
Q 1250 -91 836 529 
Q 422 1150 422 2328 
Q 422 3509 836 4129 
Q 1250 4750 2034 4750 
z
" transform="scale(0.015625)"/>
        <path id="DejaVuSans-2e" d="M 684 794 
L 1344 794 
L 1344 0 
L 684 0 
L 684 794 
z
" transform="scale(0.015625)"/>
       </defs>
       <use xlink:href="#DejaVuSans-30"/>
       <use xlink:href="#DejaVuSans-2e" transform="translate(63.623047 0)"/>
       <use xlink:href="#DejaVuSans-30" transform="translate(95.410156 0)"/>
      </g>
     </g>
    </g>
    <g id="ytick_2">
     <g id="line2d_8">
      <path d="M 373.171295 334.733812 
C 373.171295 325.01322 371.25655 315.387148 367.53664 306.406491 
C 363.81673 297.425835 358.363999 289.265245 351.490502 282.391748 
C 344.617005 275.518251 336.456415 270.06552 327.475759 266.34561 
C 318.495102 262.6257 308.86903 260.710955 299.148437 260.710955 
C 289.427845 260.710955 279.801773 262.6257 270.821116 266.34561 
C 261.84046 270.06552 253.67987 275.518251 246.806373 282.391748 
C 239.932876 289.265245 234.480145 297.425835 230.760235 306.406491 
C 227.040325 315.387148 225.12558 325.01322 225.12558 334.733812 
C 225.12558 344.454405 227.040325 354.080477 230.760235 363.061134 
C 234.480145 372.04179 239.932876 380.20238 246.806373 387.075877 
C 253.67987 393.949374 261.84046 399.402105 270.821116 403.122015 
C 279.801773 406.841925 289.427845 408.75667 299.148437 408.75667 
C 308.86903 408.75667 318.495102 406.841925 327.475759 403.122015 
C 336.456415 399.402105 344.617005 393.949374 351.490502 387.075877 
C 358.363999 380.20238 363.81673 372.04179 367.53664 363.061134 
C 371.25655 354.080477 373.171295 344.454405 373.171295 334.733812 
" clip-path="url(#p4138b08959)" style="fill: none; stroke: #b0b0b0; stroke-opacity: 0.3; stroke-width: 0.8; stroke-linecap: square"/>
     </g>
     <g id="text_8">
      <!-- 0.2 -->
      <g transform="translate(367.53664 304.534773) scale(0.09 -0.09)">
       <defs>
        <path id="DejaVuSans-32" d="M 1228 531 
L 3431 531 
L 3431 0 
L 469 0 
L 469 531 
Q 828 903 1448 1529 
Q 2069 2156 2228 2338 
Q 2531 2678 2651 2914 
Q 2772 3150 2772 3378 
Q 2772 3750 2511 3984 
Q 2250 4219 1831 4219 
Q 1534 4219 1204 4116 
Q 875 4013 500 3803 
L 500 4441 
Q 881 4594 1212 4672 
Q 1544 4750 1819 4750 
Q 2544 4750 2975 4387 
Q 3406 4025 3406 3419 
Q 3406 3131 3298 2873 
Q 3191 2616 2906 2266 
Q 2828 2175 2409 1742 
Q 1991 1309 1228 531 
z
" transform="scale(0.015625)"/>
       </defs>
       <use xlink:href="#DejaVuSans-30"/>
       <use xlink:href="#DejaVuSans-2e" transform="translate(63.623047 0)"/>
       <use xlink:href="#DejaVuSans-32" transform="translate(95.410156 0)"/>
      </g>
     </g>
    </g>
    <g id="ytick_3">
     <g id="line2d_9">
      <path d="M 410.182723 334.733812 
C 410.182723 320.152924 407.310606 305.713816 401.730741 292.242831 
C 396.150877 278.771846 387.971779 266.530961 377.661534 256.220716 
C 367.351289 245.910471 355.110404 237.731373 341.639419 232.151509 
C 328.168434 226.571644 313.729326 223.699527 299.148437 223.699527 
C 284.567549 223.699527 270.128441 226.571644 256.657456 232.151509 
C 243.186471 237.731373 230.945586 245.910471 220.635341 256.220716 
C 210.325096 266.530961 202.145998 278.771846 196.566134 292.242831 
C 190.986269 305.713816 188.114152 320.152924 188.114152 334.733812 
C 188.114152 349.314701 190.986269 363.753809 196.566134 377.224794 
C 202.145998 390.695779 210.325096 402.936664 220.635341 413.246909 
C 230.945586 423.557154 243.186471 431.736252 256.657456 437.316116 
C 270.128441 442.895981 284.567549 445.768098 299.148437 445.768098 
C 313.729326 445.768098 328.168434 442.895981 341.639419 437.316116 
C 355.110404 431.736252 367.351289 423.557154 377.661534 413.246909 
C 387.971779 402.936664 396.150877 390.695779 401.730741 377.224794 
C 407.310606 363.753809 410.182723 349.314701 410.182723 334.733812 
" clip-path="url(#p4138b08959)" style="fill: none; stroke: #b0b0b0; stroke-opacity: 0.3; stroke-width: 0.8; stroke-linecap: square"/>
     </g>
     <g id="text_9">
      <!-- 0.4 -->
      <g transform="translate(401.730741 290.371112) scale(0.09 -0.09)">
       <defs>
        <path id="DejaVuSans-34" d="M 2419 4116 
L 825 1625 
L 2419 1625 
L 2419 4116 
z
M 2253 4666 
L 3047 4666 
L 3047 1625 
L 3713 1625 
L 3713 1100 
L 3047 1100 
L 3047 0 
L 2419 0 
L 2419 1100 
L 313 1100 
L 313 1709 
L 2253 4666 
z
" transform="scale(0.015625)"/>
       </defs>
       <use xlink:href="#DejaVuSans-30"/>
       <use xlink:href="#DejaVuSans-2e" transform="translate(63.623047 0)"/>
       <use xlink:href="#DejaVuSans-34" transform="translate(95.410156 0)"/>
      </g>
     </g>
    </g>
    <g id="ytick_4">
     <g id="line2d_10">
      <path d="M 447.194152 334.733812 
C 447.194152 315.292627 443.364662 296.040483 435.924843 278.07917 
C 428.485023 260.117857 417.57956 243.796678 403.832566 230.049684 
C 390.085572 216.30269 373.764393 205.397227 355.80308 197.957407 
C 337.841767 190.517588 318.589623 186.688098 299.148437 186.688098 
C 279.707252 186.688098 260.455108 190.517588 242.493795 197.957407 
C 224.532482 205.397227 208.211303 216.30269 194.464309 230.049684 
C 180.717315 243.796678 169.811852 260.117857 162.372032 278.07917 
C 154.932213 296.040483 151.102723 315.292627 151.102723 334.733812 
C 151.102723 354.174998 154.932213 373.427142 162.372032 391.388455 
C 169.811852 409.349768 180.717315 425.670947 194.464309 439.417941 
C 208.211303 453.164935 224.532482 464.070398 242.493795 471.510218 
C 260.455108 478.950037 279.707252 482.779527 299.148437 482.779527 
C 318.589623 482.779527 337.841767 478.950037 355.80308 471.510218 
C 373.764393 464.070398 390.085572 453.164935 403.832566 439.417941 
C 417.57956 425.670947 428.485023 409.349768 435.924843 391.388455 
C 443.364662 373.427142 447.194152 354.174998 447.194152 334.733812 
" clip-path="url(#p4138b08959)" style="fill: none; stroke: #b0b0b0; stroke-opacity: 0.3; stroke-width: 0.8; stroke-linecap: square"/>
     </g>
     <g id="text_10">
      <!-- 0.6 -->
      <g transform="translate(435.924843 276.207452) scale(0.09 -0.09)">
       <defs>
        <path id="DejaVuSans-36" d="M 2113 2584 
Q 1688 2584 1439 2293 
Q 1191 2003 1191 1497 
Q 1191 994 1439 701 
Q 1688 409 2113 409 
Q 2538 409 2786 701 
Q 3034 994 3034 1497 
Q 3034 2003 2786 2293 
Q 2538 2584 2113 2584 
z
M 3366 4563 
L 3366 3988 
Q 3128 4100 2886 4159 
Q 2644 4219 2406 4219 
Q 1781 4219 1451 3797 
Q 1122 3375 1075 2522 
Q 1259 2794 1537 2939 
Q 1816 3084 2150 3084 
Q 2853 3084 3261 2657 
Q 3669 2231 3669 1497 
Q 3669 778 3244 343 
Q 2819 -91 2113 -91 
Q 1303 -91 875 529 
Q 447 1150 447 2328 
Q 447 3434 972 4092 
Q 1497 4750 2381 4750 
Q 2619 4750 2861 4703 
Q 3103 4656 3366 4563 
z
" transform="scale(0.015625)"/>
       </defs>
       <use xlink:href="#DejaVuSans-30"/>
       <use xlink:href="#DejaVuSans-2e" transform="translate(63.623047 0)"/>
       <use xlink:href="#DejaVuSans-36" transform="translate(95.410156 0)"/>
      </g>
     </g>
    </g>
    <g id="ytick_5">
     <g id="line2d_11">
      <path d="M 484.20558 334.733812 
C 484.20558 310.432331 479.418718 286.367151 470.118944 263.91551 
C 460.81917 241.463869 447.18734 221.062394 430.003598 203.878652 
C 412.819856 186.69491 392.418381 173.06308 369.96674 163.763306 
C 347.515099 154.463532 323.449919 149.67667 299.148437 149.67667 
C 274.846956 149.67667 250.781776 154.463532 228.330135 163.763306 
C 205.878494 173.06308 185.477019 186.69491 168.293277 203.878652 
C 151.109535 221.062394 137.477705 241.463869 128.177931 263.91551 
C 118.878157 286.367151 114.091295 310.432331 114.091295 334.733812 
C 114.091295 359.035294 118.878157 383.100474 128.177931 405.552115 
C 137.477705 428.003756 151.109535 448.405231 168.293277 465.588973 
C 185.477019 482.772715 205.878494 496.404545 228.330135 505.704319 
C 250.781776 515.004093 274.846956 519.790955 299.148437 519.790955 
C 323.449919 519.790955 347.515099 515.004093 369.96674 505.704319 
C 392.418381 496.404545 412.819856 482.772715 430.003598 465.588973 
C 447.18734 448.405231 460.81917 428.003756 470.118944 405.552115 
C 479.418718 383.100474 484.20558 359.035294 484.20558 334.733812 
" clip-path="url(#p4138b08959)" style="fill: none; stroke: #b0b0b0; stroke-opacity: 0.3; stroke-width: 0.8; stroke-linecap: square"/>
     </g>
     <g id="text_11">
      <!-- 0.8 -->
      <g transform="translate(470.118944 262.043791) scale(0.09 -0.09)">
       <defs>
        <path id="DejaVuSans-38" d="M 2034 2216 
Q 1584 2216 1326 1975 
Q 1069 1734 1069 1313 
Q 1069 891 1326 650 
Q 1584 409 2034 409 
Q 2484 409 2743 651 
Q 3003 894 3003 1313 
Q 3003 1734 2745 1975 
Q 2488 2216 2034 2216 
z
M 1403 2484 
Q 997 2584 770 2862 
Q 544 3141 544 3541 
Q 544 4100 942 4425 
Q 1341 4750 2034 4750 
Q 2731 4750 3128 4425 
Q 3525 4100 3525 3541 
Q 3525 3141 3298 2862 
Q 3072 2584 2669 2484 
Q 3125 2378 3379 2068 
Q 3634 1759 3634 1313 
Q 3634 634 3220 271 
Q 2806 -91 2034 -91 
Q 1263 -91 848 271 
Q 434 634 434 1313 
Q 434 1759 690 2068 
Q 947 2378 1403 2484 
z
M 1172 3481 
Q 1172 3119 1398 2916 
Q 1625 2713 2034 2713 
Q 2441 2713 2670 2916 
Q 2900 3119 2900 3481 
Q 2900 3844 2670 4047 
Q 2441 4250 2034 4250 
Q 1625 4250 1398 4047 
Q 1172 3844 1172 3481 
z
" transform="scale(0.015625)"/>
       </defs>
       <use xlink:href="#DejaVuSans-30"/>
       <use xlink:href="#DejaVuSans-2e" transform="translate(63.623047 0)"/>
       <use xlink:href="#DejaVuSans-38" transform="translate(95.410156 0)"/>
      </g>
     </g>
    </g>
    <g id="ytick_6">
     <g id="line2d_12">
      <path d="M 521.217009 334.733812 
C 521.217009 305.572035 515.472775 276.693819 504.313045 249.751849 
C 493.153316 222.80988 476.795121 198.32811 456.17463 177.70762 
C 435.55414 157.087129 411.07237 140.728934 384.130401 129.569205 
C 357.188431 118.409475 328.310215 112.665241 299.148437 112.665241 
C 269.98666 112.665241 241.108444 118.409475 214.166474 129.569205 
C 187.224505 140.728934 162.742735 157.087129 142.122245 177.70762 
C 121.501754 198.32811 105.143559 222.80988 93.98383 249.751849 
C 82.8241 276.693819 77.079866 305.572035 77.079866 334.733812 
C 77.079866 363.89559 82.8241 392.773806 93.98383 419.715776 
C 105.143559 446.657745 121.501754 471.139515 142.122245 491.760005 
C 162.742735 512.380496 187.224505 528.738691 214.166474 539.89842 
C 241.108444 551.05815 269.98666 556.802384 299.148437 556.802384 
C 328.310215 556.802384 357.188431 551.05815 384.130401 539.89842 
C 411.07237 528.738691 435.55414 512.380496 456.17463 491.760005 
C 476.795121 471.139515 493.153316 446.657745 504.313045 419.715776 
C 515.472775 392.773806 521.217009 363.89559 521.217009 334.733812 
" clip-path="url(#p4138b08959)" style="fill: none; stroke: #b0b0b0; stroke-opacity: 0.3; stroke-width: 0.8; stroke-linecap: square"/>
     </g>
     <g id="text_12">
      <!-- 1.0 -->
      <g transform="translate(504.313045 247.880131) scale(0.09 -0.09)">
       <defs>
        <path id="DejaVuSans-31" d="M 794 531 
L 1825 531 
L 1825 4091 
L 703 3866 
L 703 4441 
L 1819 4666 
L 2450 4666 
L 2450 531 
L 3481 531 
L 3481 0 
L 794 0 
L 794 531 
z
" transform="scale(0.015625)"/>
       </defs>
       <use xlink:href="#DejaVuSans-31"/>
       <use xlink:href="#DejaVuSans-2e" transform="translate(63.623047 0)"/>
       <use xlink:href="#DejaVuSans-30" transform="translate(95.410156 0)"/>
      </g>
     </g>
    </g>
   </g>
   <g id="line2d_13">
    <path d="M 436.090723 334.733812 
L 369.470152 212.93303 
L 232.527866 219.343598 
L 234.378437 334.733812 
L 238.07958 440.508176 
L 365.769009 450.124027 
L 436.090723 334.733812 
" clip-path="url(#p4138b08959)" style="fill: none; stroke: #1f77b4; stroke-width: 2; stroke-linecap: square"/>
    <defs>
     <path id="m1b17e2f608" d="M 0 4 
C 1.060812 4 2.078319 3.578535 2.828427 2.828427 
C 3.578535 2.078319 4 1.060812 4 0 
C 4 -1.060812 3.578535 -2.078319 2.828427 -2.828427 
C 2.078319 -3.578535 1.060812 -4 0 -4 
C -1.060812 -4 -2.078319 -3.578535 -2.828427 -2.828427 
C -3.578535 -2.078319 -4 -1.060812 -4 0 
C -4 1.060812 -3.578535 2.078319 -2.828427 2.828427 
C -2.078319 3.578535 -1.060812 4 0 4 
z
" style="stroke: #ffffff; stroke-width: 1.5"/>
    </defs>
    <g clip-path="url(#p4138b08959)">
     <use xlink:href="#m1b17e2f608" x="436.090723" y="334.733812" style="fill: #1f77b4; stroke: #ffffff; stroke-width: 1.5"/>
     <use xlink:href="#m1b17e2f608" x="369.470152" y="212.93303" style="fill: #1f77b4; stroke: #ffffff; stroke-width: 1.5"/>
     <use xlink:href="#m1b17e2f608" x="232.527866" y="219.343598" style="fill: #1f77b4; stroke: #ffffff; stroke-width: 1.5"/>
     <use xlink:href="#m1b17e2f608" x="234.378437" y="334.733812" style="fill: #1f77b4; stroke: #ffffff; stroke-width: 1.5"/>
     <use xlink:href="#m1b17e2f608" x="238.07958" y="440.508176" style="fill: #1f77b4; stroke: #ffffff; stroke-width: 1.5"/>
     <use xlink:href="#m1b17e2f608" x="365.769009" y="450.124027" style="fill: #1f77b4; stroke: #ffffff; stroke-width: 1.5"/>
     <use xlink:href="#m1b17e2f608" x="436.090723" y="334.733812" style="fill: #1f77b4; stroke: #ffffff; stroke-width: 1.5"/>
    </g>
   </g>
   <g id="line2d_14">
    <path d="M 417.585009 334.733812 
L 344.487437 256.204361 
L 240.855437 233.767375 
L 260.286437 334.733812 
L 239.930152 437.302892 
L 364.843723 448.521385 
L 417.585009 334.733812 
" clip-path="url(#p4138b08959)" style="fill: none; stroke: #d62728; stroke-width: 2; stroke-linecap: square"/>
    <defs>
     <path id="m435f2127fc" d="M -4 4 
L 4 4 
L 4 -4 
L -4 -4 
z
" style="stroke: #ffffff; stroke-width: 1.5; stroke-linejoin: miter"/>
    </defs>
    <g clip-path="url(#p4138b08959)">
     <use xlink:href="#m435f2127fc" x="417.585009" y="334.733812" style="fill: #d62728; stroke: #ffffff; stroke-width: 1.5; stroke-linejoin: miter"/>
     <use xlink:href="#m435f2127fc" x="344.487437" y="256.204361" style="fill: #d62728; stroke: #ffffff; stroke-width: 1.5; stroke-linejoin: miter"/>
     <use xlink:href="#m435f2127fc" x="240.855437" y="233.767375" style="fill: #d62728; stroke: #ffffff; stroke-width: 1.5; stroke-linejoin: miter"/>
     <use xlink:href="#m435f2127fc" x="260.286437" y="334.733812" style="fill: #d62728; stroke: #ffffff; stroke-width: 1.5; stroke-linejoin: miter"/>
     <use xlink:href="#m435f2127fc" x="239.930152" y="437.302892" style="fill: #d62728; stroke: #ffffff; stroke-width: 1.5; stroke-linejoin: miter"/>
     <use xlink:href="#m435f2127fc" x="364.843723" y="448.521385" style="fill: #d62728; stroke: #ffffff; stroke-width: 1.5; stroke-linejoin: miter"/>
     <use xlink:href="#m435f2127fc" x="417.585009" y="334.733812" style="fill: #d62728; stroke: #ffffff; stroke-width: 1.5; stroke-linejoin: miter"/>
    </g>
   </g>
   <g id="line2d_15">
    <path d="M 432.38958 334.733812 
L 337.085152 269.025496 
L 234.378437 222.548882 
L 221.424437 334.733812 
L 237.154295 442.110818 
L 366.694295 451.726669 
L 432.38958 334.733812 
" clip-path="url(#p4138b08959)" style="fill: none; stroke: #e377c2; stroke-width: 2; stroke-linecap: square"/>
    <defs>
     <path id="me0fd547ae1" d="M 0 -4 
L -4 4 
L 4 4 
z
" style="stroke: #ffffff; stroke-width: 1.5; stroke-linejoin: miter"/>
    </defs>
    <g clip-path="url(#p4138b08959)">
     <use xlink:href="#me0fd547ae1" x="432.38958" y="334.733812" style="fill: #e377c2; stroke: #ffffff; stroke-width: 1.5; stroke-linejoin: miter"/>
     <use xlink:href="#me0fd547ae1" x="337.085152" y="269.025496" style="fill: #e377c2; stroke: #ffffff; stroke-width: 1.5; stroke-linejoin: miter"/>
     <use xlink:href="#me0fd547ae1" x="234.378437" y="222.548882" style="fill: #e377c2; stroke: #ffffff; stroke-width: 1.5; stroke-linejoin: miter"/>
     <use xlink:href="#me0fd547ae1" x="221.424437" y="334.733812" style="fill: #e377c2; stroke: #ffffff; stroke-width: 1.5; stroke-linejoin: miter"/>
     <use xlink:href="#me0fd547ae1" x="237.154295" y="442.110818" style="fill: #e377c2; stroke: #ffffff; stroke-width: 1.5; stroke-linejoin: miter"/>
     <use xlink:href="#me0fd547ae1" x="366.694295" y="451.726669" style="fill: #e377c2; stroke: #ffffff; stroke-width: 1.5; stroke-linejoin: miter"/>
     <use xlink:href="#me0fd547ae1" x="432.38958" y="334.733812" style="fill: #e377c2; stroke: #ffffff; stroke-width: 1.5; stroke-linejoin: miter"/>
    </g>
   </g>
   <g id="line2d_16">
    <path d="M 417.585009 334.733812 
L 331.533437 278.641347 
L 240.855437 233.767375 
L 260.286437 334.733812 
L 239.930152 437.302892 
L 364.843723 448.521385 
L 417.585009 334.733812 
" clip-path="url(#p4138b08959)" style="fill: none; stroke: #17becf; stroke-width: 2; stroke-linecap: square"/>
    <defs>
     <path id="m8210a37bf8" d="M 0 5.656854 
L 5.656854 0 
L 0 -5.656854 
L -5.656854 0 
z
" style="stroke: #ffffff; stroke-width: 1.5; stroke-linejoin: miter"/>
    </defs>
    <g clip-path="url(#p4138b08959)">
     <use xlink:href="#m8210a37bf8" x="417.585009" y="334.733812" style="fill: #17becf; stroke: #ffffff; stroke-width: 1.5; stroke-linejoin: miter"/>
     <use xlink:href="#m8210a37bf8" x="331.533437" y="278.641347" style="fill: #17becf; stroke: #ffffff; stroke-width: 1.5; stroke-linejoin: miter"/>
     <use xlink:href="#m8210a37bf8" x="240.855437" y="233.767375" style="fill: #17becf; stroke: #ffffff; stroke-width: 1.5; stroke-linejoin: miter"/>
     <use xlink:href="#m8210a37bf8" x="260.286437" y="334.733812" style="fill: #17becf; stroke: #ffffff; stroke-width: 1.5; stroke-linejoin: miter"/>
     <use xlink:href="#m8210a37bf8" x="239.930152" y="437.302892" style="fill: #17becf; stroke: #ffffff; stroke-width: 1.5; stroke-linejoin: miter"/>
     <use xlink:href="#m8210a37bf8" x="364.843723" y="448.521385" style="fill: #17becf; stroke: #ffffff; stroke-width: 1.5; stroke-linejoin: miter"/>
     <use xlink:href="#m8210a37bf8" x="417.585009" y="334.733812" style="fill: #17becf; stroke: #ffffff; stroke-width: 1.5; stroke-linejoin: miter"/>
    </g>
   </g>
   <g id="patch_3">
    <path d="M 558.228437 334.733812 
C 558.228437 300.711739 551.526831 267.020487 538.507147 235.588189 
C 525.487463 204.155891 506.402902 175.593827 482.345662 151.536588 
C 458.288423 127.479348 429.726359 108.394787 398.294061 95.375103 
C 366.861763 82.355419 333.170511 75.653812 299.148437 75.653812 
C 265.126364 75.653812 231.435112 82.355419 200.002814 95.375103 
C 168.570516 108.394787 140.008452 127.479348 115.951213 151.536588 
C 91.893973 175.593827 72.809412 204.155891 59.789728 235.588189 
C 46.770044 267.020487 40.068438 300.711739 40.068438 334.733812 
C 40.068438 368.755886 46.770044 402.447138 59.789728 433.879436 
C 72.809412 465.311734 91.893973 493.873798 115.951213 517.931037 
C 140.008452 541.988277 168.570516 561.072838 200.002814 574.092522 
C 231.435112 587.112206 265.126364 593.813812 299.148437 593.813812 
C 333.170511 593.813812 366.861763 587.112206 398.294061 574.092522 
C 429.726359 561.072838 458.288423 541.988277 482.345662 517.931037 
C 506.402902 493.873798 525.487463 465.311734 538.507147 433.879436 
C 551.526831 402.447138 558.228437 368.755886 558.228437 334.733812 
" style="fill: none; stroke: #000000; stroke-width: 0.8; stroke-linejoin: miter; stroke-linecap: square"/>
   </g>
   <g id="text_13">
    <!-- Multi-Dimensional System Comparison (All Experiments) -->
    <g transform="translate(75.681094 17.837812) scale(0.14 -0.14)">
     <defs>
      <path id="DejaVuSans-Bold-4d" d="M 588 4666 
L 2119 4666 
L 3181 2169 
L 4250 4666 
L 5778 4666 
L 5778 0 
L 4641 0 
L 4641 3413 
L 3566 897 
L 2803 897 
L 1728 3413 
L 1728 0 
L 588 0 
L 588 4666 
z
" transform="scale(0.015625)"/>
      <path id="DejaVuSans-Bold-75" d="M 500 1363 
L 500 3500 
L 1625 3500 
L 1625 3150 
Q 1625 2866 1622 2436 
Q 1619 2006 1619 1863 
Q 1619 1441 1641 1255 
Q 1663 1069 1716 984 
Q 1784 875 1895 815 
Q 2006 756 2150 756 
Q 2500 756 2700 1025 
Q 2900 1294 2900 1772 
L 2900 3500 
L 4019 3500 
L 4019 0 
L 2900 0 
L 2900 506 
Q 2647 200 2364 54 
Q 2081 -91 1741 -91 
Q 1134 -91 817 281 
Q 500 653 500 1363 
z
" transform="scale(0.015625)"/>
      <path id="DejaVuSans-Bold-6c" d="M 538 4863 
L 1656 4863 
L 1656 0 
L 538 0 
L 538 4863 
z
" transform="scale(0.015625)"/>
      <path id="DejaVuSans-Bold-74" d="M 1759 4494 
L 1759 3500 
L 2913 3500 
L 2913 2700 
L 1759 2700 
L 1759 1216 
Q 1759 972 1856 886 
Q 1953 800 2241 800 
L 2816 800 
L 2816 0 
L 1856 0 
Q 1194 0 917 276 
Q 641 553 641 1216 
L 641 2700 
L 84 2700 
L 84 3500 
L 641 3500 
L 641 4494 
L 1759 4494 
z
" transform="scale(0.015625)"/>
      <path id="DejaVuSans-Bold-69" d="M 538 3500 
L 1656 3500 
L 1656 0 
L 538 0 
L 538 3500 
z
M 538 4863 
L 1656 4863 
L 1656 3950 
L 538 3950 
L 538 4863 
z
" transform="scale(0.015625)"/>
      <path id="DejaVuSans-Bold-2d" d="M 347 2297 
L 2309 2297 
L 2309 1388 
L 347 1388 
L 347 2297 
z
" transform="scale(0.015625)"/>
      <path id="DejaVuSans-Bold-6d" d="M 3781 2919 
Q 3994 3244 4286 3414 
Q 4578 3584 4928 3584 
Q 5531 3584 5847 3212 
Q 6163 2841 6163 2131 
L 6163 0 
L 5038 0 
L 5038 1825 
Q 5041 1866 5042 1909 
Q 5044 1953 5044 2034 
Q 5044 2406 4934 2573 
Q 4825 2741 4581 2741 
Q 4263 2741 4089 2478 
Q 3916 2216 3909 1719 
L 3909 0 
L 2784 0 
L 2784 1825 
Q 2784 2406 2684 2573 
Q 2584 2741 2328 2741 
Q 2006 2741 1831 2477 
Q 1656 2213 1656 1722 
L 1656 0 
L 531 0 
L 531 3500 
L 1656 3500 
L 1656 2988 
Q 1863 3284 2130 3434 
Q 2397 3584 2719 3584 
Q 3081 3584 3359 3409 
Q 3638 3234 3781 2919 
z
" transform="scale(0.015625)"/>
      <path id="DejaVuSans-Bold-65" d="M 4031 1759 
L 4031 1441 
L 1416 1441 
Q 1456 1047 1700 850 
Q 1944 653 2381 653 
Q 2734 653 3104 758 
Q 3475 863 3866 1075 
L 3866 213 
Q 3469 63 3072 -14 
Q 2675 -91 2278 -91 
Q 1328 -91 801 392 
Q 275 875 275 1747 
Q 275 2603 792 3093 
Q 1309 3584 2216 3584 
Q 3041 3584 3536 3087 
Q 4031 2591 4031 1759 
z
M 2881 2131 
Q 2881 2450 2695 2645 
Q 2509 2841 2209 2841 
Q 1884 2841 1681 2658 
Q 1478 2475 1428 2131 
L 2881 2131 
z
" transform="scale(0.015625)"/>
      <path id="DejaVuSans-Bold-6e" d="M 4056 2131 
L 4056 0 
L 2931 0 
L 2931 347 
L 2931 1631 
Q 2931 2084 2911 2256 
Q 2891 2428 2841 2509 
Q 2775 2619 2662 2680 
Q 2550 2741 2406 2741 
Q 2056 2741 1856 2470 
Q 1656 2200 1656 1722 
L 1656 0 
L 538 0 
L 538 3500 
L 1656 3500 
L 1656 2988 
Q 1909 3294 2193 3439 
Q 2478 3584 2822 3584 
Q 3428 3584 3742 3212 
Q 4056 2841 4056 2131 
z
" transform="scale(0.015625)"/>
      <path id="DejaVuSans-Bold-73" d="M 3272 3391 
L 3272 2541 
Q 2913 2691 2578 2766 
Q 2244 2841 1947 2841 
Q 1628 2841 1473 2761 
Q 1319 2681 1319 2516 
Q 1319 2381 1436 2309 
Q 1553 2238 1856 2203 
L 2053 2175 
Q 2913 2066 3209 1816 
Q 3506 1566 3506 1031 
Q 3506 472 3093 190 
Q 2681 -91 1863 -91 
Q 1516 -91 1145 -36 
Q 775 19 384 128 
L 384 978 
Q 719 816 1070 734 
Q 1422 653 1784 653 
Q 2113 653 2278 743 
Q 2444 834 2444 1013 
Q 2444 1163 2330 1236 
Q 2216 1309 1875 1350 
L 1678 1375 
Q 931 1469 631 1722 
Q 331 1975 331 2491 
Q 331 3047 712 3315 
Q 1094 3584 1881 3584 
Q 2191 3584 2531 3537 
Q 2872 3491 3272 3391 
z
" transform="scale(0.015625)"/>
      <path id="DejaVuSans-Bold-6f" d="M 2203 2784 
Q 1831 2784 1636 2517 
Q 1441 2250 1441 1747 
Q 1441 1244 1636 976 
Q 1831 709 2203 709 
Q 2569 709 2762 976 
Q 2956 1244 2956 1747 
Q 2956 2250 2762 2517 
Q 2569 2784 2203 2784 
z
M 2203 3584 
Q 3106 3584 3614 3096 
Q 4122 2609 4122 1747 
Q 4122 884 3614 396 
Q 3106 -91 2203 -91 
Q 1297 -91 786 396 
Q 275 884 275 1747 
Q 275 2609 786 3096 
Q 1297 3584 2203 3584 
z
" transform="scale(0.015625)"/>
      <path id="DejaVuSans-Bold-61" d="M 2106 1575 
Q 1756 1575 1579 1456 
Q 1403 1338 1403 1106 
Q 1403 894 1545 773 
Q 1688 653 1941 653 
Q 2256 653 2472 879 
Q 2688 1106 2688 1447 
L 2688 1575 
L 2106 1575 
z
M 3816 1997 
L 3816 0 
L 2688 0 
L 2688 519 
Q 2463 200 2181 54 
Q 1900 -91 1497 -91 
Q 953 -91 614 226 
Q 275 544 275 1050 
Q 275 1666 698 1953 
Q 1122 2241 2028 2241 
L 2688 2241 
L 2688 2328 
Q 2688 2594 2478 2717 
Q 2269 2841 1825 2841 
Q 1466 2841 1156 2769 
Q 847 2697 581 2553 
L 581 3406 
Q 941 3494 1303 3539 
Q 1666 3584 2028 3584 
Q 2975 3584 3395 3211 
Q 3816 2838 3816 1997 
z
" transform="scale(0.015625)"/>
      <path id="DejaVuSans-Bold-20" transform="scale(0.015625)"/>
      <path id="DejaVuSans-Bold-53" d="M 3834 4519 
L 3834 3531 
Q 3450 3703 3084 3790 
Q 2719 3878 2394 3878 
Q 1963 3878 1756 3759 
Q 1550 3641 1550 3391 
Q 1550 3203 1689 3098 
Q 1828 2994 2194 2919 
L 2706 2816 
Q 3484 2659 3812 2340 
Q 4141 2022 4141 1434 
Q 4141 663 3683 286 
Q 3225 -91 2284 -91 
Q 1841 -91 1394 -6 
Q 947 78 500 244 
L 500 1259 
Q 947 1022 1364 901 
Q 1781 781 2169 781 
Q 2563 781 2772 912 
Q 2981 1044 2981 1288 
Q 2981 1506 2839 1625 
Q 2697 1744 2272 1838 
L 1806 1941 
Q 1106 2091 782 2419 
Q 459 2747 459 3303 
Q 459 4000 909 4375 
Q 1359 4750 2203 4750 
Q 2588 4750 2994 4692 
Q 3400 4634 3834 4519 
z
" transform="scale(0.015625)"/>
      <path id="DejaVuSans-Bold-79" d="M 78 3500 
L 1197 3500 
L 2138 1125 
L 2938 3500 
L 4056 3500 
L 2584 -331 
Q 2363 -916 2067 -1148 
Q 1772 -1381 1288 -1381 
L 641 -1381 
L 641 -647 
L 991 -647 
Q 1275 -647 1404 -556 
Q 1534 -466 1606 -231 
L 1638 -134 
L 78 3500 
z
" transform="scale(0.015625)"/>
      <path id="DejaVuSans-Bold-43" d="M 4288 256 
Q 3956 84 3597 -3 
Q 3238 -91 2847 -91 
Q 1681 -91 1000 561 
Q 319 1213 319 2328 
Q 319 3447 1000 4098 
Q 1681 4750 2847 4750 
Q 3238 4750 3597 4662 
Q 3956 4575 4288 4403 
L 4288 3438 
Q 3953 3666 3628 3772 
Q 3303 3878 2944 3878 
Q 2300 3878 1931 3465 
Q 1563 3053 1563 2328 
Q 1563 1606 1931 1193 
Q 2300 781 2944 781 
Q 3303 781 3628 887 
Q 3953 994 4288 1222 
L 4288 256 
z
" transform="scale(0.015625)"/>
      <path id="DejaVuSans-Bold-70" d="M 1656 506 
L 1656 -1331 
L 538 -1331 
L 538 3500 
L 1656 3500 
L 1656 2988 
Q 1888 3294 2169 3439 
Q 2450 3584 2816 3584 
Q 3463 3584 3878 3070 
Q 4294 2556 4294 1747 
Q 4294 938 3878 423 
Q 3463 -91 2816 -91 
Q 2450 -91 2169 54 
Q 1888 200 1656 506 
z
M 2400 2772 
Q 2041 2772 1848 2508 
Q 1656 2244 1656 1747 
Q 1656 1250 1848 986 
Q 2041 722 2400 722 
Q 2759 722 2948 984 
Q 3138 1247 3138 1747 
Q 3138 2247 2948 2509 
Q 2759 2772 2400 2772 
z
" transform="scale(0.015625)"/>
      <path id="DejaVuSans-Bold-72" d="M 3138 2547 
Q 2991 2616 2845 2648 
Q 2700 2681 2553 2681 
Q 2122 2681 1889 2404 
Q 1656 2128 1656 1613 
L 1656 0 
L 538 0 
L 538 3500 
L 1656 3500 
L 1656 2925 
Q 1872 3269 2151 3426 
Q 2431 3584 2822 3584 
Q 2878 3584 2943 3579 
Q 3009 3575 3134 3559 
L 3138 2547 
z
" transform="scale(0.015625)"/>
      <path id="DejaVuSans-Bold-28" d="M 2413 -844 
L 1484 -844 
Q 1006 -72 778 623 
Q 550 1319 550 2003 
Q 550 2688 779 3389 
Q 1009 4091 1484 4856 
L 2413 4856 
Q 2013 4116 1813 3408 
Q 1613 2700 1613 2009 
Q 1613 1319 1811 609 
Q 2009 -100 2413 -844 
z
" transform="scale(0.015625)"/>
      <path id="DejaVuSans-Bold-41" d="M 3419 850 
L 1538 850 
L 1241 0 
L 31 0 
L 1759 4666 
L 3194 4666 
L 4922 0 
L 3713 0 
L 3419 850 
z
M 1838 1716 
L 3116 1716 
L 2478 3572 
L 1838 1716 
z
" transform="scale(0.015625)"/>
      <path id="DejaVuSans-Bold-45" d="M 588 4666 
L 3834 4666 
L 3834 3756 
L 1791 3756 
L 1791 2888 
L 3713 2888 
L 3713 1978 
L 1791 1978 
L 1791 909 
L 3903 909 
L 3903 0 
L 588 0 
L 588 4666 
z
" transform="scale(0.015625)"/>
      <path id="DejaVuSans-Bold-78" d="M 1422 1791 
L 159 3500 
L 1344 3500 
L 2059 2463 
L 2784 3500 
L 3969 3500 
L 2706 1797 
L 4031 0 
L 2847 0 
L 2059 1106 
L 1281 0 
L 97 0 
L 1422 1791 
z
" transform="scale(0.015625)"/>
      <path id="DejaVuSans-Bold-29" d="M 513 -844 
Q 913 -100 1113 609 
Q 1313 1319 1313 2009 
Q 1313 2700 1113 3408 
Q 913 4116 513 4856 
L 1441 4856 
Q 1916 4091 2145 3389 
Q 2375 2688 2375 2003 
Q 2375 1319 2147 623 
Q 1919 -72 1441 -844 
L 513 -844 
z
" transform="scale(0.015625)"/>
     </defs>
     <use xlink:href="#DejaVuSans-Bold-4d"/>
     <use xlink:href="#DejaVuSans-Bold-75" transform="translate(99.511719 0)"/>
     <use xlink:href="#DejaVuSans-Bold-6c" transform="translate(170.703125 0)"/>
     <use xlink:href="#DejaVuSans-Bold-74" transform="translate(204.980469 0)"/>
     <use xlink:href="#DejaVuSans-Bold-69" transform="translate(252.783203 0)"/>
     <use xlink:href="#DejaVuSans-Bold-2d" transform="translate(287.060547 0)"/>
     <use xlink:href="#DejaVuSans-Bold-44" transform="translate(328.564453 0)"/>
     <use xlink:href="#DejaVuSans-Bold-69" transform="translate(411.572266 0)"/>
     <use xlink:href="#DejaVuSans-Bold-6d" transform="translate(445.849609 0)"/>
     <use xlink:href="#DejaVuSans-Bold-65" transform="translate(550.048828 0)"/>
     <use xlink:href="#DejaVuSans-Bold-6e" transform="translate(617.871094 0)"/>
     <use xlink:href="#DejaVuSans-Bold-73" transform="translate(689.0625 0)"/>
     <use xlink:href="#DejaVuSans-Bold-69" transform="translate(748.583984 0)"/>
     <use xlink:href="#DejaVuSans-Bold-6f" transform="translate(782.861328 0)"/>
     <use xlink:href="#DejaVuSans-Bold-6e" transform="translate(851.5625 0)"/>
     <use xlink:href="#DejaVuSans-Bold-61" transform="translate(922.753906 0)"/>
     <use xlink:href="#DejaVuSans-Bold-6c" transform="translate(990.234375 0)"/>
     <use xlink:href="#DejaVuSans-Bold-20" transform="translate(1024.511719 0)"/>
     <use xlink:href="#DejaVuSans-Bold-53" transform="translate(1059.326172 0)"/>
     <use xlink:href="#DejaVuSans-Bold-79" transform="translate(1131.347656 0)"/>
     <use xlink:href="#DejaVuSans-Bold-73" transform="translate(1196.533203 0)"/>
     <use xlink:href="#DejaVuSans-Bold-74" transform="translate(1256.054688 0)"/>
     <use xlink:href="#DejaVuSans-Bold-65" transform="translate(1303.857422 0)"/>
     <use xlink:href="#DejaVuSans-Bold-6d" transform="translate(1371.679688 0)"/>
     <use xlink:href="#DejaVuSans-Bold-20" transform="translate(1475.878906 0)"/>
     <use xlink:href="#DejaVuSans-Bold-43" transform="translate(1510.693359 0)"/>
     <use xlink:href="#DejaVuSans-Bold-6f" transform="translate(1584.082031 0)"/>
     <use xlink:href="#DejaVuSans-Bold-6d" transform="translate(1652.783203 0)"/>
     <use xlink:href="#DejaVuSans-Bold-70" transform="translate(1756.982422 0)"/>
     <use xlink:href="#DejaVuSans-Bold-61" transform="translate(1828.564453 0)"/>
     <use xlink:href="#DejaVuSans-Bold-72" transform="translate(1896.044922 0)"/>
     <use xlink:href="#DejaVuSans-Bold-69" transform="translate(1945.361328 0)"/>
     <use xlink:href="#DejaVuSans-Bold-73" transform="translate(1979.638672 0)"/>
     <use xlink:href="#DejaVuSans-Bold-6f" transform="translate(2039.160156 0)"/>
     <use xlink:href="#DejaVuSans-Bold-6e" transform="translate(2107.861328 0)"/>
     <use xlink:href="#DejaVuSans-Bold-20" transform="translate(2179.052734 0)"/>
     <use xlink:href="#DejaVuSans-Bold-28" transform="translate(2213.867188 0)"/>
     <use xlink:href="#DejaVuSans-Bold-41" transform="translate(2259.570312 0)"/>
     <use xlink:href="#DejaVuSans-Bold-6c" transform="translate(2336.962891 0)"/>
     <use xlink:href="#DejaVuSans-Bold-6c" transform="translate(2371.240234 0)"/>
     <use xlink:href="#DejaVuSans-Bold-20" transform="translate(2405.517578 0)"/>
     <use xlink:href="#DejaVuSans-Bold-45" transform="translate(2440.332031 0)"/>
     <use xlink:href="#DejaVuSans-Bold-78" transform="translate(2508.642578 0)"/>
     <use xlink:href="#DejaVuSans-Bold-70" transform="translate(2573.144531 0)"/>
     <use xlink:href="#DejaVuSans-Bold-65" transform="translate(2644.726562 0)"/>
     <use xlink:href="#DejaVuSans-Bold-72" transform="translate(2712.548828 0)"/>
     <use xlink:href="#DejaVuSans-Bold-69" transform="translate(2761.865234 0)"/>
     <use xlink:href="#DejaVuSans-Bold-6d" transform="translate(2796.142578 0)"/>
     <use xlink:href="#DejaVuSans-Bold-65" transform="translate(2900.341797 0)"/>
     <use xlink:href="#DejaVuSans-Bold-6e" transform="translate(2968.164062 0)"/>
     <use xlink:href="#DejaVuSans-Bold-74" transform="translate(3039.355469 0)"/>
     <use xlink:href="#DejaVuSans-Bold-73" transform="translate(3087.158203 0)"/>
     <use xlink:href="#DejaVuSans-Bold-29" transform="translate(3146.679688 0)"/>
    </g>
   </g>
   <g id="legend_1">
    <g id="patch_4">
     <path d="M 622.799875 93.662812 
L 708.676437 93.662812 
Q 710.676437 93.662812 710.676437 91.662812 
L 710.676437 32.837812 
Q 710.676437 30.837812 708.676437 30.837812 
L 622.799875 30.837812 
Q 620.799875 30.837812 620.799875 32.837812 
L 620.799875 91.662812 
Q 620.799875 93.662812 622.799875 93.662812 
z
" style="fill: #4d4d4d; opacity: 0.5; stroke: #4d4d4d; stroke-linejoin: miter"/>
    </g>
    <g id="patch_5">
     <path d="M 620.799875 91.662812 
L 706.676437 91.662812 
Q 708.676437 91.662812 708.676437 89.662812 
L 708.676437 30.837812 
Q 708.676437 28.837812 706.676437 28.837812 
L 620.799875 28.837812 
Q 618.799875 28.837812 618.799875 30.837812 
L 618.799875 89.662812 
Q 618.799875 91.662812 620.799875 91.662812 
z
" style="fill: #ffffff; stroke: #cccccc; stroke-linejoin: miter"/>
    </g>
    <g id="line2d_17">
     <path d="M 622.799875 36.93625 
L 632.799875 36.93625 
L 642.799875 36.93625 
" style="fill: none; stroke: #1f77b4; stroke-width: 2; stroke-linecap: square"/>
     <g>
      <use xlink:href="#m1b17e2f608" x="632.799875" y="36.93625" style="fill: #1f77b4; stroke: #ffffff; stroke-width: 1.5"/>
     </g>
    </g>
    <g id="text_14">
     <!-- system_01 -->
     <g transform="translate(650.799875 40.43625) scale(0.1 -0.1)">
      <defs>
       <path id="DejaVuSans-73" d="M 2834 3397 
L 2834 2853 
Q 2591 2978 2328 3040 
Q 2066 3103 1784 3103 
Q 1356 3103 1142 2972 
Q 928 2841 928 2578 
Q 928 2378 1081 2264 
Q 1234 2150 1697 2047 
L 1894 2003 
Q 2506 1872 2764 1633 
Q 3022 1394 3022 966 
Q 3022 478 2636 193 
Q 2250 -91 1575 -91 
Q 1294 -91 989 -36 
Q 684 19 347 128 
L 347 722 
Q 666 556 975 473 
Q 1284 391 1588 391 
Q 1994 391 2212 530 
Q 2431 669 2431 922 
Q 2431 1156 2273 1281 
Q 2116 1406 1581 1522 
L 1381 1569 
Q 847 1681 609 1914 
Q 372 2147 372 2553 
Q 372 3047 722 3315 
Q 1072 3584 1716 3584 
Q 2034 3584 2315 3537 
Q 2597 3491 2834 3397 
z
" transform="scale(0.015625)"/>
       <path id="DejaVuSans-79" d="M 2059 -325 
Q 1816 -950 1584 -1140 
Q 1353 -1331 966 -1331 
L 506 -1331 
L 506 -850 
L 844 -850 
Q 1081 -850 1212 -737 
Q 1344 -625 1503 -206 
L 1606 56 
L 191 3500 
L 800 3500 
L 1894 763 
L 2988 3500 
L 3597 3500 
L 2059 -325 
z
" transform="scale(0.015625)"/>
       <path id="DejaVuSans-74" d="M 1172 4494 
L 1172 3500 
L 2356 3500 
L 2356 3053 
L 1172 3053 
L 1172 1153 
Q 1172 725 1289 603 
Q 1406 481 1766 481 
L 2356 481 
L 2356 0 
L 1766 0 
Q 1100 0 847 248 
Q 594 497 594 1153 
L 594 3053 
L 172 3053 
L 172 3500 
L 594 3500 
L 594 4494 
L 1172 4494 
z
" transform="scale(0.015625)"/>
       <path id="DejaVuSans-65" d="M 3597 1894 
L 3597 1613 
L 953 1613 
Q 991 1019 1311 708 
Q 1631 397 2203 397 
Q 2534 397 2845 478 
Q 3156 559 3463 722 
L 3463 178 
Q 3153 47 2828 -22 
Q 2503 -91 2169 -91 
Q 1331 -91 842 396 
Q 353 884 353 1716 
Q 353 2575 817 3079 
Q 1281 3584 2069 3584 
Q 2775 3584 3186 3129 
Q 3597 2675 3597 1894 
z
M 3022 2063 
Q 3016 2534 2758 2815 
Q 2500 3097 2075 3097 
Q 1594 3097 1305 2825 
Q 1016 2553 972 2059 
L 3022 2063 
z
" transform="scale(0.015625)"/>
       <path id="DejaVuSans-6d" d="M 3328 2828 
Q 3544 3216 3844 3400 
Q 4144 3584 4550 3584 
Q 5097 3584 5394 3201 
Q 5691 2819 5691 2113 
L 5691 0 
L 5113 0 
L 5113 2094 
Q 5113 2597 4934 2840 
Q 4756 3084 4391 3084 
Q 3944 3084 3684 2787 
Q 3425 2491 3425 1978 
L 3425 0 
L 2847 0 
L 2847 2094 
Q 2847 2600 2669 2842 
Q 2491 3084 2119 3084 
Q 1678 3084 1418 2786 
Q 1159 2488 1159 1978 
L 1159 0 
L 581 0 
L 581 3500 
L 1159 3500 
L 1159 2956 
Q 1356 3278 1631 3431 
Q 1906 3584 2284 3584 
Q 2666 3584 2933 3390 
Q 3200 3197 3328 2828 
z
" transform="scale(0.015625)"/>
       <path id="DejaVuSans-5f" d="M 3263 -1063 
L 3263 -1509 
L -63 -1509 
L -63 -1063 
L 3263 -1063 
z
" transform="scale(0.015625)"/>
      </defs>
      <use xlink:href="#DejaVuSans-73"/>
      <use xlink:href="#DejaVuSans-79" transform="translate(52.099609 0)"/>
      <use xlink:href="#DejaVuSans-73" transform="translate(111.279297 0)"/>
      <use xlink:href="#DejaVuSans-74" transform="translate(163.378906 0)"/>
      <use xlink:href="#DejaVuSans-65" transform="translate(202.587891 0)"/>
      <use xlink:href="#DejaVuSans-6d" transform="translate(264.111328 0)"/>
      <use xlink:href="#DejaVuSans-5f" transform="translate(361.523438 0)"/>
      <use xlink:href="#DejaVuSans-30" transform="translate(411.523438 0)"/>
      <use xlink:href="#DejaVuSans-31" transform="translate(475.146484 0)"/>
     </g>
    </g>
    <g id="line2d_18">
     <path d="M 622.799875 51.8925 
L 632.799875 51.8925 
L 642.799875 51.8925 
" style="fill: none; stroke: #d62728; stroke-width: 2; stroke-linecap: square"/>
     <g>
      <use xlink:href="#m435f2127fc" x="632.799875" y="51.8925" style="fill: #d62728; stroke: #ffffff; stroke-width: 1.5; stroke-linejoin: miter"/>
     </g>
    </g>
    <g id="text_15">
     <!-- system_02 -->
     <g transform="translate(650.799875 55.3925) scale(0.1 -0.1)">
      <use xlink:href="#DejaVuSans-73"/>
      <use xlink:href="#DejaVuSans-79" transform="translate(52.099609 0)"/>
      <use xlink:href="#DejaVuSans-73" transform="translate(111.279297 0)"/>
      <use xlink:href="#DejaVuSans-74" transform="translate(163.378906 0)"/>
      <use xlink:href="#DejaVuSans-65" transform="translate(202.587891 0)"/>
      <use xlink:href="#DejaVuSans-6d" transform="translate(264.111328 0)"/>
      <use xlink:href="#DejaVuSans-5f" transform="translate(361.523438 0)"/>
      <use xlink:href="#DejaVuSans-30" transform="translate(411.523438 0)"/>
      <use xlink:href="#DejaVuSans-32" transform="translate(475.146484 0)"/>
     </g>
    </g>
    <g id="line2d_19">
     <path d="M 622.799875 66.84875 
L 632.799875 66.84875 
L 642.799875 66.84875 
" style="fill: none; stroke: #e377c2; stroke-width: 2; stroke-linecap: square"/>
     <g>
      <use xlink:href="#me0fd547ae1" x="632.799875" y="66.84875" style="fill: #e377c2; stroke: #ffffff; stroke-width: 1.5; stroke-linejoin: miter"/>
     </g>
    </g>
    <g id="text_16">
     <!-- system_03 -->
     <g transform="translate(650.799875 70.34875) scale(0.1 -0.1)">
      <defs>
       <path id="DejaVuSans-33" d="M 2597 2516 
Q 3050 2419 3304 2112 
Q 3559 1806 3559 1356 
Q 3559 666 3084 287 
Q 2609 -91 1734 -91 
Q 1441 -91 1130 -33 
Q 819 25 488 141 
L 488 750 
Q 750 597 1062 519 
Q 1375 441 1716 441 
Q 2309 441 2620 675 
Q 2931 909 2931 1356 
Q 2931 1769 2642 2001 
Q 2353 2234 1838 2234 
L 1294 2234 
L 1294 2753 
L 1863 2753 
Q 2328 2753 2575 2939 
Q 2822 3125 2822 3475 
Q 2822 3834 2567 4026 
Q 2313 4219 1838 4219 
Q 1578 4219 1281 4162 
Q 984 4106 628 3988 
L 628 4550 
Q 988 4650 1302 4700 
Q 1616 4750 1894 4750 
Q 2613 4750 3031 4423 
Q 3450 4097 3450 3541 
Q 3450 3153 3228 2886 
Q 3006 2619 2597 2516 
z
" transform="scale(0.015625)"/>
      </defs>
      <use xlink:href="#DejaVuSans-73"/>
      <use xlink:href="#DejaVuSans-79" transform="translate(52.099609 0)"/>
      <use xlink:href="#DejaVuSans-73" transform="translate(111.279297 0)"/>
      <use xlink:href="#DejaVuSans-74" transform="translate(163.378906 0)"/>
      <use xlink:href="#DejaVuSans-65" transform="translate(202.587891 0)"/>
      <use xlink:href="#DejaVuSans-6d" transform="translate(264.111328 0)"/>
      <use xlink:href="#DejaVuSans-5f" transform="translate(361.523438 0)"/>
      <use xlink:href="#DejaVuSans-30" transform="translate(411.523438 0)"/>
      <use xlink:href="#DejaVuSans-33" transform="translate(475.146484 0)"/>
     </g>
    </g>
    <g id="line2d_20">
     <path d="M 622.799875 81.805 
L 632.799875 81.805 
L 642.799875 81.805 
" style="fill: none; stroke: #17becf; stroke-width: 2; stroke-linecap: square"/>
     <g>
      <use xlink:href="#m8210a37bf8" x="632.799875" y="81.805" style="fill: #17becf; stroke: #ffffff; stroke-width: 1.5; stroke-linejoin: miter"/>
     </g>
    </g>
    <g id="text_17">
     <!-- system_05 -->
     <g transform="translate(650.799875 85.305) scale(0.1 -0.1)">
      <defs>
       <path id="DejaVuSans-35" d="M 691 4666 
L 3169 4666 
L 3169 4134 
L 1269 4134 
L 1269 2991 
Q 1406 3038 1543 3061 
Q 1681 3084 1819 3084 
Q 2600 3084 3056 2656 
Q 3513 2228 3513 1497 
Q 3513 744 3044 326 
Q 2575 -91 1722 -91 
Q 1428 -91 1123 -41 
Q 819 9 494 109 
L 494 744 
Q 775 591 1075 516 
Q 1375 441 1709 441 
Q 2250 441 2565 725 
Q 2881 1009 2881 1497 
Q 2881 1984 2565 2268 
Q 2250 2553 1709 2553 
Q 1456 2553 1204 2497 
Q 953 2441 691 2322 
L 691 4666 
z
" transform="scale(0.015625)"/>
      </defs>
      <use xlink:href="#DejaVuSans-73"/>
      <use xlink:href="#DejaVuSans-79" transform="translate(52.099609 0)"/>
      <use xlink:href="#DejaVuSans-73" transform="translate(111.279297 0)"/>
      <use xlink:href="#DejaVuSans-74" transform="translate(163.378906 0)"/>
      <use xlink:href="#DejaVuSans-65" transform="translate(202.587891 0)"/>
      <use xlink:href="#DejaVuSans-6d" transform="translate(264.111328 0)"/>
      <use xlink:href="#DejaVuSans-5f" transform="translate(361.523438 0)"/>
      <use xlink:href="#DejaVuSans-30" transform="translate(411.523438 0)"/>
      <use xlink:href="#DejaVuSans-35" transform="translate(475.146484 0)"/>
     </g>
    </g>
   </g>
  </g>
  <g id="text_18">
   <g id="patch_6">
    <path d="M 260.70375 713.413812 
L 441.313125 713.413812 
Q 449.313125 713.413812 449.313125 705.413812 
L 449.313125 615.461 
Q 449.313125 607.461 441.313125 607.461 
L 260.70375 607.461 
Q 252.70375 607.461 252.70375 615.461 
L 252.70375 705.413812 
Q 252.70375 713.413812 260.70375 713.413812 
z
" style="fill: #ffffff; stroke: #808080; stroke-linejoin: miter"/>
   </g>
   <!-- Indicator Descriptions -->
   <g transform="translate(284.785 622.834437) scale(0.1 -0.1)">
    <defs>
     <path id="DejaVuSansMono-49" d="M 628 4666 
L 3219 4666 
L 3219 4134 
L 2241 4134 
L 2241 531 
L 3219 531 
L 3219 0 
L 628 0 
L 628 531 
L 1606 531 
L 1606 4134 
L 628 4134 
L 628 4666 
z
" transform="scale(0.015625)"/>
     <path id="DejaVuSansMono-6e" d="M 3284 2169 
L 3284 0 
L 2706 0 
L 2706 2169 
Q 2706 2641 2540 2862 
Q 2375 3084 2022 3084 
Q 1619 3084 1401 2798 
Q 1184 2513 1184 1978 
L 1184 0 
L 609 0 
L 609 3500 
L 1184 3500 
L 1184 2975 
Q 1338 3275 1600 3429 
Q 1863 3584 2222 3584 
Q 2756 3584 3020 3232 
Q 3284 2881 3284 2169 
z
" transform="scale(0.015625)"/>
     <path id="DejaVuSansMono-64" d="M 2681 3053 
L 2681 4863 
L 3256 4863 
L 3256 0 
L 2681 0 
L 2681 441 
Q 2538 181 2298 45 
Q 2059 -91 1747 -91 
Q 1113 -91 748 401 
Q 384 894 384 1759 
Q 384 2613 750 3098 
Q 1116 3584 1747 3584 
Q 2063 3584 2303 3448 
Q 2544 3313 2681 3053 
z
M 991 1747 
Q 991 1078 1203 737 
Q 1416 397 1831 397 
Q 2247 397 2464 740 
Q 2681 1084 2681 1747 
Q 2681 2413 2464 2755 
Q 2247 3097 1831 3097 
Q 1416 3097 1203 2756 
Q 991 2416 991 1747 
z
" transform="scale(0.015625)"/>
     <path id="DejaVuSansMono-69" d="M 800 3500 
L 2272 3500 
L 2272 447 
L 3413 447 
L 3413 0 
L 556 0 
L 556 447 
L 1697 447 
L 1697 3053 
L 800 3053 
L 800 3500 
z
M 1697 4863 
L 2272 4863 
L 2272 4134 
L 1697 4134 
L 1697 4863 
z
" transform="scale(0.015625)"/>
     <path id="DejaVuSansMono-63" d="M 3316 178 
Q 3084 44 2839 -23 
Q 2594 -91 2338 -91 
Q 1525 -91 1067 396 
Q 609 884 609 1747 
Q 609 2609 1067 3096 
Q 1525 3584 2338 3584 
Q 2591 3584 2831 3518 
Q 3072 3453 3316 3316 
L 3316 2713 
Q 3088 2916 2858 3006 
Q 2628 3097 2338 3097 
Q 1797 3097 1506 2747 
Q 1216 2397 1216 1747 
Q 1216 1100 1508 748 
Q 1800 397 2338 397 
Q 2638 397 2875 489 
Q 3113 581 3316 775 
L 3316 178 
z
" transform="scale(0.015625)"/>
     <path id="DejaVuSansMono-61" d="M 2194 1759 
L 2003 1759 
Q 1500 1759 1245 1582 
Q 991 1406 991 1056 
Q 991 741 1181 566 
Q 1372 391 1709 391 
Q 2184 391 2456 720 
Q 2728 1050 2731 1631 
L 2731 1759 
L 2194 1759 
z
M 3309 1997 
L 3309 0 
L 2731 0 
L 2731 519 
Q 2547 206 2267 57 
Q 1988 -91 1588 -91 
Q 1053 -91 734 211 
Q 416 513 416 1019 
Q 416 1603 808 1906 
Q 1200 2209 1959 2209 
L 2731 2209 
L 2731 2300 
Q 2728 2719 2518 2908 
Q 2309 3097 1850 3097 
Q 1556 3097 1256 3012 
Q 956 2928 672 2766 
L 672 3341 
Q 991 3463 1283 3523 
Q 1575 3584 1850 3584 
Q 2284 3584 2592 3456 
Q 2900 3328 3091 3072 
Q 3209 2916 3259 2686 
Q 3309 2456 3309 1997 
z
" transform="scale(0.015625)"/>
     <path id="DejaVuSansMono-74" d="M 1919 4494 
L 1919 3500 
L 3225 3500 
L 3225 3053 
L 1919 3053 
L 1919 1153 
Q 1919 766 2066 612 
Q 2213 459 2578 459 
L 3225 459 
L 3225 0 
L 2522 0 
Q 1875 0 1609 259 
Q 1344 519 1344 1153 
L 1344 3053 
L 409 3053 
L 409 3500 
L 1344 3500 
L 1344 4494 
L 1919 4494 
z
" transform="scale(0.015625)"/>
     <path id="DejaVuSansMono-6f" d="M 1925 3097 
Q 1488 3097 1263 2756 
Q 1038 2416 1038 1747 
Q 1038 1081 1263 739 
Q 1488 397 1925 397 
Q 2366 397 2591 739 
Q 2816 1081 2816 1747 
Q 2816 2416 2591 2756 
Q 2366 3097 1925 3097 
z
M 1925 3584 
Q 2653 3584 3039 3112 
Q 3425 2641 3425 1747 
Q 3425 850 3040 379 
Q 2656 -91 1925 -91 
Q 1197 -91 812 379 
Q 428 850 428 1747 
Q 428 2641 812 3112 
Q 1197 3584 1925 3584 
z
" transform="scale(0.015625)"/>
     <path id="DejaVuSansMono-72" d="M 3609 2778 
Q 3425 2922 3234 2987 
Q 3044 3053 2816 3053 
Q 2278 3053 1993 2715 
Q 1709 2378 1709 1741 
L 1709 0 
L 1131 0 
L 1131 3500 
L 1709 3500 
L 1709 2816 
Q 1853 3188 2151 3386 
Q 2450 3584 2859 3584 
Q 3072 3584 3256 3531 
Q 3441 3478 3609 3366 
L 3609 2778 
z
" transform="scale(0.015625)"/>
     <path id="DejaVuSansMono-20" transform="scale(0.015625)"/>
     <path id="DejaVuSansMono-44" d="M 1363 519 
Q 2159 519 2475 911 
Q 2791 1303 2791 2328 
Q 2791 3363 2477 3755 
Q 2163 4147 1363 4147 
L 1063 4147 
L 1063 519 
L 1363 519 
z
M 1375 4666 
Q 2444 4666 2950 4097 
Q 3456 3528 3456 2328 
Q 3456 1134 2950 567 
Q 2444 0 1375 0 
L 428 0 
L 428 4666 
L 1375 4666 
z
" transform="scale(0.015625)"/>
     <path id="DejaVuSansMono-65" d="M 3475 1894 
L 3475 1613 
L 984 1613 
L 984 1594 
Q 984 1022 1282 709 
Q 1581 397 2125 397 
Q 2400 397 2700 484 
Q 3000 572 3341 750 
L 3341 178 
Q 3013 44 2708 -23 
Q 2403 -91 2119 -91 
Q 1303 -91 843 398 
Q 384 888 384 1747 
Q 384 2584 834 3084 
Q 1284 3584 2034 3584 
Q 2703 3584 3089 3131 
Q 3475 2678 3475 1894 
z
M 2900 2063 
Q 2888 2569 2661 2833 
Q 2434 3097 2009 3097 
Q 1594 3097 1325 2822 
Q 1056 2547 1006 2059 
L 2900 2063 
z
" transform="scale(0.015625)"/>
     <path id="DejaVuSansMono-73" d="M 3041 3378 
L 3041 2816 
Q 2794 2959 2544 3031 
Q 2294 3103 2034 3103 
Q 1644 3103 1451 2976 
Q 1259 2850 1259 2591 
Q 1259 2356 1403 2240 
Q 1547 2125 2119 2016 
L 2350 1972 
Q 2778 1891 2998 1647 
Q 3219 1403 3219 1013 
Q 3219 494 2850 201 
Q 2481 -91 1825 -91 
Q 1566 -91 1281 -36 
Q 997 19 666 128 
L 666 722 
Q 988 556 1281 473 
Q 1575 391 1838 391 
Q 2219 391 2428 545 
Q 2638 700 2638 978 
Q 2638 1378 1872 1531 
L 1847 1538 
L 1631 1581 
Q 1134 1678 906 1908 
Q 678 2138 678 2534 
Q 678 3038 1018 3311 
Q 1359 3584 1991 3584 
Q 2272 3584 2531 3532 
Q 2791 3481 3041 3378 
z
" transform="scale(0.015625)"/>
     <path id="DejaVuSansMono-70" d="M 1172 441 
L 1172 -1331 
L 594 -1331 
L 594 3500 
L 1172 3500 
L 1172 3053 
Q 1316 3313 1555 3448 
Q 1794 3584 2106 3584 
Q 2741 3584 3102 3093 
Q 3463 2603 3463 1734 
Q 3463 881 3100 395 
Q 2738 -91 2106 -91 
Q 1788 -91 1548 45 
Q 1309 181 1172 441 
z
M 2859 1747 
Q 2859 2416 2648 2756 
Q 2438 3097 2022 3097 
Q 1603 3097 1387 2755 
Q 1172 2413 1172 1747 
Q 1172 1084 1387 740 
Q 1603 397 2022 397 
Q 2438 397 2648 737 
Q 2859 1078 2859 1747 
z
" transform="scale(0.015625)"/>
    </defs>
    <use xlink:href="#DejaVuSansMono-49"/>
    <use xlink:href="#DejaVuSansMono-6e" transform="translate(60.205078 0)"/>
    <use xlink:href="#DejaVuSansMono-64" transform="translate(120.410156 0)"/>
    <use xlink:href="#DejaVuSansMono-69" transform="translate(180.615234 0)"/>
    <use xlink:href="#DejaVuSansMono-63" transform="translate(240.820312 0)"/>
    <use xlink:href="#DejaVuSansMono-61" transform="translate(301.025391 0)"/>
    <use xlink:href="#DejaVuSansMono-74" transform="translate(361.230469 0)"/>
    <use xlink:href="#DejaVuSansMono-6f" transform="translate(421.435547 0)"/>
    <use xlink:href="#DejaVuSansMono-72" transform="translate(481.640625 0)"/>
    <use xlink:href="#DejaVuSansMono-20" transform="translate(541.845703 0)"/>
    <use xlink:href="#DejaVuSansMono-44" transform="translate(602.050781 0)"/>
    <use xlink:href="#DejaVuSansMono-65" transform="translate(662.255859 0)"/>
    <use xlink:href="#DejaVuSansMono-73" transform="translate(722.460938 0)"/>
    <use xlink:href="#DejaVuSansMono-63" transform="translate(782.666016 0)"/>
    <use xlink:href="#DejaVuSansMono-72" transform="translate(842.871094 0)"/>
    <use xlink:href="#DejaVuSansMono-69" transform="translate(903.076172 0)"/>
    <use xlink:href="#DejaVuSansMono-70" transform="translate(963.28125 0)"/>
    <use xlink:href="#DejaVuSansMono-74" transform="translate(1023.486328 0)"/>
    <use xlink:href="#DejaVuSansMono-69" transform="translate(1083.691406 0)"/>
    <use xlink:href="#DejaVuSansMono-6f" transform="translate(1143.896484 0)"/>
    <use xlink:href="#DejaVuSansMono-6e" transform="translate(1204.101562 0)"/>
    <use xlink:href="#DejaVuSansMono-73" transform="translate(1264.306641 0)"/>
   </g>
   <!--  -->
   <g transform="translate(284.785 634.096) scale(0.1 -0.1)">
    <defs>
     <path id="DejaVuSansMono-2500" d="M -63 1931 
L -63 2469 
L 3916 2469 
L 3916 1931 
L -63 1931 
z
" transform="scale(0.015625)"/>
    </defs>
    <use xlink:href="#DejaVuSansMono-2500"/>
    <use xlink:href="#DejaVuSansMono-2500" transform="translate(60.205078 0)"/>
    <use xlink:href="#DejaVuSansMono-2500" transform="translate(120.410156 0)"/>
    <use xlink:href="#DejaVuSansMono-2500" transform="translate(180.615234 0)"/>
    <use xlink:href="#DejaVuSansMono-2500" transform="translate(240.820312 0)"/>
    <use xlink:href="#DejaVuSansMono-2500" transform="translate(301.025391 0)"/>
    <use xlink:href="#DejaVuSansMono-2500" transform="translate(361.230469 0)"/>
    <use xlink:href="#DejaVuSansMono-2500" transform="translate(421.435547 0)"/>
    <use xlink:href="#DejaVuSansMono-2500" transform="translate(481.640625 0)"/>
    <use xlink:href="#DejaVuSansMono-2500" transform="translate(541.845703 0)"/>
    <use xlink:href="#DejaVuSansMono-2500" transform="translate(602.050781 0)"/>
    <use xlink:href="#DejaVuSansMono-2500" transform="translate(662.255859 0)"/>
    <use xlink:href="#DejaVuSansMono-2500" transform="translate(722.460938 0)"/>
    <use xlink:href="#DejaVuSansMono-2500" transform="translate(782.666016 0)"/>
    <use xlink:href="#DejaVuSansMono-2500" transform="translate(842.871094 0)"/>
    <use xlink:href="#DejaVuSansMono-2500" transform="translate(903.076172 0)"/>
    <use xlink:href="#DejaVuSansMono-2500" transform="translate(963.28125 0)"/>
    <use xlink:href="#DejaVuSansMono-2500" transform="translate(1023.486328 0)"/>
    <use xlink:href="#DejaVuSansMono-2500" transform="translate(1083.691406 0)"/>
    <use xlink:href="#DejaVuSansMono-2500" transform="translate(1143.896484 0)"/>
    <use xlink:href="#DejaVuSansMono-2500" transform="translate(1204.101562 0)"/>
    <use xlink:href="#DejaVuSansMono-2500" transform="translate(1264.306641 0)"/>
   </g>
   <!-- IND01: electricity_consumption -->
   <g transform="translate(260.70375 645.357562) scale(0.1 -0.1)">
    <defs>
     <path id="DejaVuSansMono-4e" d="M 434 4666 
L 1234 4666 
L 2809 825 
L 2809 4666 
L 3419 4666 
L 3419 0 
L 2619 0 
L 1044 3841 
L 1044 0 
L 434 0 
L 434 4666 
z
" transform="scale(0.015625)"/>
     <path id="DejaVuSansMono-30" d="M 1509 2344 
Q 1509 2516 1629 2641 
Q 1750 2766 1919 2766 
Q 2094 2766 2219 2641 
Q 2344 2516 2344 2344 
Q 2344 2169 2220 2047 
Q 2097 1925 1919 1925 
Q 1744 1925 1626 2044 
Q 1509 2163 1509 2344 
z
M 1925 4250 
Q 1484 4250 1267 3775 
Q 1050 3300 1050 2328 
Q 1050 1359 1267 884 
Q 1484 409 1925 409 
Q 2369 409 2586 884 
Q 2803 1359 2803 2328 
Q 2803 3300 2586 3775 
Q 2369 4250 1925 4250 
z
M 1925 4750 
Q 2672 4750 3055 4137 
Q 3438 3525 3438 2328 
Q 3438 1134 3055 521 
Q 2672 -91 1925 -91 
Q 1178 -91 797 521 
Q 416 1134 416 2328 
Q 416 3525 797 4137 
Q 1178 4750 1925 4750 
z
" transform="scale(0.015625)"/>
     <path id="DejaVuSansMono-31" d="M 844 531 
L 1825 531 
L 1825 4097 
L 769 3859 
L 769 4434 
L 1819 4666 
L 2450 4666 
L 2450 531 
L 3419 531 
L 3419 0 
L 844 0 
L 844 531 
z
" transform="scale(0.015625)"/>
     <path id="DejaVuSansMono-3a" d="M 1528 3322 
L 2316 3322 
L 2316 2375 
L 1528 2375 
L 1528 3322 
z
M 1528 953 
L 2316 953 
L 2316 0 
L 1528 0 
L 1528 953 
z
" transform="scale(0.015625)"/>
     <path id="DejaVuSansMono-6c" d="M 1997 1269 
Q 1997 881 2139 684 
Q 2281 488 2559 488 
L 3231 488 
L 3231 0 
L 2503 0 
Q 1988 0 1705 331 
Q 1422 663 1422 1269 
L 1422 4447 
L 500 4447 
L 500 4897 
L 1997 4897 
L 1997 1269 
z
" transform="scale(0.015625)"/>
     <path id="DejaVuSansMono-79" d="M 2681 1125 
Q 2538 759 2316 163 
Q 2006 -663 1900 -844 
Q 1756 -1088 1540 -1209 
Q 1325 -1331 1038 -1331 
L 575 -1331 
L 575 -850 
L 916 -850 
Q 1169 -850 1312 -703 
Q 1456 -556 1678 56 
L 325 3500 
L 934 3500 
L 1972 763 
L 2994 3500 
L 3603 3500 
L 2681 1125 
z
" transform="scale(0.015625)"/>
     <path id="DejaVuSansMono-5f" d="M 3853 -1259 
L 3853 -1509 
L 0 -1509 
L 0 -1259 
L 3853 -1259 
z
" transform="scale(0.015625)"/>
     <path id="DejaVuSansMono-75" d="M 609 1325 
L 609 3494 
L 1184 3494 
L 1184 1325 
Q 1184 853 1351 631 
Q 1519 409 1869 409 
Q 2275 409 2490 695 
Q 2706 981 2706 1516 
L 2706 3494 
L 3284 3494 
L 3284 0 
L 2706 0 
L 2706 525 
Q 2553 222 2289 65 
Q 2025 -91 1672 -91 
Q 1134 -91 871 261 
Q 609 613 609 1325 
z
" transform="scale(0.015625)"/>
     <path id="DejaVuSansMono-6d" d="M 2113 3144 
Q 2219 3369 2383 3476 
Q 2547 3584 2778 3584 
Q 3200 3584 3373 3257 
Q 3547 2931 3547 2028 
L 3547 0 
L 3022 0 
L 3022 2003 
Q 3022 2744 2939 2923 
Q 2856 3103 2638 3103 
Q 2388 3103 2295 2911 
Q 2203 2719 2203 2003 
L 2203 0 
L 1678 0 
L 1678 2003 
Q 1678 2753 1589 2928 
Q 1500 3103 1269 3103 
Q 1041 3103 952 2911 
Q 863 2719 863 2003 
L 863 0 
L 341 0 
L 341 3500 
L 863 3500 
L 863 3200 
Q 966 3388 1120 3486 
Q 1275 3584 1472 3584 
Q 1709 3584 1867 3475 
Q 2025 3366 2113 3144 
z
" transform="scale(0.015625)"/>
    </defs>
    <use xlink:href="#DejaVuSansMono-49"/>
    <use xlink:href="#DejaVuSansMono-4e" transform="translate(60.205078 0)"/>
    <use xlink:href="#DejaVuSansMono-44" transform="translate(120.410156 0)"/>
    <use xlink:href="#DejaVuSansMono-30" transform="translate(180.615234 0)"/>
    <use xlink:href="#DejaVuSansMono-31" transform="translate(240.820312 0)"/>
    <use xlink:href="#DejaVuSansMono-3a" transform="translate(301.025391 0)"/>
    <use xlink:href="#DejaVuSansMono-20" transform="translate(361.230469 0)"/>
    <use xlink:href="#DejaVuSansMono-65" transform="translate(421.435547 0)"/>
    <use xlink:href="#DejaVuSansMono-6c" transform="translate(481.640625 0)"/>
    <use xlink:href="#DejaVuSansMono-65" transform="translate(541.845703 0)"/>
    <use xlink:href="#DejaVuSansMono-63" transform="translate(602.050781 0)"/>
    <use xlink:href="#DejaVuSansMono-74" transform="translate(662.255859 0)"/>
    <use xlink:href="#DejaVuSansMono-72" transform="translate(722.460938 0)"/>
    <use xlink:href="#DejaVuSansMono-69" transform="translate(782.666016 0)"/>
    <use xlink:href="#DejaVuSansMono-63" transform="translate(842.871094 0)"/>
    <use xlink:href="#DejaVuSansMono-69" transform="translate(903.076172 0)"/>
    <use xlink:href="#DejaVuSansMono-74" transform="translate(963.28125 0)"/>
    <use xlink:href="#DejaVuSansMono-79" transform="translate(1023.486328 0)"/>
    <use xlink:href="#DejaVuSansMono-5f" transform="translate(1083.691406 0)"/>
    <use xlink:href="#DejaVuSansMono-63" transform="translate(1143.896484 0)"/>
    <use xlink:href="#DejaVuSansMono-6f" transform="translate(1204.101562 0)"/>
    <use xlink:href="#DejaVuSansMono-6e" transform="translate(1264.306641 0)"/>
    <use xlink:href="#DejaVuSansMono-73" transform="translate(1324.511719 0)"/>
    <use xlink:href="#DejaVuSansMono-75" transform="translate(1384.716797 0)"/>
    <use xlink:href="#DejaVuSansMono-6d" transform="translate(1444.921875 0)"/>
    <use xlink:href="#DejaVuSansMono-70" transform="translate(1505.126953 0)"/>
    <use xlink:href="#DejaVuSansMono-74" transform="translate(1565.332031 0)"/>
    <use xlink:href="#DejaVuSansMono-69" transform="translate(1625.537109 0)"/>
    <use xlink:href="#DejaVuSansMono-6f" transform="translate(1685.742188 0)"/>
    <use xlink:href="#DejaVuSansMono-6e" transform="translate(1745.947266 0)"/>
   </g>
   <!-- IND02: utilization_rate -->
   <g transform="translate(281.774844 656.89725) scale(0.1 -0.1)">
    <defs>
     <path id="DejaVuSansMono-32" d="M 1166 531 
L 3309 531 
L 3309 0 
L 475 0 
L 475 531 
Q 1059 1147 1496 1619 
Q 1934 2091 2100 2284 
Q 2413 2666 2522 2902 
Q 2631 3138 2631 3384 
Q 2631 3775 2401 3997 
Q 2172 4219 1772 4219 
Q 1488 4219 1175 4116 
Q 863 4013 513 3803 
L 513 4441 
Q 834 4594 1145 4672 
Q 1456 4750 1759 4750 
Q 2444 4750 2861 4386 
Q 3278 4022 3278 3431 
Q 3278 3131 3139 2831 
Q 3000 2531 2688 2169 
Q 2513 1966 2180 1606 
Q 1847 1247 1166 531 
z
" transform="scale(0.015625)"/>
     <path id="DejaVuSansMono-7a" d="M 709 3506 
L 3250 3506 
L 3250 2981 
L 1241 469 
L 3250 469 
L 3250 0 
L 634 0 
L 634 531 
L 2644 3047 
L 709 3047 
L 709 3506 
z
" transform="scale(0.015625)"/>
    </defs>
    <use xlink:href="#DejaVuSansMono-49"/>
    <use xlink:href="#DejaVuSansMono-4e" transform="translate(60.205078 0)"/>
    <use xlink:href="#DejaVuSansMono-44" transform="translate(120.410156 0)"/>
    <use xlink:href="#DejaVuSansMono-30" transform="translate(180.615234 0)"/>
    <use xlink:href="#DejaVuSansMono-32" transform="translate(240.820312 0)"/>
    <use xlink:href="#DejaVuSansMono-3a" transform="translate(301.025391 0)"/>
    <use xlink:href="#DejaVuSansMono-20" transform="translate(361.230469 0)"/>
    <use xlink:href="#DejaVuSansMono-75" transform="translate(421.435547 0)"/>
    <use xlink:href="#DejaVuSansMono-74" transform="translate(481.640625 0)"/>
    <use xlink:href="#DejaVuSansMono-69" transform="translate(541.845703 0)"/>
    <use xlink:href="#DejaVuSansMono-6c" transform="translate(602.050781 0)"/>
    <use xlink:href="#DejaVuSansMono-69" transform="translate(662.255859 0)"/>
    <use xlink:href="#DejaVuSansMono-7a" transform="translate(722.460938 0)"/>
    <use xlink:href="#DejaVuSansMono-61" transform="translate(782.666016 0)"/>
    <use xlink:href="#DejaVuSansMono-74" transform="translate(842.871094 0)"/>
    <use xlink:href="#DejaVuSansMono-69" transform="translate(903.076172 0)"/>
    <use xlink:href="#DejaVuSansMono-6f" transform="translate(963.28125 0)"/>
    <use xlink:href="#DejaVuSansMono-6e" transform="translate(1023.486328 0)"/>
    <use xlink:href="#DejaVuSansMono-5f" transform="translate(1083.691406 0)"/>
    <use xlink:href="#DejaVuSansMono-72" transform="translate(1143.896484 0)"/>
    <use xlink:href="#DejaVuSansMono-61" transform="translate(1204.101562 0)"/>
    <use xlink:href="#DejaVuSansMono-74" transform="translate(1264.306641 0)"/>
    <use xlink:href="#DejaVuSansMono-65" transform="translate(1324.511719 0)"/>
   </g>
   <!-- IND03: labor_cost -->
   <g transform="translate(299.835781 668.436937) scale(0.1 -0.1)">
    <defs>
     <path id="DejaVuSansMono-33" d="M 2425 2497 
Q 2884 2375 3128 2064 
Q 3372 1753 3372 1288 
Q 3372 644 2939 276 
Q 2506 -91 1741 -91 
Q 1419 -91 1084 -31 
Q 750 28 428 141 
L 428 769 
Q 747 603 1056 522 
Q 1366 441 1672 441 
Q 2191 441 2469 675 
Q 2747 909 2747 1350 
Q 2747 1756 2469 1995 
Q 2191 2234 1716 2234 
L 1234 2234 
L 1234 2753 
L 1716 2753 
Q 2150 2753 2394 2943 
Q 2638 3134 2638 3475 
Q 2638 3834 2411 4026 
Q 2184 4219 1766 4219 
Q 1488 4219 1191 4156 
Q 894 4094 569 3969 
L 569 4550 
Q 947 4650 1242 4700 
Q 1538 4750 1766 4750 
Q 2447 4750 2855 4408 
Q 3263 4066 3263 3500 
Q 3263 3116 3048 2859 
Q 2834 2603 2425 2497 
z
" transform="scale(0.015625)"/>
     <path id="DejaVuSansMono-62" d="M 2869 1747 
Q 2869 2416 2656 2756 
Q 2444 3097 2028 3097 
Q 1609 3097 1393 2755 
Q 1178 2413 1178 1747 
Q 1178 1084 1393 740 
Q 1609 397 2028 397 
Q 2444 397 2656 737 
Q 2869 1078 2869 1747 
z
M 1178 3053 
Q 1316 3309 1558 3446 
Q 1800 3584 2119 3584 
Q 2750 3584 3112 3098 
Q 3475 2613 3475 1759 
Q 3475 894 3111 401 
Q 2747 -91 2113 -91 
Q 1800 -91 1561 45 
Q 1322 181 1178 441 
L 1178 0 
L 603 0 
L 603 4863 
L 1178 4863 
L 1178 3053 
z
" transform="scale(0.015625)"/>
    </defs>
    <use xlink:href="#DejaVuSansMono-49"/>
    <use xlink:href="#DejaVuSansMono-4e" transform="translate(60.205078 0)"/>
    <use xlink:href="#DejaVuSansMono-44" transform="translate(120.410156 0)"/>
    <use xlink:href="#DejaVuSansMono-30" transform="translate(180.615234 0)"/>
    <use xlink:href="#DejaVuSansMono-33" transform="translate(240.820312 0)"/>
    <use xlink:href="#DejaVuSansMono-3a" transform="translate(301.025391 0)"/>
    <use xlink:href="#DejaVuSansMono-20" transform="translate(361.230469 0)"/>
    <use xlink:href="#DejaVuSansMono-6c" transform="translate(421.435547 0)"/>
    <use xlink:href="#DejaVuSansMono-61" transform="translate(481.640625 0)"/>
    <use xlink:href="#DejaVuSansMono-62" transform="translate(541.845703 0)"/>
    <use xlink:href="#DejaVuSansMono-6f" transform="translate(602.050781 0)"/>
    <use xlink:href="#DejaVuSansMono-72" transform="translate(662.255859 0)"/>
    <use xlink:href="#DejaVuSansMono-5f" transform="translate(722.460938 0)"/>
    <use xlink:href="#DejaVuSansMono-63" transform="translate(782.666016 0)"/>
    <use xlink:href="#DejaVuSansMono-6f" transform="translate(842.871094 0)"/>
    <use xlink:href="#DejaVuSansMono-73" transform="translate(903.076172 0)"/>
    <use xlink:href="#DejaVuSansMono-74" transform="translate(963.28125 0)"/>
   </g>
   <!-- IND04: lead_time -->
   <g transform="translate(302.845937 679.976625) scale(0.1 -0.1)">
    <defs>
     <path id="DejaVuSansMono-34" d="M 2297 4091 
L 825 1625 
L 2297 1625 
L 2297 4091 
z
M 2194 4666 
L 2925 4666 
L 2925 1625 
L 3547 1625 
L 3547 1113 
L 2925 1113 
L 2925 0 
L 2297 0 
L 2297 1113 
L 319 1113 
L 319 1709 
L 2194 4666 
z
" transform="scale(0.015625)"/>
    </defs>
    <use xlink:href="#DejaVuSansMono-49"/>
    <use xlink:href="#DejaVuSansMono-4e" transform="translate(60.205078 0)"/>
    <use xlink:href="#DejaVuSansMono-44" transform="translate(120.410156 0)"/>
    <use xlink:href="#DejaVuSansMono-30" transform="translate(180.615234 0)"/>
    <use xlink:href="#DejaVuSansMono-34" transform="translate(240.820312 0)"/>
    <use xlink:href="#DejaVuSansMono-3a" transform="translate(301.025391 0)"/>
    <use xlink:href="#DejaVuSansMono-20" transform="translate(361.230469 0)"/>
    <use xlink:href="#DejaVuSansMono-6c" transform="translate(421.435547 0)"/>
    <use xlink:href="#DejaVuSansMono-65" transform="translate(481.640625 0)"/>
    <use xlink:href="#DejaVuSansMono-61" transform="translate(541.845703 0)"/>
    <use xlink:href="#DejaVuSansMono-64" transform="translate(602.050781 0)"/>
    <use xlink:href="#DejaVuSansMono-5f" transform="translate(662.255859 0)"/>
    <use xlink:href="#DejaVuSansMono-74" transform="translate(722.460938 0)"/>
    <use xlink:href="#DejaVuSansMono-69" transform="translate(782.666016 0)"/>
    <use xlink:href="#DejaVuSansMono-6d" transform="translate(842.871094 0)"/>
    <use xlink:href="#DejaVuSansMono-65" transform="translate(903.076172 0)"/>
   </g>
   <!-- IND05: production_output -->
   <g transform="translate(278.764687 691.516312) scale(0.1 -0.1)">
    <defs>
     <path id="DejaVuSansMono-35" d="M 647 4666 
L 3009 4666 
L 3009 4134 
L 1222 4134 
L 1222 2988 
Q 1356 3038 1492 3061 
Q 1628 3084 1766 3084 
Q 2491 3084 2916 2656 
Q 3341 2228 3341 1497 
Q 3341 759 2895 334 
Q 2450 -91 1678 -91 
Q 1306 -91 998 -41 
Q 691 9 447 109 
L 447 750 
Q 734 594 1025 517 
Q 1316 441 1619 441 
Q 2141 441 2423 716 
Q 2706 991 2706 1497 
Q 2706 1997 2414 2275 
Q 2122 2553 1600 2553 
Q 1347 2553 1106 2495 
Q 866 2438 647 2322 
L 647 4666 
z
" transform="scale(0.015625)"/>
    </defs>
    <use xlink:href="#DejaVuSansMono-49"/>
    <use xlink:href="#DejaVuSansMono-4e" transform="translate(60.205078 0)"/>
    <use xlink:href="#DejaVuSansMono-44" transform="translate(120.410156 0)"/>
    <use xlink:href="#DejaVuSansMono-30" transform="translate(180.615234 0)"/>
    <use xlink:href="#DejaVuSansMono-35" transform="translate(240.820312 0)"/>
    <use xlink:href="#DejaVuSansMono-3a" transform="translate(301.025391 0)"/>
    <use xlink:href="#DejaVuSansMono-20" transform="translate(361.230469 0)"/>
    <use xlink:href="#DejaVuSansMono-70" transform="translate(421.435547 0)"/>
    <use xlink:href="#DejaVuSansMono-72" transform="translate(481.640625 0)"/>
    <use xlink:href="#DejaVuSansMono-6f" transform="translate(541.845703 0)"/>
    <use xlink:href="#DejaVuSansMono-64" transform="translate(602.050781 0)"/>
    <use xlink:href="#DejaVuSansMono-75" transform="translate(662.255859 0)"/>
    <use xlink:href="#DejaVuSansMono-63" transform="translate(722.460938 0)"/>
    <use xlink:href="#DejaVuSansMono-74" transform="translate(782.666016 0)"/>
    <use xlink:href="#DejaVuSansMono-69" transform="translate(842.871094 0)"/>
    <use xlink:href="#DejaVuSansMono-6f" transform="translate(903.076172 0)"/>
    <use xlink:href="#DejaVuSansMono-6e" transform="translate(963.28125 0)"/>
    <use xlink:href="#DejaVuSansMono-5f" transform="translate(1023.486328 0)"/>
    <use xlink:href="#DejaVuSansMono-6f" transform="translate(1083.691406 0)"/>
    <use xlink:href="#DejaVuSansMono-75" transform="translate(1143.896484 0)"/>
    <use xlink:href="#DejaVuSansMono-74" transform="translate(1204.101562 0)"/>
    <use xlink:href="#DejaVuSansMono-70" transform="translate(1264.306641 0)"/>
    <use xlink:href="#DejaVuSansMono-75" transform="translate(1324.511719 0)"/>
    <use xlink:href="#DejaVuSansMono-74" transform="translate(1384.716797 0)"/>
   </g>
   <!-- IND06: circularity_index -->
   <g transform="translate(278.764687 703.056) scale(0.1 -0.1)">
    <defs>
     <path id="DejaVuSansMono-36" d="M 3097 4563 
L 3097 3981 
Q 2900 4097 2678 4158 
Q 2456 4219 2216 4219 
Q 1616 4219 1306 3767 
Q 997 3316 997 2438 
Q 1147 2750 1412 2917 
Q 1678 3084 2022 3084 
Q 2697 3084 3067 2670 
Q 3438 2256 3438 1497 
Q 3438 741 3056 325 
Q 2675 -91 1984 -91 
Q 1172 -91 794 492 
Q 416 1075 416 2328 
Q 416 3509 870 4129 
Q 1325 4750 2188 4750 
Q 2419 4750 2650 4701 
Q 2881 4653 3097 4563 
z
M 1972 2591 
Q 1569 2591 1337 2300 
Q 1106 2009 1106 1497 
Q 1106 984 1337 693 
Q 1569 403 1972 403 
Q 2391 403 2603 679 
Q 2816 956 2816 1497 
Q 2816 2041 2603 2316 
Q 2391 2591 1972 2591 
z
" transform="scale(0.015625)"/>
     <path id="DejaVuSansMono-78" d="M 3494 3500 
L 2241 1825 
L 3616 0 
L 2950 0 
L 1925 1403 
L 903 0 
L 238 0 
L 1613 1825 
L 359 3500 
L 997 3500 
L 1925 2234 
L 2847 3500 
L 3494 3500 
z
" transform="scale(0.015625)"/>
    </defs>
    <use xlink:href="#DejaVuSansMono-49"/>
    <use xlink:href="#DejaVuSansMono-4e" transform="translate(60.205078 0)"/>
    <use xlink:href="#DejaVuSansMono-44" transform="translate(120.410156 0)"/>
    <use xlink:href="#DejaVuSansMono-30" transform="translate(180.615234 0)"/>
    <use xlink:href="#DejaVuSansMono-36" transform="translate(240.820312 0)"/>
    <use xlink:href="#DejaVuSansMono-3a" transform="translate(301.025391 0)"/>
    <use xlink:href="#DejaVuSansMono-20" transform="translate(361.230469 0)"/>
    <use xlink:href="#DejaVuSansMono-63" transform="translate(421.435547 0)"/>
    <use xlink:href="#DejaVuSansMono-69" transform="translate(481.640625 0)"/>
    <use xlink:href="#DejaVuSansMono-72" transform="translate(541.845703 0)"/>
    <use xlink:href="#DejaVuSansMono-63" transform="translate(602.050781 0)"/>
    <use xlink:href="#DejaVuSansMono-75" transform="translate(662.255859 0)"/>
    <use xlink:href="#DejaVuSansMono-6c" transform="translate(722.460938 0)"/>
    <use xlink:href="#DejaVuSansMono-61" transform="translate(782.666016 0)"/>
    <use xlink:href="#DejaVuSansMono-72" transform="translate(842.871094 0)"/>
    <use xlink:href="#DejaVuSansMono-69" transform="translate(903.076172 0)"/>
    <use xlink:href="#DejaVuSansMono-74" transform="translate(963.28125 0)"/>
    <use xlink:href="#DejaVuSansMono-79" transform="translate(1023.486328 0)"/>
    <use xlink:href="#DejaVuSansMono-5f" transform="translate(1083.691406 0)"/>
    <use xlink:href="#DejaVuSansMono-69" transform="translate(1143.896484 0)"/>
    <use xlink:href="#DejaVuSansMono-6e" transform="translate(1204.101562 0)"/>
    <use xlink:href="#DejaVuSansMono-64" transform="translate(1264.306641 0)"/>
    <use xlink:href="#DejaVuSansMono-65" transform="translate(1324.511719 0)"/>
    <use xlink:href="#DejaVuSansMono-78" transform="translate(1384.716797 0)"/>
   </g>
  </g>
 </g>
 <defs>
  <clipPath id="p4138b08959">
   <path d="M 558.228437 334.733812 
C 558.228437 300.711739 551.526831 267.020487 538.507147 235.588189 
C 525.487463 204.155891 506.402902 175.593827 482.345662 151.536588 
C 458.288423 127.479348 429.726359 108.394787 398.294061 95.375103 
C 366.861763 82.355419 333.170511 75.653812 299.148437 75.653812 
C 265.126364 75.653812 231.435112 82.355419 200.002814 95.375103 
C 168.570516 108.394787 140.008452 127.479348 115.951213 151.536588 
C 91.893973 175.593827 72.809412 204.155891 59.789728 235.588189 
C 46.770044 267.020487 40.068437 300.711739 40.068437 334.733812 
C 40.068437 368.755886 46.770044 402.447138 59.789728 433.879436 
C 72.809412 465.311734 91.893973 493.873798 115.951213 517.931037 
C 140.008452 541.988277 168.570516 561.072838 200.002814 574.092522 
C 231.435112 587.112206 265.126364 593.813812 299.148437 593.813812 
C 333.170511 593.813812 366.861763 587.112206 398.294061 574.092522 
C 429.726359 561.072838 458.288423 541.988277 482.345662 517.931037 
C 506.402902 493.873798 525.487463 465.311734 538.507147 433.879436 
C 551.526831 402.447138 558.228437 368.755886 558.228437 334.733812 
M 299.148437 334.733812 
C 299.148437 334.733812 299.148437 334.733812 299.148437 334.733812 
C 299.148437 334.733812 299.148437 334.733812 299.148437 334.733812 
C 299.148437 334.733812 299.148437 334.733812 299.148437 334.733812 
C 299.148437 334.733812 299.148437 334.733812 299.148437 334.733812 
C 299.148437 334.733812 299.148437 334.733812 299.148437 334.733812 
C 299.148437 334.733812 299.148437 334.733812 299.148437 334.733812 
C 299.148437 334.733812 299.148437 334.733812 299.148437 334.733812 
C 299.148437 334.733812 299.148437 334.733812 299.148437 334.733812 
C 299.148437 334.733812 299.148437 334.733812 299.148437 334.733812 
C 299.148437 334.733812 299.148437 334.733812 299.148437 334.733812 
C 299.148437 334.733812 299.148437 334.733812 299.148437 334.733812 
C 299.148437 334.733812 299.148437 334.733812 299.148437 334.733812 
C 299.148437 334.733812 299.148437 334.733812 299.148437 334.733812 
C 299.148437 334.733812 299.148437 334.733812 299.148437 334.733812 
C 299.148437 334.733812 299.148437 334.733812 299.148437 334.733812 
C 299.148437 334.733812 299.148437 334.733812 299.148437 334.733812 
z
"/>
  </clipPath>
 </defs>
</svg>
